<?xml version="1.0" encoding="utf-8"?>
<!-- Generator: Adobe Illustrator 19.0.0, SVG Export Plug-In . SVG Version: 6.00 Build 0)  -->
<svg version="1.1" xmlns="http://www.w3.org/2000/svg" xmlns:xlink="http://www.w3.org/1999/xlink" x="0px" y="0px"
	 viewBox="0 0 757.3 482.7" style="enable-background:new 0 0 757.3 482.7;" xml:space="preserve">
<g id="Layer_2">
	<rect x="-46.5" y="-968.7" style="fill:#E9ECF0;" width="1077.1" height="718"/>
</g>
<g id="OBJECTS">
	<rect x="117.7" y="-859.7" style="display:none;fill:#FFFFFF;" width="748" height="478.8"/>
	<g id="bg">
		<g>
			<path style="fill:#FFFFFF;" d="M965.1-458.9c-10.1-36.3,22-37.7,22.7-84.4c0.3-19.1-10.2-38.6-35.4-47.5
				c-12.4-4.4-24.7-7.4-35.8-14.4c-25.1-15.9-24.7-46.2-31.5-72c-15-56.7-73-101.7-131.6-100.2c-42.3,1.1-80.5,2.3-119,38.2
				c-26.4,24.5-43.5,54.7-68,80c-25.9,26.8-57.5,39.6-93,48.3c-33.5,8.1-70,17.8-95.7,42.2c-24.1,22.9-20.6,46.9-10.3,75.1
				c11.4,31.1-13.3,52.2-39.1,64.3c-21.7,10.2-50.6,9.3-60.7,33.7c-10.9,26.4,21.5,26.9,51.7,26.9c30.2,0,421.1-2.3,530.3,0.9
				c29.4,0.9,123.2,8.9,136.5-27.8C995.6-420.6,972.2-433.5,965.1-458.9z"/>
		</g>
		<g>
			<path style="fill:none;stroke:#91A1AD;stroke-width:1.0564;stroke-miterlimit:10;" d="M998.7-470.2
				c-21.8,50.8-63.9,92.3-114.3,114.8"/>
			<g>
				<g>
					<path style="fill:#91A1AD;" d="M992.3-456.7c7.6-6.3,12.8-15.5,14.4-25.3c0.4-2.4,0.5-5.1-1.2-7c-0.4-0.5-1-0.9-1.7-1
						c-1.1-0.1-2,0.7-2.7,1.5c-3.8,4.3-5.1,10.2-5.8,15.8C994.7-466.9,993.4-462.8,992.3-456.7"/>
				</g>
				<g>
					<path style="fill:#91A1AD;" d="M981.9-439.4c4.5-8.8,5.6-19.3,3.2-28.9c-0.6-2.4-1.6-4.9-3.8-5.9c-0.6-0.3-1.3-0.4-1.9-0.2
						c-1,0.3-1.6,1.4-1.9,2.4c-1.8,5.4-0.7,11.3,1,16.8C980.1-449.7,980.6-445.4,981.9-439.4"/>
				</g>
				<g>
					<path style="fill:#91A1AD;" d="M966.7-418.1c5.5-8.2,8-18.5,6.7-28.3c-0.3-2.4-1-5.1-3.1-6.3c-0.6-0.4-1.2-0.6-1.9-0.5
						c-1.1,0.2-1.7,1.2-2.2,2.2c-2.4,5.2-2,11.2-1.1,16.8C966.1-428.6,966.1-424.3,966.7-418.1"/>
				</g>
				<g>
					<path style="fill:#91A1AD;" d="M949.1-399.4c5.5-8.2,8-18.5,6.7-28.3c-0.3-2.4-1-5.1-3.1-6.3c-0.6-0.4-1.2-0.6-1.9-0.5
						c-1.1,0.2-1.7,1.2-2.2,2.2c-2.4,5.2-2,11.2-1.1,16.8C948.5-409.9,948.5-405.6,949.1-399.4"/>
				</g>
				<g>
					<path style="fill:#91A1AD;" d="M922.9-377.9c6.4-7.6,9.8-17.6,9.6-27.5c-0.1-2.4-0.5-5.1-2.4-6.6c-0.5-0.4-1.2-0.7-1.8-0.7
						c-1.1,0.1-1.9,1-2.4,2c-3,4.9-3.2,10.9-2.8,16.6C923.4-388.4,922.9-384.1,922.9-377.9"/>
				</g>
				<g>
					<path style="fill:#91A1AD;" d="M902.3-364.1c6.3-6.8,10.3-16.2,11.1-26.1c0.2-2.4,0.1-5.2-1.3-6.9c-0.4-0.5-0.9-0.9-1.5-0.9
						c-0.9,0-1.7,0.8-2.3,1.6c-3.1,4.5-3.9,10.4-4.2,16.1C903.8-374.5,903-370.3,902.3-364.1"/>
				</g>
				<g>
					<path style="fill:#91A1AD;" d="M976.7-431.7c10.1,1.7,20.9-0.4,30-5.7c2.2-1.3,4.5-3.1,5-5.5c0.1-0.7,0.1-1.4-0.3-2
						c-0.6-0.9-1.8-1.1-3-1.1c-5.9-0.1-11.6,2.8-16.7,6.1C986.7-436.7,982.5-434.9,976.7-431.7"/>
				</g>
				<g>
					<path style="fill:#91A1AD;" d="M964.4-415.6c9.4,4,20.4,4.6,30.5,1.6c2.5-0.7,5.1-1.9,6.2-4.2c0.3-0.6,0.4-1.3,0.2-2
						c-0.4-1-1.5-1.5-2.6-1.8c-5.7-1.5-11.9,0-17.6,1.9C975.3-418.1,970.7-417.3,964.4-415.6"/>
				</g>
				<g>
					<path style="fill:#91A1AD;" d="M946-396.8c8.4,5.8,19.1,8.6,29.5,7.6c2.6-0.2,5.4-0.8,6.9-2.9c0.4-0.6,0.7-1.2,0.6-1.9
						c-0.1-1.1-1.2-1.8-2.2-2.3c-5.3-2.6-11.7-2.4-17.7-1.6C957.1-397.1,952.5-397.2,946-396.8"/>
				</g>
				<g>
					<path style="fill:#91A1AD;" d="M920.2-375.1c9.5,3.8,20.5,4.1,30.5,0.9c2.4-0.8,5.1-2,6.1-4.3c0.3-0.6,0.4-1.4,0.2-2
						c-0.4-1-1.6-1.5-2.6-1.7c-5.8-1.4-11.9,0.2-17.6,2.3C931-377.8,926.5-377,920.2-375.1"/>
				</g>
				<g>
					<path style="fill:#91A1AD;" d="M899.4-362.7c6.7,7.7,16.5,12.9,26.8,14.5c2.5,0.4,5.4,0.5,7.4-1.1c0.5-0.4,1-1,1-1.7
						c0.1-1.1-0.7-2-1.6-2.7c-4.5-3.8-10.8-5.2-16.8-5.8C910.3-360.2,905.9-361.5,899.4-362.7"/>
				</g>
			</g>
		</g>
		<g>
			<g>
				<path style="fill:#4E7EB9;" d="M875.2-577.1c-0.3,0-0.5-0.2-0.5-0.5l-0.2-2.7c0-0.3,0.2-0.6,0.5-0.6c0.3,0,0.6,0.2,0.6,0.5
					l0.2,2.7C875.8-577.3,875.6-577.1,875.2-577.1C875.3-577.1,875.3-577.1,875.2-577.1z"/>
			</g>
			<g>
				<g>
					<polygon style="fill:#B0CEE5;" points="887.4,-453.6 880.3,-453.1 872.3,-568.9 875.9,-569.1 879.4,-569.4 					"/>
				</g>
			</g>
			<polygon style="fill:#B0CEE5;" points="875.9,-578.7 874.5,-578.6 872.3,-568.9 879.4,-569.4 			"/>
		</g>
		<g>
			<path style="fill:none;stroke:#91A1AD;stroke-width:1.0564;stroke-miterlimit:10;" d="M482.1-549.9
				c12.8,69.8,61.4,132,126.1,161.2"/>
			<g>
				<g>
					<path style="fill:#91A1AD;" d="M485.3-535.3c-6-7.9-9.1-18-8.4-27.9c0.2-2.4,0.7-5.1,2.7-6.5c0.5-0.4,1.2-0.7,1.9-0.6
						c1.1,0.1,1.8,1.1,2.3,2.1c2.7,5,2.7,11,2.1,16.7S485.6-541.5,485.3-535.3"/>
				</g>
				<g>
					<path style="fill:#91A1AD;" d="M491.6-516.1c-2.4-9.6-1.2-20.1,3.3-28.9c1.1-2.2,2.7-4.4,5-4.9c0.7-0.1,1.4-0.1,1.9,0.2
						c0.9,0.5,1.2,1.7,1.3,2.8c0.5,5.7-1.9,11.2-4.7,16.2C495.7-525.8,494.2-521.7,491.6-516.1"/>
				</g>
				<g>
					<path style="fill:#91A1AD;" d="M501.7-492c-3.6-9.3-3.6-19.8-0.2-29.1c0.8-2.3,2.1-4.7,4.4-5.5c0.6-0.2,1.3-0.3,2,0
						c1,0.4,1.4,1.6,1.7,2.6c1.2,5.6-0.5,11.4-2.7,16.6C504.6-502.1,503.7-497.9,501.7-492"/>
				</g>
				<g>
					<path style="fill:#91A1AD;" d="M514.6-469.9c-3.6-9.3-3.6-19.8-0.2-29.1c0.8-2.3,2.1-4.7,4.4-5.5c0.6-0.2,1.3-0.3,2,0
						c1,0.4,1.4,1.6,1.7,2.6c1.2,5.6-0.5,11.4-2.7,16.6C517.5-480,516.6-475.8,514.6-469.9"/>
				</g>
				<g>
					<path style="fill:#91A1AD;" d="M535.4-443c-4.5-8.8-5.7-19.3-3.2-28.9c0.6-2.4,1.6-4.9,3.8-5.9c0.6-0.3,1.3-0.4,1.9-0.2
						c1,0.3,1.6,1.4,1.9,2.4c1.8,5.4,0.7,11.3-1,16.8C537.3-453.4,536.8-449.1,535.4-443"/>
				</g>
				<g>
					<path style="fill:#91A1AD;" d="M552.4-425c-4.6-8-6.4-18.1-5-27.9c0.3-2.4,1-5.1,2.8-6.4c0.5-0.4,1.1-0.6,1.7-0.5
						c0.9,0.2,1.5,1.2,1.9,2.1c2,5,1.5,11,0.5,16.7C553.2-435.5,553.1-431.2,552.4-425"/>
				</g>
				<g>
					<path style="fill:#91A1AD;" d="M494.9-507.5c-10.2-0.6-20.3-5.1-27.9-12.3c-1.9-1.8-3.7-4-3.6-6.5c0-0.7,0.2-1.4,0.7-1.9
						c0.8-0.7,2-0.7,3.1-0.4c5.8,1.2,10.7,5.3,14.9,9.7C486.3-514.6,490-511.9,494.9-507.5"/>
				</g>
				<g>
					<path style="fill:#91A1AD;" d="M503.4-489.1c-10,1.8-20.9-0.1-30.1-5.3c-2.2-1.3-4.6-3-5.1-5.4c-0.1-0.7-0.1-1.4,0.2-2
						c0.6-0.9,1.8-1.1,2.9-1.2c5.9-0.2,11.6,2.6,16.8,5.8C493.3-493.9,497.5-492.2,503.4-489.1"/>
				</g>
				<g>
					<path style="fill:#91A1AD;" d="M517.1-466.7c-9.5,3.8-20.5,4.1-30.5,0.9c-2.4-0.8-5.1-2-6.1-4.3c-0.3-0.6-0.4-1.4-0.2-2
						c0.4-1,1.6-1.5,2.6-1.7c5.8-1.4,11.9,0.3,17.6,2.4C506.3-469.4,510.8-468.5,517.1-466.7"/>
				</g>
				<g>
					<path style="fill:#91A1AD;" d="M537.4-439.8c-10.1,1.6-20.9-0.6-29.9-5.9c-2.2-1.3-4.5-3.1-5-5.6c-0.1-0.7-0.1-1.4,0.3-2
						c0.6-0.9,1.8-1.1,3-1.1c5.9-0.1,11.6,2.9,16.6,6.2C527.5-444.8,531.7-443,537.4-439.8"/>
				</g>
				<g>
					<path style="fill:#91A1AD;" d="M554.9-423c-8.3,6-18.9,8.9-29.4,8.2c-2.6-0.2-5.4-0.7-6.9-2.7c-0.4-0.5-0.7-1.2-0.6-1.9
						c0.1-1.1,1.2-1.8,2.1-2.3c5.3-2.7,11.6-2.6,17.6-1.9C543.8-423,548.4-423.3,554.9-423"/>
				</g>
			</g>
		</g>
		<g>
			<path style="fill:none;stroke:#91A1AD;stroke-width:1.0564;stroke-miterlimit:10;" d="M356.3-452.5
				c70.9-3.2,142.4,30.2,185.4,86.6"/>
			<g>
				<g>
					<path style="fill:#91A1AD;" d="M371.2-452.6c-9-4.1-19.6-4.8-29.1-1.9c-2.3,0.7-4.8,1.8-5.8,4.1c-0.3,0.6-0.4,1.3-0.1,2
						c0.4,1,1.5,1.5,2.5,1.8c5.5,1.6,11.4,0.2,16.8-1.7C360.9-450.3,365.2-451,371.2-452.6"/>
				</g>
				<g>
					<path style="fill:#91A1AD;" d="M391.3-450.8c-9.9-0.2-19.9,3.4-27.4,9.8c-1.9,1.6-3.7,3.6-3.7,6c0,0.7,0.2,1.4,0.6,1.8
						c0.7,0.8,2,0.8,3,0.7c5.7-0.8,10.5-4.4,14.7-8.2C382.8-444.6,386.4-447,391.3-450.8"/>
				</g>
				<g>
					<path style="fill:#91A1AD;" d="M417.1-446.4c-9.8-1.4-20.1,0.9-28.4,6.3c-2,1.3-4.1,3.1-4.4,5.5c-0.1,0.7,0,1.4,0.4,1.9
						c0.6,0.9,1.9,1,2.9,1c5.7-0.1,11-3,15.6-6.4C407.9-441.3,411.8-443.1,417.1-446.4"/>
				</g>
				<g>
					<path style="fill:#91A1AD;" d="M441.6-438.7c-9.8-1.4-20.1,0.9-28.4,6.3c-2,1.3-4.1,3.1-4.4,5.5c-0.1,0.7,0,1.4,0.4,1.9
						c0.6,0.9,1.9,1,2.9,1c5.7-0.1,11-3,15.6-6.4C432.3-433.6,436.2-435.5,441.6-438.7"/>
				</g>
				<g>
					<path style="fill:#91A1AD;" d="M472.4-424.5c-9.6-2.4-20.1-1.2-28.9,3.4c-2.2,1.1-4.4,2.7-4.9,5c-0.1,0.7-0.1,1.4,0.2,1.9
						c0.5,0.9,1.7,1.2,2.8,1.3c5.7,0.5,11.2-1.9,16.2-4.7C462.7-420.4,466.8-421.8,472.4-424.5"/>
				</g>
				<g>
					<path style="fill:#91A1AD;" d="M493.7-412c-8.8-2.7-19.1-2.2-28.4,1.4c-2.3,0.9-4.7,2.1-5.6,4.2c-0.2,0.6-0.4,1.2-0.1,1.7
						c0.4,0.9,1.5,1.2,2.5,1.3c5.4,0.8,11.1-1.1,16.3-3.3C483.7-408.9,487.9-409.9,493.7-412"/>
				</g>
				<g>
					<path style="fill:#91A1AD;" d="M400.4-449.5c-2.9-9.8-9.5-18.6-18.2-24.5c-2.1-1.4-4.7-2.7-7.1-2.1c-0.7,0.2-1.3,0.5-1.6,1.1
						c-0.6,0.9-0.2,2.1,0.3,3.1c2.5,5.4,7.6,9.2,12.8,12.3S395.1-453.3,400.4-449.5"/>
				</g>
				<g>
					<path style="fill:#91A1AD;" d="M420.3-445.4c-0.5-10.2-4.8-20.4-11.9-28.1c-1.7-1.9-3.9-3.8-6.4-3.7c-0.7,0-1.4,0.2-1.9,0.7
						c-0.8,0.8-0.7,2-0.5,3.1c1.1,5.8,5.2,10.8,9.4,15C413.4-454.1,416-450.4,420.3-445.4"/>
				</g>
				<g>
					<path style="fill:#91A1AD;" d="M445.3-437c1.6-10.1-0.6-20.9-6-29.9c-1.3-2.2-3.1-4.5-5.6-4.9c-0.7-0.1-1.4-0.1-2,0.3
						c-0.9,0.6-1.1,1.8-1.1,3c0,5.9,2.9,11.6,6.3,16.6C440.2-447,442-442.8,445.3-437"/>
				</g>
				<g>
					<path style="fill:#91A1AD;" d="M476-423.3c-0.7-10.2-5.2-20.3-12.5-27.8c-1.8-1.9-4-3.7-6.5-3.6c-0.7,0-1.4,0.2-1.8,0.7
						c-0.7,0.8-0.6,2-0.4,3.1c1.3,5.8,5.4,10.6,9.8,14.8C468.9-431.9,471.6-428.2,476-423.3"/>
				</g>
				<g>
					<path style="fill:#91A1AD;" d="M496.3-410c3.9-9.4,4.4-20.4,1.4-30.5c-0.8-2.5-1.9-5.1-4.2-6.1c-0.6-0.3-1.3-0.4-2-0.2
						c-1,0.4-1.5,1.5-1.8,2.6c-1.5,5.7,0.1,11.9,2.1,17.6C493.8-420.9,494.6-416.4,496.3-410"/>
				</g>
			</g>
		</g>
		<g>
			<path style="fill:#91A1AD;" d="M580.2-422.5c-10.3-9.6-24.8-14.5-38.8-13.1c-9.5,1-19.8,6-21.9,15.3c-1,4.4-0.6,10.3-4.8,12
				c-4.1,1.7-8.1-2.5-12.3-3.9c-7-2.3-15,5.7-12.6,12.7c1.1,3.2,3.8,6,3.5,9.3c-0.3,4.6-5.9,6.9-10.5,6.2c-4.5-0.7-8.5-3.3-12.9-4.5
				c-4.4-1.1-10.2,0-11.7,4.3c-1.4,3.9,1,9-2,11.8c-1.3,1.2-3.2,1.4-4.9,1.6c-38.4,3.6-80.7,10.5-76.4,17.3c1.2,1.9,4.2,1.3,6.4,1.2
				c81.7-1.3,155.9-2.5,237.6,0"/>
		</g>
		<path style="fill:none;stroke:#6A7680;stroke-width:1.0564;stroke-miterlimit:10;stroke-dasharray:2.641;" d="M589.8-578
			c-5.7,16.3-22.7,34.4-42.1,34.4c-22,0-27.4-17.8-33.8-23.5c-15.8-13.9-25.6-17.1-45.7-20.5c-13.1-2.2-27-20.6-23.7-38.8
			c6.2-33.2,66-49,81.2-73.3c12.3-19.8,11.7-31.6,33.3-45.8"/>
		<g>
			<polyline style="fill:#5B656D;" points="852.4,-550.8 876.6,-455.8 872,-454.7 842,-548.2 			"/>
			<g>
				<path style="fill:#6A7680;" d="M829.9-548.6c-12.4,3.2-25.5-6.4-29.3-21.4c-3.8-14.9,3.2-29.7,15.5-32.8
					c12.4-3.2,25.5,6.4,29.3,21.4C849.3-566.5,842.3-551.8,829.9-548.6z M818.2-594.5c-7.8,2-12,12-9.3,22.4
					c2.6,10.4,11.1,17.2,18.9,15.2c7.8-2,12-12,9.3-22.4C834.5-589.7,826-596.5,818.2-594.5z"/>
			</g>
			<g>
				<path style="fill:#97A8B5;" d="M842.7-575c0.4,1.6,7.4,28.9,7.4,28.9c0.4,1.5-0.5,2.9-2,3.3l0,0c-1.5,0.4-2.9-0.5-3.3-2
					l-0.8-3.3c0,0-3.9-8.2-14.6-4.8c0,0,12.8-1.6,13.2-1.6C843-554.4,842.3-576.6,842.7-575z"/>
				<path style="fill:#6A7680;" d="M849.1-538.7c-3.7,1-7.6-1.3-8.5-5.1c0,0-0.4-2.3-1.3-3.5c-1.4-2-4.2-2.7-9.4-1.4l-1.3-7.3
					c2.7-0.9,4.7-2.2,6.9-2c1.2-0.1,2.1-0.3,3-0.4c0-2.2-0.1-5.2-0.1-7.4c0-2.4,3.1-5.1,3.1-6.8c0-3.1-3.2-6.2,0.7-6.7l3.8-0.5
					l8.3,32.6C855.2-543.5,852.9-539.6,849.1-538.7z"/>
			</g>
			<g>
				<polyline style="fill:#5B656D;" points="855.9,-551.7 856,-453.7 860.7,-453.7 866.6,-551.7 				"/>
				<g>
					<path style="fill:#6A7680;" d="M855-583.1c0-15.4,10.4-28,23.1-28c12.8,0,23.2,12.5,23.2,28c0,15.4-10.4,28-23.1,28
						C865.4-555.1,855-567.6,855-583.1z M863.6-583.1c0,10.7,6.6,19.4,14.6,19.4c8,0,14.6-8.7,14.6-19.4c0-10.7-6.6-19.4-14.6-19.4
						C870.1-602.5,863.6-593.8,863.6-583.1z"/>
				</g>
				<g>
					<path style="fill:#97A8B5;" d="M859.3-577.5c0,1.6,0,29.8,0,29.8c0,1.5,1.2,2.7,2.7,2.7l0,0c1.5,0,2.7-1.2,2.7-2.7l0-3.4
						c0,0,1.7-8.9,12.9-8.3c0,0-12.7,1.6-13.2,1.8C864.1-557.5,859.3-579.1,859.3-577.5z"/>
					<path style="fill:#6A7680;" d="M862-540.7c3.9,0,7-3.1,7-7c0,0-0.1-2.3,0.4-3.7c0.9-2.2,3.4-3.7,8.7-3.7l-0.5-7.4
						c-2.8-0.2-5.1-1-7.1-0.3c-1.2,0.2-2.1,0.3-3,0.4c-0.5-2.2-1.2-5-1.8-7.2c-0.6-2.3-4.3-4.2-4.7-5.9c-0.8-3,1.5-6.8-2.3-6.4
						l-3.8,0.4l0,33.7C855-543.9,858.2-540.7,862-540.7z"/>
				</g>
			</g>
		</g>
		<g>
			<g>
				<path style="fill:none;stroke:#91BAE6;stroke-width:1.0564;stroke-miterlimit:10;" d="M730.4-690c0.1-0.4,0.2-0.9,0.3-1.3"/>
				<path style="fill:none;stroke:#91BAE6;stroke-width:1.0564;stroke-miterlimit:10;stroke-dasharray:2.6471,2.6471;" d="
					M731.4-693.8c5.8-18.2,25.5-38,56.1-30.9c21.1,4.9,26.7,24.7,38,37.5c8.4,9.5,20.3,17.2,24.2,30.6c9,30.8-3.3,64.2-25.2,74.7
					c-12.7,6.1-45.1,3-59.9-2.9"/>
				<path style="fill:none;stroke:#91BAE6;stroke-width:1.0564;stroke-miterlimit:10;" d="M763.5-585.3c-0.4-0.2-0.8-0.4-1.2-0.6"/>
			</g>
		</g>
		<g>
			<g>
				<path style="fill:#5B656D;" d="M897.2-471l-12.3-2.2l19.2-106.4c0.1-0.6,0.7-1.1,1.4-0.9l10,1.8c0.6,0.1,1.1,0.7,0.9,1.4
					L897.2-471z"/>
			</g>
			<g>
				<path style="fill:#E57174;" d="M914.5-566.8l-12.3-2.2l1.9-10.6c0.1-0.6,0.7-1.1,1.4-0.9l10,1.8c0.6,0.1,1.1,0.7,0.9,1.4
					L914.5-566.8z"/>
			</g>
			<g style="opacity:0.5;">
				<g>
					
						<rect x="901.7" y="-567.9" transform="matrix(0.9841 0.1777 -0.1777 0.9841 -86.1533 -170.3955)" style="fill:#4B535C;" width="12.5" height="3.8"/>
				</g>
			</g>
		</g>
		<g>
			
				<rect x="907.4" y="-563.5" transform="matrix(0.9303 0.3667 -0.3667 0.9303 -121.2392 -371.8862)" style="fill:#B0CEE5;" width="21.6" height="117"/>
			<g>
				
					<line style="fill:none;stroke:#B8D5E6;stroke-width:1.0564;stroke-miterlimit:10;" x1="941.7" y1="-554.6" x2="948.3" y2="-552"/>
				
					<line style="fill:none;stroke:#B8D5E6;stroke-width:1.0564;stroke-miterlimit:10;" x1="939.5" y1="-548.9" x2="946.1" y2="-546.3"/>
				
					<line style="fill:none;stroke:#B8D5E6;stroke-width:1.0564;stroke-miterlimit:10;" x1="937.2" y1="-543.3" x2="943.9" y2="-540.7"/>
				
					<line style="fill:none;stroke:#B8D5E6;stroke-width:1.0564;stroke-miterlimit:10;" x1="931.8" y1="-538.9" x2="941.7" y2="-535"/>
				
					<line style="fill:none;stroke:#B8D5E6;stroke-width:1.0564;stroke-miterlimit:10;" x1="932.8" y1="-532" x2="939.4" y2="-529.4"/>
				
					<line style="fill:none;stroke:#B8D5E6;stroke-width:1.0564;stroke-miterlimit:10;" x1="930.6" y1="-526.3" x2="937.2" y2="-523.7"/>
				
					<line style="fill:none;stroke:#B8D5E6;stroke-width:1.0564;stroke-miterlimit:10;" x1="928.3" y1="-520.7" x2="935" y2="-518.1"/>
				
					<line style="fill:none;stroke:#B8D5E6;stroke-width:1.0564;stroke-miterlimit:10;" x1="922.9" y1="-516.3" x2="932.7" y2="-512.4"/>
				
					<line style="fill:none;stroke:#B8D5E6;stroke-width:1.0564;stroke-miterlimit:10;" x1="923.9" y1="-509.4" x2="930.5" y2="-506.7"/>
				
					<line style="fill:none;stroke:#B8D5E6;stroke-width:1.0564;stroke-miterlimit:10;" x1="921.7" y1="-503.7" x2="928.3" y2="-501.1"/>
				
					<line style="fill:none;stroke:#B8D5E6;stroke-width:1.0564;stroke-miterlimit:10;" x1="919.4" y1="-498.1" x2="926.1" y2="-495.4"/>
				
					<line style="fill:none;stroke:#B8D5E6;stroke-width:1.0564;stroke-miterlimit:10;" x1="914" y1="-493.7" x2="923.8" y2="-489.8"/>
				
					<line style="fill:none;stroke:#B8D5E6;stroke-width:1.0564;stroke-miterlimit:10;" x1="915" y1="-486.7" x2="921.6" y2="-484.1"/>
				
					<line style="fill:none;stroke:#B8D5E6;stroke-width:1.0564;stroke-miterlimit:10;" x1="912.7" y1="-481.1" x2="919.4" y2="-478.5"/>
				
					<line style="fill:none;stroke:#B8D5E6;stroke-width:1.0564;stroke-miterlimit:10;" x1="910.5" y1="-475.4" x2="917.1" y2="-472.8"/>
				
					<line style="fill:none;stroke:#B8D5E6;stroke-width:1.0564;stroke-miterlimit:10;" x1="905" y1="-471.1" x2="914.9" y2="-467.2"/>
				
					<line style="fill:none;stroke:#B8D5E6;stroke-width:1.0564;stroke-miterlimit:10;" x1="906.1" y1="-464.1" x2="912.7" y2="-461.5"/>
				
					<line style="fill:none;stroke:#B8D5E6;stroke-width:1.0564;stroke-miterlimit:10;" x1="903.8" y1="-458.5" x2="910.5" y2="-455.9"/>
				
					<line style="fill:none;stroke:#B8D5E6;stroke-width:1.0564;stroke-miterlimit:10;" x1="901.6" y1="-452.8" x2="908.2" y2="-450.2"/>
			</g>
		</g>
		<path style="fill:#6A7680;" d="M921.5-347.3H821.2l-16.8-151.7c-0.2-1.9,1.3-3.6,3.2-3.6h127.5c1.9,0,3.5,1.7,3.2,3.6L921.5-347.3
			z"/>
		<g>
			<path style="fill:#97A8B5;" d="M795.8-340.7c60.4,0.8,120.8,1.6,181.2,2.5c2,0,8.4-1.9-2.6-9.1c-9.3-6-38.8-0.6-38.8-0.6
				s6.9-2.8,6.8-6.3c0-3.6-2.7-6.7-6-8.1c-3.2-1.5-6.9-1.6-10.5-1.4c-7.2,0.4-14.4,2-21.1,4.7c2.8-1.7,3.7-6,1.8-8.8
				c-1.9-2.7-6.3-3.3-8.9-1.2c4.5-6.1,11.5-33.3-10-45.3c-27-15-47.4-2.7-51.8,6.4c-2.2-8.9-12.4-15.6-19.1-17.2
				c-15.3-3.8-25.2-2.7-39.5,4c-5,2.4-11.8,10.4-15.2,14.9c-5.3,7-6.1,16.2-6.4,24.9c-0.2,6.5-0.2,13.1-0.1,19.6"/>
		</g>
		<g>
			<path style="fill:#4D555C;" d="M572.3-767.5c0.1-0.2-9.6,5.8-9.6,5.8l2.5,16.3l4.7-12.2l12.5-2.4l17.8-16.7L572.3-767.5z"/>
			<polygon style="fill:#6D7982;" points="600.2,-776.7 565.2,-745.4 569.9,-757.6 			"/>
			<polygon style="fill:#91A1AD;" points="600.2,-776.7 553.9,-766.9 562.7,-761.7 600.2,-776.7 569.9,-757.6 584.9,-748.4 			"/>
		</g>
		<path style="fill:#14093B;" d="M430.6-562c0.1,0.2,0.9,0.2,1,0.2c0.3,0.1,0.2,0.1,1.6,1.7c1.1,1.2,2.7,1.3,5.6,0
			c2.2-1,1.7-2.7,1.8-3.5c0.1-0.8,0.3-1,0.6-1.1c0.3-0.1,0.6-0.1,1.1,0.6c0.5,0.7,1.6,2.3,3.9,1.8c1.8-0.4,2.5-1.3,2.6-2.5
			c0.2-2.1,0.2-2.1,0.4-2.3c0.2-0.2,0.1-1.1-0.1-1.5c-0.2-0.4-1.6-0.1-2.9,0.3c-1.4,0.4-3.5,1.1-4.2,1.7c-0.7,0.6-0.6,0.9-1,1
			c-0.4,0.1-0.5-0.2-1.4-0.3c-0.9-0.1-4.6,1-6,1.4c-1.4,0.4-3.3,1.2-3.2,1.6C430.4-562.6,430.5-562.3,430.6-562z M442.8-565.7
			c0-0.6,0.5-0.8,2.1-1.3c1.6-0.6,2.3-0.9,2.6-0.7c0.4,0.2,0.7,1,0.6,2.2c-0.1,1.4-0.4,2.1-1.8,2.5c-1.4,0.4-2.4-0.1-2.9-0.9
			C443-564.8,442.8-565.5,442.8-565.7z M432.9-563.2c0.2-0.3,2.3-0.9,4-1.3c1.6-0.4,2.2-0.6,2.5-0.1c0.1,0.2,0.3,0.9,0.4,1.9
			c0.1,1-0.1,1.8-2.6,2.6c-1.8,0.6-2.7,0.2-3.6-0.9C432.8-562,432.7-562.9,432.9-563.2z"/>
		<g>
			<path style="fill:#91A1AD;" d="M478.1-667.5h77c2.5,0,4.5,2,4.5,4.5v52.5c0,2.5-2,4.5-4.5,4.5h-77c-2.5,0-4.5-2-4.5-4.5v-52.5
				C473.6-665.4,475.6-667.5,478.1-667.5z"/>
			<polyline style="fill:#91A1AD;" points="549.9,-625.8 570.5,-631.7 552.1,-636.5 			"/>
			<g>
				<rect x="504.1" y="-640" style="fill:#E9ECF0;" width="12.8" height="2.9"/>
				<rect x="495.1" y="-644.4" style="fill:#E9ECF0;" width="21.9" height="2.9"/>
				<rect x="485" y="-627.8" style="fill:#E9ECF0;" width="63" height="3.6"/>
				<rect x="485" y="-622.4" style="fill:#E9ECF0;" width="63" height="3.6"/>
				<rect x="495.1" y="-648.8" style="fill:#E9ECF0;" width="21.9" height="2.9"/>
				<rect x="508.9" y="-653.2" style="fill:#E9ECF0;" width="8" height="2.9"/>
				<circle style="opacity:0.25;fill:#343A40;" cx="535.1" cy="-644" r="12.9"/>
				<path style="fill:#E9ECF0;" d="M532.6-643.8c-1.3-0.8-2.1-2.3-2.1-3.9c0-2.6,2.1-4.6,4.6-4.6c2.6,0,4.6,2.1,4.6,4.6
					c0,1.6-0.8,3.1-2.1,3.9c2.9,0.7,5,3.3,5,6.4v3.9c-2.1,1.6-4.7,2.5-7.6,2.5c-2.8,0-5.4-0.9-7.6-2.5v-3.9
					C527.5-640.6,529.7-643.2,532.6-643.8z"/>
			</g>
		</g>
		<g>
			<circle style="fill:#E57174;" cx="473.3" cy="-690.6" r="9"/>
			
				<polyline style="fill:none;stroke:#FFFFFF;stroke-width:1.0564;stroke-linecap:round;stroke-linejoin:round;stroke-miterlimit:10;" points="
				469.5,-691.7 471.5,-687.2 478.3,-691.4 			"/>
		</g>
		<g>
			<circle style="fill:#E57174;" cx="820.6" cy="-757" r="9"/>
			
				<polyline style="fill:none;stroke:#FFFFFF;stroke-width:1.0564;stroke-linecap:round;stroke-linejoin:round;stroke-miterlimit:10;" points="
				817.1,-755.1 821.7,-753.4 823.6,-761.1 			"/>
		</g>
		<g>
			
				<circle style="fill:#FFFFFF;stroke:#E57174;stroke-width:2.1128;stroke-linecap:round;stroke-linejoin:round;stroke-miterlimit:10;" cx="916.5" cy="-447.2" r="27.6"/>
			
				<circle style="fill:none;stroke:#E57174;stroke-width:2.1128;stroke-linecap:round;stroke-linejoin:round;stroke-miterlimit:10;" cx="916.5" cy="-447.2" r="19.3"/>
			
				<circle style="fill:none;stroke:#E57174;stroke-width:2.1128;stroke-linecap:round;stroke-linejoin:round;stroke-miterlimit:10;" cx="916.5" cy="-447.2" r="10.9"/>
			<circle style="fill:#E57174;" cx="916.5" cy="-447.2" r="4.6"/>
			<g>
				
					<line style="fill:none;stroke:#272E78;stroke-width:1.0564;stroke-miterlimit:10;" x1="916.5" y1="-447.2" x2="952" y2="-482.7"/>
				<polyline style="fill:none;stroke:#272E78;stroke-width:1.0564;stroke-miterlimit:10;" points="957.7,-482.2 951.4,-482.2 
					951.4,-488.5 				"/>
				<polyline style="fill:none;stroke:#272E78;stroke-width:1.0564;stroke-miterlimit:10;" points="954.6,-479 948.2,-479 
					948.2,-485.3 				"/>
				<polyline style="fill:none;stroke:#272E78;stroke-width:1.0564;stroke-miterlimit:10;" points="951.4,-475.8 945,-475.8 
					945,-482.1 				"/>
				<polyline style="fill:none;stroke:#272E78;stroke-width:1.0564;stroke-miterlimit:10;" points="922.5,-447 916.2,-447 
					916.2,-453.3 				"/>
			</g>
		</g>
		<circle style="fill:#E57174;" cx="336.1" cy="-537.3" r="3.3"/>
		<circle style="fill:#E57174;" cx="957.7" cy="-609.7" r="3.3"/>
		<circle style="fill:#E57174;" cx="648.1" cy="-733.6" r="3.3"/>
		<g>
			<g>
				<path style="fill:#E57174;" d="M541.7-670c-0.6,0-1.1-0.5-1.1-1.1v-7.4c0-0.6,0.5-1.1,1.1-1.1c0.6,0,1.1,0.5,1.1,1.1v7.4
					C542.7-670.5,542.3-670,541.7-670z"/>
			</g>
			<g>
				<path style="fill:#E57174;" d="M545.4-673.7H538c-0.6,0-1.1-0.5-1.1-1.1c0-0.6,0.5-1.1,1.1-1.1h7.4c0.6,0,1.1,0.5,1.1,1.1
					C546.5-674.2,546-673.7,545.4-673.7z"/>
			</g>
		</g>
		<g>
			<g>
				<path style="fill:#E57174;" d="M360.2-387.7c-0.6,0-1.1-0.5-1.1-1.1v-7.4c0-0.6,0.5-1.1,1.1-1.1c0.6,0,1.1,0.5,1.1,1.1v7.4
					C361.3-388.2,360.8-387.7,360.2-387.7z"/>
			</g>
			<g>
				<path style="fill:#E57174;" d="M363.9-391.4h-7.4c-0.6,0-1.1-0.5-1.1-1.1c0-0.6,0.5-1.1,1.1-1.1h7.4c0.6,0,1.1,0.5,1.1,1.1
					C365-391.9,364.5-391.4,363.9-391.4z"/>
			</g>
		</g>
		<g>
			<g>
				<path style="fill:#E57174;" d="M988.6-498.6c-0.6,0-1.1-0.5-1.1-1.1v-7.4c0-0.6,0.5-1.1,1.1-1.1c0.6,0,1.1,0.5,1.1,1.1v7.4
					C989.6-499,989.2-498.6,988.6-498.6z"/>
			</g>
			<g>
				<path style="fill:#E57174;" d="M992.3-502.3h-7.4c-0.6,0-1.1-0.5-1.1-1.1c0-0.6,0.5-1.1,1.1-1.1h7.4c0.6,0,1.1,0.5,1.1,1.1
					C993.3-502.8,992.9-502.3,992.3-502.3z"/>
			</g>
		</g>
		<g>
			<g>
				
					<rect x="737.2" y="-789.6" transform="matrix(0.9487 0.3162 -0.3162 0.9487 -205.6687 -280.4056)" style="fill:#6A7680;" width="48.1" height="31.3"/>
				<polygon style="fill:#6A7680;" points="789.1,-781.2 743.4,-796.5 772.5,-807.6 				"/>
				
					<rect x="742.4" y="-792" transform="matrix(0.9487 0.3162 -0.3162 0.9487 -206.2039 -280.6444)" style="fill:#FFFFFF;" width="38.5" height="32.6"/>
				<polygon style="fill:#8897A3;" points="743.4,-796.5 733.5,-766.8 760.9,-772.9 				"/>
				<polygon style="fill:#8897A3;" points="789.1,-781.2 779.2,-751.5 760.9,-772.9 				"/>
				<polygon style="fill:#8897A3;" points="779.2,-751.5 733.5,-766.8 762.6,-777.9 				"/>
			</g>
			<g>
				<path style="fill:#6A7680;" d="M733.5-766.8c2.4-1,4.8-2,7.2-3l7.2-2.9c2.4-1,4.8-1.9,7.2-2.9l7.3-2.8l0.4-0.2l0.2,0.4l4.1,6.6
					c1.4,2.2,2.8,4.4,4.1,6.6l4,6.7c1.3,2.2,2.6,4.5,3.9,6.7c-1.5-2.1-2.9-4.3-4.4-6.5l-4.3-6.5c-1.4-2.2-2.8-4.4-4.2-6.6l-4.2-6.6
					l0.6,0.2l-7.3,2.7c-2.4,0.9-4.9,1.8-7.3,2.7l-7.3,2.7C738.4-768.5,735.9-767.6,733.5-766.8z"/>
			</g>
		</g>
	</g>
	<g id="bg_1_">
		<g>
			<path style="fill:#FFFFFF;" d="M705,355.4c-10.1-36.3,22-37.7,22.7-84.4c0.3-19.1-10.2-38.6-35.4-47.5
				C680,219,667.7,216,656.6,209c-25.1-15.9-24.7-46.2-31.5-72c-15-56.7-73-101.7-131.6-100.2c-42.3,1.1-80.5,2.3-119,38.2
				c-26.4,24.5-43.5,54.7-68,80c-25.9,26.8-57.5,39.6-93,48.3c-33.5,8.1-70,17.8-95.7,42.2c-24.1,22.9-20.6,46.9-10.3,75.1
				c11.4,31.1-13.3,52.2-39.1,64.3c-21.7,10.2-50.6,9.3-60.7,33.7c-10.9,26.4,21.5,26.9,51.7,26.9c30.2,0,421.1-2.3,530.3,0.9
				c29.4,0.9,123.2,8.9,136.5-27.8C735.4,393.7,712.1,380.7,705,355.4z"/>
		</g>
		<g>
			<path style="fill:none;stroke:#91A1AD;stroke-width:1.0564;stroke-miterlimit:10;" d="M738.6,344.1
				c-21.8,50.8-63.9,92.3-114.3,114.8"/>
			<g>
				<g>
					<path style="fill:#91A1AD;" d="M732.2,357.6c7.6-6.3,12.8-15.5,14.4-25.3c0.4-2.4,0.5-5.1-1.2-7c-0.4-0.5-1-0.9-1.7-1
						c-1.1-0.1-2,0.7-2.7,1.5c-3.8,4.3-5.1,10.2-5.8,15.8C734.6,347.3,733.3,351.5,732.2,357.6"/>
				</g>
				<g>
					<path style="fill:#91A1AD;" d="M721.8,374.9c4.5-8.8,5.6-19.3,3.2-28.9c-0.6-2.4-1.6-4.9-3.8-5.9c-0.6-0.3-1.3-0.4-1.9-0.2
						c-1,0.3-1.6,1.4-1.9,2.4c-1.8,5.4-0.7,11.3,1,16.8C719.9,364.5,720.5,368.8,721.8,374.9"/>
				</g>
				<g>
					<path style="fill:#91A1AD;" d="M706.5,396.2c5.5-8.2,8-18.5,6.7-28.3c-0.3-2.4-1-5.1-3.1-6.3c-0.6-0.4-1.2-0.6-1.9-0.5
						c-1.1,0.2-1.7,1.2-2.2,2.2c-2.4,5.2-2,11.2-1.1,16.8C706,385.7,705.9,390,706.5,396.2"/>
				</g>
				<g>
					<path style="fill:#91A1AD;" d="M689,414.9c5.5-8.2,8-18.5,6.7-28.3c-0.3-2.4-1-5.1-3.1-6.3c-0.6-0.4-1.2-0.6-1.9-0.5
						c-1.1,0.2-1.7,1.2-2.2,2.2c-2.4,5.2-2,11.2-1.1,16.8C688.4,404.3,688.4,408.7,689,414.9"/>
				</g>
				<g>
					<path style="fill:#91A1AD;" d="M662.7,436.4c6.4-7.6,9.8-17.6,9.6-27.5c-0.1-2.4-0.5-5.1-2.4-6.6c-0.5-0.4-1.2-0.7-1.8-0.7
						c-1.1,0.1-1.9,1-2.4,2c-3,4.9-3.2,10.9-2.8,16.6C663.3,425.9,662.8,430.2,662.7,436.4"/>
				</g>
				<g>
					<path style="fill:#91A1AD;" d="M642.2,450.2c6.3-6.8,10.3-16.2,11.1-26.1c0.2-2.4,0.1-5.2-1.3-6.9c-0.4-0.5-0.9-0.9-1.5-0.9
						c-0.9,0-1.7,0.8-2.3,1.6c-3.1,4.5-3.9,10.4-4.2,16.1C643.7,439.8,642.9,444,642.2,450.2"/>
				</g>
				<g>
					<path style="fill:#91A1AD;" d="M716.6,382.5c10.1,1.7,20.9-0.4,30-5.7c2.2-1.3,4.5-3.1,5-5.5c0.1-0.7,0.1-1.4-0.3-2
						c-0.6-0.9-1.8-1.1-3-1.1c-5.9-0.1-11.6,2.8-16.7,6.1C726.6,377.6,722.4,379.4,716.6,382.5"/>
				</g>
				<g>
					<path style="fill:#91A1AD;" d="M704.3,398.7c9.4,4,20.4,4.6,30.5,1.6c2.5-0.7,5.1-1.9,6.2-4.2c0.3-0.6,0.4-1.3,0.2-2
						c-0.4-1-1.5-1.5-2.6-1.8c-5.7-1.5-11.9,0-17.6,1.9C715.2,396.2,710.6,397,704.3,398.7"/>
				</g>
				<g>
					<path style="fill:#91A1AD;" d="M685.9,417.4c8.4,5.8,19.1,8.6,29.5,7.6c2.6-0.2,5.4-0.8,6.9-2.9c0.4-0.6,0.7-1.2,0.6-1.9
						c-0.1-1.1-1.2-1.8-2.2-2.3c-5.3-2.6-11.7-2.4-17.7-1.6C697,417.2,692.4,417.1,685.9,417.4"/>
				</g>
				<g>
					<path style="fill:#91A1AD;" d="M660.1,439.1c9.5,3.8,20.5,4.1,30.5,0.9c2.4-0.8,5.1-2,6.1-4.3c0.3-0.6,0.4-1.4,0.2-2
						c-0.4-1-1.6-1.5-2.6-1.7c-5.8-1.4-11.9,0.2-17.6,2.3C670.9,436.4,666.4,437.3,660.1,439.1"/>
				</g>
				<g>
					<path style="fill:#91A1AD;" d="M639.3,451.6c6.7,7.7,16.5,12.9,26.8,14.5c2.5,0.4,5.4,0.5,7.4-1.1c0.5-0.4,1-1,1-1.7
						c0.1-1.1-0.7-2-1.6-2.7c-4.5-3.8-10.8-5.2-16.8-5.8C650.1,454,645.7,452.8,639.3,451.6"/>
				</g>
			</g>
		</g>
		<g>
			<g>
				<path style="fill:#4E7EB9;" d="M615.1,237.2c-0.3,0-0.5-0.2-0.5-0.5l-0.2-2.7c0-0.3,0.2-0.6,0.5-0.6c0.3,0,0.6,0.2,0.6,0.5
					l0.2,2.7C615.7,236.9,615.5,237.2,615.1,237.2C615.2,237.2,615.1,237.2,615.1,237.2z"/>
			</g>
			<g>
				<g>
					<polygon style="fill:#B0CEE5;" points="627.3,360.7 620.1,361.2 612.2,245.4 615.7,245.2 619.3,244.9 					"/>
				</g>
			</g>
			<polygon style="fill:#B0CEE5;" points="615.8,235.5 614.3,235.6 612.2,245.4 619.3,244.9 			"/>
		</g>
		<g>
			<path style="fill:none;stroke:#91A1AD;stroke-width:1.0564;stroke-miterlimit:10;" d="M222,264.4c12.8,69.8,61.4,132,126.1,161.2
				"/>
			<g>
				<g>
					<path style="fill:#91A1AD;" d="M225.2,279c-6-7.9-9.1-18-8.4-27.9c0.2-2.4,0.7-5.1,2.7-6.5c0.5-0.4,1.2-0.7,1.9-0.6
						c1.1,0.1,1.8,1.1,2.3,2.1c2.7,5,2.7,11,2.1,16.7C225.2,268.4,225.4,272.7,225.2,279"/>
				</g>
				<g>
					<path style="fill:#91A1AD;" d="M231.5,298.1c-2.4-9.6-1.2-20.1,3.3-28.9c1.1-2.2,2.7-4.4,5-4.9c0.7-0.1,1.4-0.1,1.9,0.2
						c0.9,0.5,1.2,1.7,1.3,2.8c0.5,5.7-1.9,11.2-4.7,16.2C235.6,288.4,234.1,292.5,231.5,298.1"/>
				</g>
				<g>
					<path style="fill:#91A1AD;" d="M241.6,322.3c-3.6-9.3-3.6-19.8-0.2-29.1c0.8-2.3,2.1-4.7,4.4-5.5c0.6-0.2,1.3-0.3,2,0
						c1,0.4,1.4,1.6,1.7,2.6c1.2,5.6-0.5,11.4-2.7,16.6C244.5,312.2,243.6,316.4,241.6,322.3"/>
				</g>
				<g>
					<path style="fill:#91A1AD;" d="M254.5,344.4c-3.6-9.3-3.6-19.8-0.2-29.1c0.8-2.3,2.1-4.7,4.4-5.5c0.6-0.2,1.3-0.3,2,0
						c1,0.4,1.4,1.6,1.7,2.6c1.2,5.6-0.5,11.4-2.7,16.6C257.4,334.3,256.5,338.5,254.5,344.4"/>
				</g>
				<g>
					<path style="fill:#91A1AD;" d="M275.3,371.2c-4.5-8.8-5.7-19.3-3.2-28.9c0.6-2.4,1.6-4.9,3.8-5.9c0.6-0.3,1.3-0.4,1.9-0.2
						c1,0.3,1.6,1.4,1.9,2.4c1.8,5.4,0.7,11.3-1,16.8C277.2,360.9,276.7,365.2,275.3,371.2"/>
				</g>
				<g>
					<path style="fill:#91A1AD;" d="M292.3,389.2c-4.6-8-6.4-18.1-5-27.9c0.3-2.4,1-5.1,2.8-6.4c0.5-0.4,1.1-0.6,1.7-0.5
						c0.9,0.2,1.5,1.2,1.9,2.1c2,5,1.5,11,0.5,16.7C293.1,378.8,293,383.1,292.3,389.2"/>
				</g>
				<g>
					<path style="fill:#91A1AD;" d="M234.8,306.7c-10.2-0.6-20.3-5.1-27.9-12.3c-1.9-1.8-3.7-4-3.6-6.5c0-0.7,0.2-1.4,0.7-1.9
						c0.8-0.7,2-0.7,3.1-0.4c5.8,1.2,10.7,5.3,14.9,9.7C226.2,299.7,229.9,302.4,234.8,306.7"/>
				</g>
				<g>
					<path style="fill:#91A1AD;" d="M243.3,325.2c-10,1.8-20.9-0.1-30.1-5.3c-2.2-1.3-4.6-3-5.1-5.4c-0.1-0.7-0.1-1.4,0.2-2
						c0.6-0.9,1.8-1.1,2.9-1.2c5.9-0.2,11.6,2.6,16.8,5.8C233.2,320.4,237.4,322.1,243.3,325.2"/>
				</g>
				<g>
					<path style="fill:#91A1AD;" d="M257,347.6c-9.5,3.8-20.5,4.1-30.5,0.9c-2.4-0.8-5.1-2-6.1-4.3c-0.3-0.6-0.4-1.4-0.2-2
						c0.4-1,1.6-1.5,2.6-1.7c5.8-1.4,11.9,0.3,17.6,2.4C246.2,344.9,250.7,345.8,257,347.6"/>
				</g>
				<g>
					<path style="fill:#91A1AD;" d="M277.3,374.5c-10.1,1.6-20.9-0.6-29.9-5.9c-2.2-1.3-4.5-3.1-5-5.6c-0.1-0.7-0.1-1.4,0.3-2
						c0.6-0.9,1.8-1.1,3-1.1c5.9-0.1,11.6,2.9,16.6,6.2C267.3,369.5,271.5,371.3,277.3,374.5"/>
				</g>
				<g>
					<path style="fill:#91A1AD;" d="M294.8,391.3c-8.3,6-18.9,8.9-29.4,8.2c-2.6-0.2-5.4-0.7-6.9-2.7c-0.4-0.5-0.7-1.2-0.6-1.9
						c0.1-1.1,1.2-1.8,2.1-2.3c5.3-2.7,11.6-2.6,17.6-1.9C283.7,391.3,288.2,391,294.8,391.3"/>
				</g>
			</g>
		</g>
		<g>
			<path style="fill:none;stroke:#91A1AD;stroke-width:1.0564;stroke-miterlimit:10;" d="M96.1,361.8
				c70.9-3.2,142.4,30.2,185.4,86.6"/>
			<g>
				<g>
					<path style="fill:#91A1AD;" d="M111.1,361.7c-9-4.1-19.6-4.8-29.1-1.9c-2.3,0.7-4.8,1.8-5.8,4.1c-0.3,0.6-0.4,1.3-0.1,2
						c0.4,1,1.5,1.5,2.5,1.8c5.5,1.6,11.4,0.2,16.8-1.7C100.8,364,105.1,363.3,111.1,361.7"/>
				</g>
				<g>
					<path style="fill:#91A1AD;" d="M131.2,363.5c-9.9-0.2-19.9,3.4-27.4,9.8c-1.9,1.6-3.7,3.6-3.7,6c0,0.7,0.2,1.4,0.6,1.8
						c0.7,0.8,2,0.8,3,0.7c5.7-0.8,10.5-4.4,14.7-8.2C122.7,369.7,126.3,367.3,131.2,363.5"/>
				</g>
				<g>
					<path style="fill:#91A1AD;" d="M157,367.9c-9.8-1.4-20.1,0.9-28.4,6.3c-2,1.3-4.1,3.1-4.4,5.5c-0.1,0.7,0,1.4,0.4,1.9
						c0.6,0.9,1.9,1,2.9,1c5.7-0.1,11-3,15.6-6.4C147.8,373,151.7,371.1,157,367.9"/>
				</g>
				<g>
					<path style="fill:#91A1AD;" d="M181.5,375.5c-9.8-1.4-20.1,0.9-28.4,6.3c-2,1.3-4.1,3.1-4.4,5.5c-0.1,0.7,0,1.4,0.4,1.9
						c0.6,0.9,1.9,1,2.9,1c5.7-0.1,11-3,15.6-6.4C172.2,380.6,176.1,378.8,181.5,375.5"/>
				</g>
				<g>
					<path style="fill:#91A1AD;" d="M212.3,389.8c-9.6-2.4-20.1-1.2-28.9,3.4c-2.2,1.1-4.4,2.7-4.9,5c-0.1,0.7-0.1,1.4,0.2,1.9
						c0.5,0.9,1.7,1.2,2.8,1.3c5.7,0.5,11.2-1.9,16.2-4.7C202.6,393.9,206.7,392.4,212.3,389.8"/>
				</g>
				<g>
					<path style="fill:#91A1AD;" d="M233.6,402.3c-8.8-2.7-19.1-2.2-28.4,1.4c-2.3,0.9-4.7,2.1-5.6,4.2c-0.2,0.6-0.4,1.2-0.1,1.7
						c0.4,0.9,1.5,1.2,2.5,1.3c5.4,0.8,11.1-1.1,16.3-3.3C223.6,405.4,227.8,404.3,233.6,402.3"/>
				</g>
				<g>
					<path style="fill:#91A1AD;" d="M140.3,364.8c-2.9-9.8-9.5-18.6-18.2-24.5c-2.1-1.4-4.7-2.7-7.1-2.1c-0.7,0.2-1.3,0.5-1.6,1.1
						c-0.6,0.9-0.2,2.1,0.3,3.1c2.5,5.4,7.6,9.2,12.8,12.3S135,361,140.3,364.8"/>
				</g>
				<g>
					<path style="fill:#91A1AD;" d="M160.2,368.9c-0.5-10.2-4.8-20.4-11.9-28.1c-1.7-1.9-3.9-3.8-6.4-3.7c-0.7,0-1.4,0.2-1.9,0.7
						c-0.8,0.8-0.7,2-0.5,3.1c1.1,5.8,5.2,10.8,9.4,15C153.2,360.1,155.9,363.9,160.2,368.9"/>
				</g>
				<g>
					<path style="fill:#91A1AD;" d="M185.1,377.2c1.6-10.1-0.6-20.9-6-29.9c-1.3-2.2-3.1-4.5-5.6-4.9c-0.7-0.1-1.4-0.1-2,0.3
						c-0.9,0.6-1.1,1.8-1.1,3c0,5.9,2.9,11.6,6.3,16.6C180.1,367.3,181.9,371.5,185.1,377.2"/>
				</g>
				<g>
					<path style="fill:#91A1AD;" d="M215.9,391c-0.7-10.2-5.2-20.3-12.5-27.8c-1.8-1.9-4-3.7-6.5-3.6c-0.7,0-1.4,0.2-1.8,0.7
						c-0.7,0.8-0.6,2-0.4,3.1c1.3,5.8,5.4,10.6,9.8,14.8C208.8,382.4,211.5,386.1,215.9,391"/>
				</g>
				<g>
					<path style="fill:#91A1AD;" d="M236.2,404.3c3.9-9.4,4.4-20.4,1.4-30.5c-0.8-2.5-1.9-5.1-4.2-6.1c-0.6-0.3-1.3-0.4-2-0.2
						c-1,0.4-1.5,1.5-1.8,2.6c-1.5,5.7,0.1,11.9,2.1,17.6C233.7,393.4,234.4,397.9,236.2,404.3"/>
				</g>
			</g>
		</g>
		<g>
			<path style="fill:#91A1AD;" d="M320.1,391.8c-10.3-9.6-24.8-14.5-38.8-13.1c-9.5,1-19.8,6-21.9,15.3c-1,4.4-0.6,10.3-4.8,12
				c-4.1,1.7-8.1-2.5-12.3-3.9c-7-2.3-15,5.7-12.6,12.7c1.1,3.2,3.8,6,3.5,9.3c-0.3,4.6-5.9,6.9-10.5,6.2c-4.5-0.7-8.5-3.3-12.9-4.5
				c-4.4-1.1-10.2,0-11.7,4.3c-1.4,3.9,1,9-2,11.8c-1.3,1.2-3.2,1.4-4.9,1.6c-38.4,3.6-80.7,10.5-76.4,17.3c1.2,1.9,4.2,1.3,6.4,1.2
				c81.7-1.3,155.9-2.5,237.6,0"/>
		</g>
		<path style="fill:none;stroke:#6A7680;stroke-width:1.0564;stroke-miterlimit:10;stroke-dasharray:2.641;" d="M329.7,236.3
			c-5.7,16.3-22.7,34.4-42.1,34.4c-22,0-27.4-17.8-33.8-23.5c-15.8-13.9-25.6-17.1-45.7-20.5c-13.1-2.2-27-20.6-23.7-38.8
			c6.2-33.2,66-49,81.2-73.3c12.3-19.8,11.7-31.6,33.3-45.8"/>
		<g>
			<polyline style="fill:#5B656D;" points="592.2,263.5 616.5,358.4 611.9,359.6 581.9,266.1 			"/>
			<g>
				<path style="fill:#6A7680;" d="M569.8,265.6c-12.4,3.2-25.5-6.4-29.3-21.4c-3.8-14.9,3.2-29.7,15.5-32.8
					c12.4-3.2,25.5,6.4,29.3,21.4C589.2,247.8,582.2,262.5,569.8,265.6z M558.1,219.7c-7.8,2-12,12-9.3,22.4
					c2.6,10.4,11.1,17.2,18.9,15.2c7.8-2,12-12,9.3-22.4C574.4,224.6,565.9,217.8,558.1,219.7z"/>
			</g>
			<g>
				<path style="fill:#97A8B5;" d="M582.6,239.2c0.4,1.6,7.4,28.9,7.4,28.9c0.4,1.5-0.5,2.9-2,3.3l0,0c-1.5,0.4-2.9-0.5-3.3-2
					l-0.8-3.3c0,0-3.9-8.2-14.6-4.8c0,0,12.8-1.6,13.2-1.6C582.9,259.8,582.2,237.7,582.6,239.2z"/>
				<path style="fill:#6A7680;" d="M589,275.6c-3.7,1-7.6-1.3-8.5-5.1c0,0-0.4-2.3-1.3-3.5c-1.4-2-4.2-2.7-9.4-1.4l-1.3-7.3
					c2.7-0.9,4.7-2.2,6.9-2c1.2-0.1,2.1-0.3,3-0.4c0-2.2-0.1-5.2-0.1-7.4c0-2.4,3.1-5.1,3.1-6.8c0-3.1-3.2-6.2,0.7-6.7l3.8-0.5
					l8.3,32.6C595,270.8,592.8,274.6,589,275.6z"/>
			</g>
			<g>
				<polyline style="fill:#5B656D;" points="595.8,262.6 595.9,360.6 600.6,360.6 606.5,262.6 				"/>
				<g>
					<path style="fill:#6A7680;" d="M594.9,231.2c0-15.4,10.4-28,23.1-28c12.8,0,23.2,12.5,23.2,28s-10.4,28-23.1,28
						C605.3,259.2,594.9,246.6,594.9,231.2z M603.5,231.2c0,10.7,6.6,19.4,14.6,19.4c8,0,14.6-8.7,14.6-19.4
						c0-10.7-6.6-19.4-14.6-19.4C610,211.8,603.5,220.5,603.5,231.2z"/>
				</g>
				<g>
					<path style="fill:#97A8B5;" d="M599.2,236.7c0,1.6,0,29.8,0,29.8c0,1.5,1.2,2.7,2.7,2.7l0,0c1.5,0,2.7-1.2,2.7-2.7l0-3.4
						c0,0,1.7-8.9,12.9-8.3c0,0-12.7,1.6-13.2,1.8C604,256.8,599.2,235.1,599.2,236.7z"/>
					<path style="fill:#6A7680;" d="M601.9,273.5c3.9,0,7-3.1,7-7c0,0-0.1-2.3,0.4-3.7c0.9-2.2,3.4-3.7,8.7-3.7l-0.5-7.4
						c-2.8-0.2-5.1-1-7.1-0.3c-1.2,0.2-2.1,0.3-3,0.4c-0.5-2.2-1.2-5-1.8-7.2c-0.6-2.3-4.3-4.2-4.7-5.9c-0.8-3,1.5-6.8-2.3-6.4
						l-3.8,0.4l0,33.7C594.9,270.4,598.1,273.5,601.9,273.5z"/>
				</g>
			</g>
		</g>
		<g>
			<g>
				<path style="fill:none;stroke:#91BAE6;stroke-width:1.0564;stroke-miterlimit:10;" d="M470.3,124.3c0.1-0.4,0.2-0.9,0.3-1.3"/>
				<path style="fill:none;stroke:#91BAE6;stroke-width:1.0564;stroke-miterlimit:10;stroke-dasharray:2.6471,2.6471;" d="
					M471.3,120.5c5.8-18.2,25.5-38,56.1-30.9c21.1,4.9,26.7,24.7,38,37.5c8.4,9.5,20.3,17.2,24.2,30.6c9,30.8-3.3,64.2-25.2,74.7
					c-12.7,6.1-45.1,3-59.9-2.9"/>
				<path style="fill:none;stroke:#91BAE6;stroke-width:1.0564;stroke-miterlimit:10;" d="M503.4,229c-0.4-0.2-0.8-0.4-1.2-0.6"/>
			</g>
		</g>
		<g>
			<g>
				<path style="fill:#5B656D;" d="M637.1,343.3l-12.3-2.2L644,234.6c0.1-0.6,0.7-1.1,1.4-0.9l10,1.8c0.6,0.1,1.1,0.7,0.9,1.4
					L637.1,343.3z"/>
			</g>
			<g>
				<path style="fill:#E57174;" d="M654.4,247.5l-12.3-2.2l1.9-10.6c0.1-0.6,0.7-1.1,1.4-0.9l10,1.8c0.6,0.1,1.1,0.7,0.9,1.4
					L654.4,247.5z"/>
			</g>
			<g style="opacity:0.5;">
				<g>
					
						<rect x="641.6" y="246.3" transform="matrix(0.9841 0.1777 -0.1777 0.9841 54.4292 -111.2003)" style="fill:#4B535C;" width="12.5" height="3.8"/>
				</g>
			</g>
		</g>
		<g>
			
				<rect x="647.3" y="250.7" transform="matrix(0.9303 0.3667 -0.3667 0.9303 159.2271 -219.7863)" style="fill:#B0CEE5;" width="21.6" height="117"/>
			<g>
				
					<line style="fill:none;stroke:#B8D5E6;stroke-width:1.0564;stroke-miterlimit:10;" x1="681.6" y1="259.7" x2="688.2" y2="262.3"/>
				<line style="fill:none;stroke:#B8D5E6;stroke-width:1.0564;stroke-miterlimit:10;" x1="679.4" y1="265.3" x2="686" y2="268"/>
				<line style="fill:none;stroke:#B8D5E6;stroke-width:1.0564;stroke-miterlimit:10;" x1="677.1" y1="271" x2="683.8" y2="273.6"/>
				
					<line style="fill:none;stroke:#B8D5E6;stroke-width:1.0564;stroke-miterlimit:10;" x1="671.7" y1="275.4" x2="681.5" y2="279.3"/>
				
					<line style="fill:none;stroke:#B8D5E6;stroke-width:1.0564;stroke-miterlimit:10;" x1="672.7" y1="282.3" x2="679.3" y2="284.9"/>
				<line style="fill:none;stroke:#B8D5E6;stroke-width:1.0564;stroke-miterlimit:10;" x1="670.5" y1="288" x2="677.1" y2="290.6"/>
				
					<line style="fill:none;stroke:#B8D5E6;stroke-width:1.0564;stroke-miterlimit:10;" x1="668.2" y1="293.6" x2="674.9" y2="296.2"/>
				<line style="fill:none;stroke:#B8D5E6;stroke-width:1.0564;stroke-miterlimit:10;" x1="662.8" y1="298" x2="672.6" y2="301.9"/>
				
					<line style="fill:none;stroke:#B8D5E6;stroke-width:1.0564;stroke-miterlimit:10;" x1="663.8" y1="304.9" x2="670.4" y2="307.5"/>
				
					<line style="fill:none;stroke:#B8D5E6;stroke-width:1.0564;stroke-miterlimit:10;" x1="661.5" y1="310.6" x2="668.2" y2="313.2"/>
				
					<line style="fill:none;stroke:#B8D5E6;stroke-width:1.0564;stroke-miterlimit:10;" x1="659.3" y1="316.2" x2="665.9" y2="318.8"/>
				
					<line style="fill:none;stroke:#B8D5E6;stroke-width:1.0564;stroke-miterlimit:10;" x1="653.8" y1="320.6" x2="663.7" y2="324.5"/>
				
					<line style="fill:none;stroke:#B8D5E6;stroke-width:1.0564;stroke-miterlimit:10;" x1="654.9" y1="327.5" x2="661.5" y2="330.1"/>
				
					<line style="fill:none;stroke:#B8D5E6;stroke-width:1.0564;stroke-miterlimit:10;" x1="652.6" y1="333.2" x2="659.3" y2="335.8"/>
				<line style="fill:none;stroke:#B8D5E6;stroke-width:1.0564;stroke-miterlimit:10;" x1="650.4" y1="338.8" x2="657" y2="341.4"/>
				
					<line style="fill:none;stroke:#B8D5E6;stroke-width:1.0564;stroke-miterlimit:10;" x1="644.9" y1="343.2" x2="654.8" y2="347.1"/>
				
					<line style="fill:none;stroke:#B8D5E6;stroke-width:1.0564;stroke-miterlimit:10;" x1="645.9" y1="350.1" x2="652.6" y2="352.7"/>
				
					<line style="fill:none;stroke:#B8D5E6;stroke-width:1.0564;stroke-miterlimit:10;" x1="643.7" y1="355.8" x2="650.3" y2="358.4"/>
				<line style="fill:none;stroke:#B8D5E6;stroke-width:1.0564;stroke-miterlimit:10;" x1="641.5" y1="361.4" x2="648.1" y2="364"/>
			</g>
		</g>
		<path style="fill:#6A7680;" d="M661.4,466.9H561.1l-16.8-151.7c-0.2-1.9,1.3-3.6,3.2-3.6H675c1.9,0,3.5,1.7,3.2,3.6L661.4,466.9z"
			/>
		<g>
			<path style="fill:#97A8B5;" d="M535.7,473.6c60.4,0.8,120.8,1.6,181.2,2.5c2,0,8.4-1.9-2.6-9.1c-9.3-6-38.8-0.6-38.8-0.6
				s6.9-2.8,6.8-6.3c0-3.6-2.7-6.7-6-8.1c-3.2-1.5-6.9-1.6-10.5-1.4c-7.2,0.4-14.4,2-21.1,4.7c2.8-1.7,3.7-6,1.8-8.8
				c-1.9-2.7-6.3-3.3-8.9-1.2c4.5-6.1,11.5-33.3-10-45.3c-27-15-47.4-2.7-51.8,6.4c-2.2-8.9-12.4-15.6-19.1-17.2
				c-15.3-3.8-25.2-2.7-39.5,4c-5,2.4-11.8,10.4-15.2,14.9c-5.3,7-6.1,16.2-6.4,24.9c-0.2,6.5-0.2,13.1-0.1,19.6"/>
		</g>
		<g>
			<path style="fill:#4D555C;" d="M312.2,46.8c0.1-0.2-9.6,5.8-9.6,5.8l2.5,16.3l4.7-12.2l12.5-2.4l17.8-16.7L312.2,46.8z"/>
			<polygon style="fill:#6D7982;" points="340.1,37.6 305.1,68.9 309.8,56.7 			"/>
			<polygon style="fill:#91A1AD;" points="340.1,37.6 293.8,47.4 302.6,52.6 340.1,37.6 309.8,56.7 324.8,65.9 			"/>
		</g>
		<path style="fill:#14093B;" d="M170.5,252.3c0.1,0.2,0.9,0.2,1,0.2c0.3,0.1,0.2,0.1,1.6,1.7c1.1,1.2,2.7,1.3,5.6,0
			c2.2-1,1.7-2.7,1.8-3.5s0.3-1,0.6-1.1c0.3-0.1,0.6-0.1,1.1,0.6c0.5,0.7,1.6,2.3,3.9,1.8c1.8-0.4,2.5-1.3,2.6-2.5
			c0.2-2.1,0.2-2.1,0.4-2.3c0.2-0.2,0.1-1.1-0.1-1.5c-0.2-0.4-1.6-0.1-2.9,0.3c-1.4,0.4-3.5,1.1-4.2,1.7c-0.7,0.6-0.6,0.9-1,1
			c-0.4,0.1-0.5-0.2-1.4-0.3c-0.9-0.1-4.6,1-6,1.4c-1.4,0.4-3.3,1.2-3.2,1.6C170.3,251.7,170.4,252,170.5,252.3z M182.7,248.6
			c0-0.6,0.5-0.8,2.1-1.3c1.6-0.6,2.3-0.9,2.6-0.7c0.4,0.2,0.7,1,0.6,2.2c-0.1,1.4-0.4,2.1-1.8,2.5c-1.4,0.4-2.4-0.1-2.9-0.9
			C182.9,249.5,182.7,248.8,182.7,248.6z M172.8,251c0.2-0.3,2.3-0.9,4-1.3c1.6-0.4,2.2-0.6,2.5-0.1c0.1,0.2,0.3,0.9,0.4,1.9
			c0.1,1-0.1,1.8-2.6,2.6c-1.8,0.6-2.7,0.2-3.6-0.9C172.7,252.2,172.6,251.4,172.8,251z"/>
		<g>
			<path style="fill:#91A1AD;" d="M218,146.8h77c2.5,0,4.5,2,4.5,4.5v52.5c0,2.5-2,4.5-4.5,4.5h-77c-2.5,0-4.5-2-4.5-4.5v-52.5
				C213.5,148.8,215.5,146.8,218,146.8z"/>
			<polyline style="fill:#91A1AD;" points="289.8,188.4 310.4,182.6 292,177.8 			"/>
			<g>
				<rect x="244" y="174.2" style="fill:#E9ECF0;" width="12.8" height="2.9"/>
				<rect x="235" y="169.8" style="fill:#E9ECF0;" width="21.9" height="2.9"/>
				<rect x="224.9" y="186.5" style="fill:#E9ECF0;" width="63" height="3.6"/>
				<rect x="224.9" y="191.9" style="fill:#E9ECF0;" width="63" height="3.6"/>
				<rect x="235" y="165.4" style="fill:#E9ECF0;" width="21.9" height="2.9"/>
				<rect x="248.8" y="161" style="fill:#E9ECF0;" width="8" height="2.9"/>
				<circle style="opacity:0.25;fill:#343A40;" cx="275" cy="170.2" r="12.9"/>
				<path style="fill:#E9ECF0;" d="M272.5,170.4c-1.3-0.8-2.1-2.3-2.1-3.9c0-2.6,2.1-4.6,4.6-4.6c2.6,0,4.6,2.1,4.6,4.6
					c0,1.6-0.8,3.1-2.1,3.9c2.9,0.7,5,3.3,5,6.4v3.9c-2.1,1.6-4.7,2.5-7.6,2.5c-2.8,0-5.4-0.9-7.6-2.5v-3.9
					C267.4,173.7,269.6,171.1,272.5,170.4z"/>
			</g>
		</g>
		<g>
			<circle style="fill:#E57174;" cx="213.2" cy="123.6" r="9"/>
			
				<polyline style="fill:none;stroke:#FFFFFF;stroke-width:1.0564;stroke-linecap:round;stroke-linejoin:round;stroke-miterlimit:10;" points="
				209.4,122.6 211.4,127 218.1,122.9 			"/>
		</g>
		<g>
			<circle style="fill:#E57174;" cx="560.5" cy="57.2" r="9"/>
			
				<polyline style="fill:none;stroke:#FFFFFF;stroke-width:1.0564;stroke-linecap:round;stroke-linejoin:round;stroke-miterlimit:10;" points="
				557,59.2 561.6,60.9 563.4,53.2 			"/>
		</g>
		<g>
			
				<circle style="fill:#FFFFFF;stroke:#E57174;stroke-width:2.1128;stroke-linecap:round;stroke-linejoin:round;stroke-miterlimit:10;" cx="656.3" cy="367.1" r="27.6"/>
			
				<circle style="fill:none;stroke:#E57174;stroke-width:2.1128;stroke-linecap:round;stroke-linejoin:round;stroke-miterlimit:10;" cx="656.3" cy="367.1" r="19.3"/>
			
				<circle style="fill:none;stroke:#E57174;stroke-width:2.1128;stroke-linecap:round;stroke-linejoin:round;stroke-miterlimit:10;" cx="656.3" cy="367.1" r="10.9"/>
			<circle style="fill:#E57174;" cx="656.3" cy="367.1" r="4.6"/>
			<g>
				
					<line style="fill:none;stroke:#272E78;stroke-width:1.0564;stroke-miterlimit:10;" x1="656.3" y1="367.1" x2="691.9" y2="331.5"/>
				<polyline style="fill:none;stroke:#272E78;stroke-width:1.0564;stroke-miterlimit:10;" points="697.6,332.1 691.3,332.1 
					691.3,325.8 				"/>
				<polyline style="fill:none;stroke:#272E78;stroke-width:1.0564;stroke-miterlimit:10;" points="694.5,335.3 688.1,335.3 
					688.1,328.9 				"/>
				<polyline style="fill:none;stroke:#272E78;stroke-width:1.0564;stroke-miterlimit:10;" points="691.2,338.5 684.9,338.5 
					684.9,332.1 				"/>
				<polyline style="fill:none;stroke:#272E78;stroke-width:1.0564;stroke-miterlimit:10;" points="662.4,367.3 656.1,367.3 
					656.1,360.9 				"/>
			</g>
		</g>
		<circle style="fill:#E57174;" cx="76" cy="276.9" r="3.3"/>
		<circle style="fill:#E57174;" cx="697.6" cy="204.5" r="3.3"/>
		<circle style="fill:#E57174;" cx="388" cy="80.6" r="3.3"/>
		<g>
			<g>
				<path style="fill:#E57174;" d="M281.6,144.2c-0.6,0-1.1-0.5-1.1-1.1v-7.4c0-0.6,0.5-1.1,1.1-1.1c0.6,0,1.1,0.5,1.1,1.1v7.4
					C282.6,143.8,282.2,144.2,281.6,144.2z"/>
			</g>
			<g>
				<path style="fill:#E57174;" d="M285.3,140.5h-7.4c-0.6,0-1.1-0.5-1.1-1.1c0-0.6,0.5-1.1,1.1-1.1h7.4c0.6,0,1.1,0.5,1.1,1.1
					C286.3,140.1,285.9,140.5,285.3,140.5z"/>
			</g>
		</g>
		<g>
			<g>
				<path style="fill:#E57174;" d="M100.1,426.5c-0.6,0-1.1-0.5-1.1-1.1v-7.4c0-0.6,0.5-1.1,1.1-1.1c0.6,0,1.1,0.5,1.1,1.1v7.4
					C101.1,426.1,100.7,426.5,100.1,426.5z"/>
			</g>
			<g>
				<path style="fill:#E57174;" d="M103.8,422.8h-7.4c-0.6,0-1.1-0.5-1.1-1.1c0-0.6,0.5-1.1,1.1-1.1h7.4c0.6,0,1.1,0.5,1.1,1.1
					C104.8,422.4,104.4,422.8,103.8,422.8z"/>
			</g>
		</g>
		<g>
			<g>
				<path style="fill:#E57174;" d="M728.5,315.7c-0.6,0-1.1-0.5-1.1-1.1v-7.4c0-0.6,0.5-1.1,1.1-1.1c0.6,0,1.1,0.5,1.1,1.1v7.4
					C729.5,315.2,729,315.7,728.5,315.7z"/>
			</g>
			<g>
				<path style="fill:#E57174;" d="M732.2,312h-7.4c-0.6,0-1.1-0.5-1.1-1.1c0-0.6,0.5-1.1,1.1-1.1h7.4c0.6,0,1.1,0.5,1.1,1.1
					C733.2,311.5,732.7,312,732.2,312z"/>
			</g>
		</g>
		<g>
			<g>
				
					<rect x="477.1" y="24.6" transform="matrix(0.9487 0.3162 -0.3162 0.9487 38.4431 -156.3909)" style="fill:#6A7680;" width="48.1" height="31.3"/>
				<polygon style="fill:#6A7680;" points="528.9,33 483.3,17.8 512.4,6.6 				"/>
				
					<rect x="482.3" y="22.2" transform="matrix(0.9487 0.3162 -0.3162 0.9487 37.9136 -156.6256)" style="fill:#FFFFFF;" width="38.5" height="32.6"/>
				<polygon style="fill:#8897A3;" points="483.3,17.8 473.4,47.5 500.8,41.3 				"/>
				<polygon style="fill:#8897A3;" points="528.9,33 519,62.7 500.8,41.3 				"/>
				<polygon style="fill:#8897A3;" points="519,62.7 473.4,47.5 502.5,36.3 				"/>
			</g>
			<g>
				<path style="fill:#6A7680;" d="M473.4,47.5c2.4-1,4.8-2,7.2-3l7.2-2.9c2.4-1,4.8-1.9,7.2-2.9l7.3-2.8l0.4-0.2l0.2,0.4l4.1,6.6
					c1.4,2.2,2.8,4.4,4.1,6.6l4,6.7c1.3,2.2,2.6,4.5,3.9,6.7c-1.5-2.1-2.9-4.3-4.4-6.5l-4.3-6.5c-1.4-2.2-2.8-4.4-4.2-6.6l-4.2-6.6
					l0.6,0.2l-7.3,2.7c-2.4,0.9-4.9,1.8-7.3,2.7l-7.3,2.7C478.3,45.8,475.8,46.7,473.4,47.5z"/>
			</g>
		</g>
	</g>
	<g id="tasks">
		<ellipse style="fill:#D1CFD5;" cx="695.2" cy="-331.1" rx="135.9" ry="5.7"/>
		<g>
			<path style="fill:#CF4A47;" d="M697.7-726.6c-7.5,0-13.6,6.1-13.6,13.6v17.5h27.3c0,0,0-13.9,0-17.5
				C711.4-720.5,705.3-726.6,697.7-726.6z M697.7-705.2c-4.2,0-7.7-3.4-7.7-7.7s3.4-7.7,7.7-7.7c4.2,0,7.7,3.4,7.7,7.7
				S702-705.2,697.7-705.2z"/>
		</g>
		<g style="opacity:0.45;">
			<path style="fill:#973734;" d="M705.4-712.8c0-4.2-3.4-7.7-7.7-7.7c-0.4,0-0.8,0.1-1.1,0.1c1.1-0.4,1.2-0.7,3.1-0.7
				c4.2,0,7.7,3.4,7.7,7.7c0,3.8-2,5.9-4.9,6.7C704.1-708.2,705.4-710.5,705.4-712.8z M688.3-697.3v-17.5c0-4.7,2.1-8.9,5.7-11.4
				c-5.7,1.6-9.9,6.9-9.9,13.1v17.5h27.3c0,0,0-0.7,0-1.7H688.3z"/>
		</g>
		<path style="fill:#343A40;" d="M814-331.1H576.4c-5.4,0-9.7-4.4-9.7-9.7v-344c0-5.4,4.4-9.7,9.7-9.7H814c5.4,0,9.7,4.4,9.7,9.7
			v344C823.7-335.5,819.3-331.1,814-331.1z"/>
		<rect x="581.5" y="-680.3" style="fill:#B0CEE5;" width="227.3" height="335"/>
		<rect x="590.3" y="-670.1" style="fill:#FFFFFF;" width="209.8" height="314.5"/>
		<path style="fill:#CF4A47;" d="M777.8-674.9H612.5v-16.2c0-3.9,3.1-7,7-7h151.3c3.9,0,7,3.1,7,7V-674.9z"/>
		<path style="opacity:0.45;fill:#973734;" d="M618.9-678.3v-9.9c0-3.8,1.6-7.2,4.1-9.6c-6,1.3-10.5,6.7-10.5,13.1v9.9h165.4v-3.4
			H618.9z"/>
		<g>
			<polygon style="fill:#084396;" points="676,-651.7 677.3,-649.1 680.3,-648.7 678.1,-646.6 678.6,-643.7 676,-645.1 
				673.4,-643.7 673.9,-646.6 671.8,-648.7 674.7,-649.1 			"/>
			<polygon style="fill:#084396;" points="688.8,-651.7 690.1,-649.1 693,-648.7 690.9,-646.6 691.4,-643.7 688.8,-645.1 
				686.2,-643.7 686.7,-646.6 684.6,-648.7 687.5,-649.1 			"/>
			<polygon style="fill:#084396;" points="701.5,-651.7 702.9,-649.1 705.8,-648.7 703.7,-646.6 704.2,-643.7 701.5,-645.1 
				698.9,-643.7 699.4,-646.6 697.3,-648.7 700.2,-649.1 			"/>
			<polygon style="fill:#084396;" points="714.3,-651.7 715.6,-649.1 718.5,-648.7 716.4,-646.6 716.9,-643.7 714.3,-645.1 
				711.7,-643.7 712.2,-646.6 710.1,-648.7 713,-649.1 			"/>
			<polygon style="fill:#084396;" points="727.1,-651.7 728.4,-649.1 731.3,-648.7 729.2,-646.6 729.7,-643.7 727.1,-645.1 
				724.4,-643.7 724.9,-646.6 722.8,-648.7 725.8,-649.1 			"/>
			<g style="opacity:0.15;">
				
					<line style="fill:none;stroke:#084396;stroke-width:2.1128;stroke-linecap:round;stroke-linejoin:round;stroke-miterlimit:10;" x1="673.2" y1="-636.7" x2="700.4" y2="-636.7"/>
				
					<line style="fill:none;stroke:#084396;stroke-width:2.1128;stroke-linecap:round;stroke-linejoin:round;stroke-miterlimit:10;" x1="761.3" y1="-625.8" x2="781.9" y2="-625.8"/>
				
					<line style="fill:none;stroke:#084396;stroke-width:2.1128;stroke-linecap:round;stroke-linejoin:round;stroke-miterlimit:10;" x1="673.2" y1="-625.8" x2="752.3" y2="-625.8"/>
				
					<line style="fill:none;stroke:#084396;stroke-width:2.1128;stroke-linecap:round;stroke-linejoin:round;stroke-miterlimit:10;" x1="673.2" y1="-615" x2="781.9" y2="-615"/>
				
					<line style="fill:none;stroke:#084396;stroke-width:2.1128;stroke-linecap:round;stroke-linejoin:round;stroke-miterlimit:10;" x1="747.4" y1="-604.1" x2="781.9" y2="-604.1"/>
				
					<line style="fill:none;stroke:#084396;stroke-width:2.1128;stroke-linecap:round;stroke-linejoin:round;stroke-miterlimit:10;" x1="673.2" y1="-604.1" x2="738.8" y2="-604.1"/>
				
					<line style="fill:none;stroke:#084396;stroke-width:2.1128;stroke-linecap:round;stroke-linejoin:round;stroke-miterlimit:10;" x1="709.3" y1="-636.7" x2="781.9" y2="-636.7"/>
			</g>
		</g>
		<g>
			<polygon style="fill:#084396;" points="676,-575.5 677.3,-572.9 680.3,-572.5 678.1,-570.4 678.6,-567.5 676,-568.9 
				673.4,-567.5 673.9,-570.4 671.8,-572.5 674.7,-572.9 			"/>
			<polygon style="fill:#084396;" points="688.8,-575.5 690.1,-572.9 693,-572.5 690.9,-570.4 691.4,-567.5 688.8,-568.9 
				686.2,-567.5 686.7,-570.4 684.6,-572.5 687.5,-572.9 			"/>
			<polygon style="fill:#084396;" points="701.5,-575.5 702.9,-572.9 705.8,-572.5 703.7,-570.4 704.2,-567.5 701.5,-568.9 
				698.9,-567.5 699.4,-570.4 697.3,-572.5 700.2,-572.9 			"/>
			<polygon style="opacity:0.25;fill:#084396;" points="714.3,-575.5 715.6,-572.9 718.5,-572.5 716.4,-570.4 716.9,-567.5 
				714.3,-568.9 711.7,-567.5 712.2,-570.4 710.1,-572.5 713,-572.9 			"/>
			<polygon style="opacity:0.25;fill:#084396;" points="727.1,-575.5 728.4,-572.9 731.3,-572.5 729.2,-570.4 729.7,-567.5 
				727.1,-568.9 724.4,-567.5 724.9,-570.4 722.8,-572.5 725.8,-572.9 			"/>
			<g style="opacity:0.15;">
				
					<line style="fill:none;stroke:#084396;stroke-width:2.1128;stroke-linecap:round;stroke-linejoin:round;stroke-miterlimit:10;" x1="673.2" y1="-560.5" x2="721.5" y2="-560.5"/>
				
					<line style="fill:none;stroke:#084396;stroke-width:2.1128;stroke-linecap:round;stroke-linejoin:round;stroke-miterlimit:10;" x1="701.8" y1="-549.6" x2="781.9" y2="-549.6"/>
				
					<line style="fill:none;stroke:#084396;stroke-width:2.1128;stroke-linecap:round;stroke-linejoin:round;stroke-miterlimit:10;" x1="673.2" y1="-549.6" x2="692.8" y2="-549.6"/>
				
					<line style="fill:none;stroke:#084396;stroke-width:2.1128;stroke-linecap:round;stroke-linejoin:round;stroke-miterlimit:10;" x1="673.2" y1="-538.8" x2="781.9" y2="-538.8"/>
				
					<line style="fill:none;stroke:#084396;stroke-width:2.1128;stroke-linecap:round;stroke-linejoin:round;stroke-miterlimit:10;" x1="759.6" y1="-527.9" x2="781.9" y2="-527.9"/>
				
					<line style="fill:none;stroke:#084396;stroke-width:2.1128;stroke-linecap:round;stroke-linejoin:round;stroke-miterlimit:10;" x1="673.2" y1="-527.9" x2="751" y2="-527.9"/>
				
					<line style="fill:none;stroke:#084396;stroke-width:2.1128;stroke-linecap:round;stroke-linejoin:round;stroke-miterlimit:10;" x1="730.4" y1="-560.5" x2="781.9" y2="-560.5"/>
			</g>
		</g>
		<g>
			<polygon style="fill:#084396;" points="676,-499.3 677.3,-496.7 680.3,-496.3 678.1,-494.2 678.6,-491.3 676,-492.7 
				673.4,-491.3 673.9,-494.2 671.8,-496.3 674.7,-496.7 			"/>
			<polygon style="fill:#084396;" points="688.8,-499.3 690.1,-496.7 693,-496.3 690.9,-494.2 691.4,-491.3 688.8,-492.7 
				686.2,-491.3 686.7,-494.2 684.6,-496.3 687.5,-496.7 			"/>
			<polygon style="fill:#084396;" points="701.5,-499.3 702.9,-496.7 705.8,-496.3 703.7,-494.2 704.2,-491.3 701.5,-492.7 
				698.9,-491.3 699.4,-494.2 697.3,-496.3 700.2,-496.7 			"/>
			<polygon style="fill:#084396;" points="714.3,-499.3 715.6,-496.7 718.5,-496.3 716.4,-494.2 716.9,-491.3 714.3,-492.7 
				711.7,-491.3 712.2,-494.2 710.1,-496.3 713,-496.7 			"/>
			<polygon style="opacity:0.25;fill:#084396;" points="727.1,-499.3 728.4,-496.7 731.3,-496.3 729.2,-494.2 729.7,-491.3 
				727.1,-492.7 724.4,-491.3 724.9,-494.2 722.8,-496.3 725.8,-496.7 			"/>
			<g style="opacity:0.15;">
				
					<line style="fill:none;stroke:#084396;stroke-width:2.1128;stroke-linecap:round;stroke-linejoin:round;stroke-miterlimit:10;" x1="673.2" y1="-484.3" x2="700.4" y2="-484.3"/>
				
					<line style="fill:none;stroke:#084396;stroke-width:2.1128;stroke-linecap:round;stroke-linejoin:round;stroke-miterlimit:10;" x1="723" y1="-473.4" x2="781.9" y2="-473.4"/>
				
					<line style="fill:none;stroke:#084396;stroke-width:2.1128;stroke-linecap:round;stroke-linejoin:round;stroke-miterlimit:10;" x1="673.2" y1="-473.4" x2="714.1" y2="-473.4"/>
				
					<line style="fill:none;stroke:#084396;stroke-width:2.1128;stroke-linecap:round;stroke-linejoin:round;stroke-miterlimit:10;" x1="673.2" y1="-462.6" x2="781.9" y2="-462.6"/>
				
					<line style="fill:none;stroke:#084396;stroke-width:2.1128;stroke-linecap:round;stroke-linejoin:round;stroke-miterlimit:10;" x1="697.9" y1="-451.7" x2="781.9" y2="-451.7"/>
				
					<line style="fill:none;stroke:#084396;stroke-width:2.1128;stroke-linecap:round;stroke-linejoin:round;stroke-miterlimit:10;" x1="673.2" y1="-451.7" x2="689.3" y2="-451.7"/>
				
					<line style="fill:none;stroke:#084396;stroke-width:2.1128;stroke-linecap:round;stroke-linejoin:round;stroke-miterlimit:10;" x1="709.3" y1="-484.3" x2="781.9" y2="-484.3"/>
			</g>
		</g>
		<g>
			<polygon style="fill:#084396;" points="676,-423.2 677.3,-420.5 680.3,-420.1 678.1,-418 678.6,-415.1 676,-416.5 673.4,-415.1 
				673.9,-418 671.8,-420.1 674.7,-420.5 			"/>
			<polygon style="fill:#084396;" points="688.8,-423.2 690.1,-420.5 693,-420.1 690.9,-418 691.4,-415.1 688.8,-416.5 
				686.2,-415.1 686.7,-418 684.6,-420.1 687.5,-420.5 			"/>
			<polygon style="fill:#084396;" points="701.5,-423.2 702.9,-420.5 705.8,-420.1 703.7,-418 704.2,-415.1 701.5,-416.5 
				698.9,-415.1 699.4,-418 697.3,-420.1 700.2,-420.5 			"/>
			<polygon style="fill:#084396;" points="714.3,-423.2 715.6,-420.5 718.5,-420.1 716.4,-418 716.9,-415.1 714.3,-416.5 
				711.7,-415.1 712.2,-418 710.1,-420.1 713,-420.5 			"/>
			<polygon style="fill:#084396;" points="727.1,-423.2 728.4,-420.5 731.3,-420.1 729.2,-418 729.7,-415.1 727.1,-416.5 
				724.4,-415.1 724.9,-418 722.8,-420.1 725.8,-420.5 			"/>
			<g style="opacity:0.15;">
				
					<line style="fill:none;stroke:#084396;stroke-width:2.1128;stroke-linecap:round;stroke-linejoin:round;stroke-miterlimit:10;" x1="781.9" y1="-375.5" x2="754.8" y2="-375.5"/>
				
					<line style="fill:none;stroke:#084396;stroke-width:2.1128;stroke-linecap:round;stroke-linejoin:round;stroke-miterlimit:10;" x1="693.8" y1="-386.4" x2="673.2" y2="-386.4"/>
				
					<line style="fill:none;stroke:#084396;stroke-width:2.1128;stroke-linecap:round;stroke-linejoin:round;stroke-miterlimit:10;" x1="781.9" y1="-386.4" x2="702.8" y2="-386.4"/>
				
					<line style="fill:none;stroke:#084396;stroke-width:2.1128;stroke-linecap:round;stroke-linejoin:round;stroke-miterlimit:10;" x1="781.9" y1="-397.2" x2="673.2" y2="-397.2"/>
				
					<line style="fill:none;stroke:#084396;stroke-width:2.1128;stroke-linecap:round;stroke-linejoin:round;stroke-miterlimit:10;" x1="707.8" y1="-408.1" x2="673.2" y2="-408.1"/>
				
					<line style="fill:none;stroke:#084396;stroke-width:2.1128;stroke-linecap:round;stroke-linejoin:round;stroke-miterlimit:10;" x1="781.9" y1="-408.1" x2="716.4" y2="-408.1"/>
				
					<line style="fill:none;stroke:#084396;stroke-width:2.1128;stroke-linecap:round;stroke-linejoin:round;stroke-miterlimit:10;" x1="745.9" y1="-375.5" x2="673.2" y2="-375.5"/>
			</g>
		</g>
		<g>
			<g style="opacity:0.2;">
				<path style="fill:#084396;" d="M635.2-605.1h-10.9c-9.5,0-17.3-7.8-17.3-17.3v-10.9c0-9.5,7.8-17.3,17.3-17.3h10.9
					c9.5,0,17.3,7.8,17.3,17.3v10.9C652.5-612.9,644.7-605.1,635.2-605.1z M624.2-647.7c-7.9,0-14.3,6.4-14.3,14.3v10.9
					c0,7.9,6.4,14.3,14.3,14.3h10.9c7.9,0,14.3-6.4,14.3-14.3v-10.9c0-7.9-6.4-14.3-14.3-14.3H624.2z"/>
			</g>
			<g style="opacity:0.75;">
				<path style="fill:#084396;" d="M656.2-636.7l-16,16l-3,3c-0.4,0.4-1,0.6-1.5,0.6c-0.6,0-1.1-0.2-1.5-0.6l-3-3l-8-8
					c-0.4-0.4-0.6-1-0.6-1.5c0-0.6,0.2-1.1,0.6-1.5l3-3c0.4-0.4,1-0.6,1.5-0.6c0.6,0,1.1,0.2,1.5,0.6l6.5,6.5l14.5-14.6
					c0.4-0.4,1-0.6,1.5-0.6c0.6,0,1.1,0.2,1.5,0.6l3,3c0.4,0.4,0.6,1,0.6,1.5C656.8-637.6,656.6-637.1,656.2-636.7z"/>
			</g>
		</g>
		<g style="opacity:0.2;">
			<path style="fill:#084396;" d="M635.2-528.9h-10.9c-9.5,0-17.3-7.8-17.3-17.3v-10.9c0-9.5,7.8-17.3,17.3-17.3h10.9
				c9.5,0,17.3,7.8,17.3,17.3v10.9C652.5-536.7,644.7-528.9,635.2-528.9z M624.2-571.5c-7.9,0-14.3,6.4-14.3,14.3v10.9
				c0,7.9,6.4,14.3,14.3,14.3h10.9c7.9,0,14.3-6.4,14.3-14.3v-10.9c0-7.9-6.4-14.3-14.3-14.3H624.2z"/>
		</g>
		<g>
			<g style="opacity:0.2;">
				<path style="fill:#084396;" d="M635.2-452.7h-10.9c-9.5,0-17.3-7.8-17.3-17.3V-481c0-9.5,7.8-17.3,17.3-17.3h10.9
					c9.5,0,17.3,7.8,17.3,17.3v10.9C652.5-460.5,644.7-452.7,635.2-452.7z M624.2-495.3c-7.9,0-14.3,6.4-14.3,14.3v10.9
					c0,7.9,6.4,14.3,14.3,14.3h10.9c7.9,0,14.3-6.4,14.3-14.3V-481c0-7.9-6.4-14.3-14.3-14.3H624.2z"/>
			</g>
			<g style="opacity:0.75;">
				<path style="fill:#084396;" d="M656.2-484.3l-16,16l-3,3c-0.4,0.4-1,0.6-1.5,0.6c-0.6,0-1.1-0.2-1.5-0.6l-3-3l-8-8
					c-0.4-0.4-0.6-1-0.6-1.5c0-0.6,0.2-1.1,0.6-1.5l3-3c0.4-0.4,1-0.6,1.5-0.6c0.6,0,1.1,0.2,1.5,0.6l6.5,6.5l14.5-14.6
					c0.4-0.4,1-0.6,1.5-0.6c0.6,0,1.1,0.2,1.5,0.6l3,3c0.4,0.4,0.6,1,0.6,1.5S656.6-484.7,656.2-484.3z"/>
			</g>
		</g>
		<g>
			<g style="opacity:0.2;">
				<path style="fill:#084396;" d="M635.2-376.5h-10.9c-9.5,0-17.3-7.8-17.3-17.3v-10.9c0-9.5,7.8-17.3,17.3-17.3h10.9
					c9.5,0,17.3,7.8,17.3,17.3v10.9C652.5-384.3,644.7-376.5,635.2-376.5z M624.2-419.1c-7.9,0-14.3,6.4-14.3,14.3v10.9
					c0,7.9,6.4,14.3,14.3,14.3h10.9c7.9,0,14.3-6.4,14.3-14.3v-10.9c0-7.9-6.4-14.3-14.3-14.3H624.2z"/>
			</g>
		</g>
	</g>
	<g id="people">
		<path style="opacity:0.3;fill:#3E4D59;" d="M715.2-480.5c7.3,5.1,15.9,7.8,24.7,7.8c2.5,0,5.1-0.2,7.6-0.7c6.2-1.1,12-3.5,17-7
			l16.1,19.4c0,0.7,0,1.3,0.2,2c0.4,1.8,1.6,3.6,3.4,4.2c0.5,0.1,1,0.2,1.3,0.6c0.1,0.2,0.2,0.5,0.2,0.8c0.3,1.4,1.7,2.4,3.1,2.2
			c0,0,0,0,0,0l11.9,14.4c0,0.7,0.3,1.5,0.9,1.9c0.3,0.2,0.8,0.4,0.9,0.9c0,0.2-0.1,0.4-0.1,0.6c-0.2,0.6,0,1.4,0.5,1.8
			c0.5,0.4,1.3,0.5,1.8,0.1c0,1.3,1.2,2.6,2.5,2.6l12.3,14.9c0.9,1.1,2.3,1.7,3.7,1.7c0.2,0,0.3,0,0.5,0V-424l-8.8-10.6
			c0.1-0.1,0.2-0.2,0.3-0.4c0.5-0.5,1-1,1.6-1.4l0.2,0.5c0,0,2.7-0.9,6.7-2.4v-8.9c-5,3.1-9.1,5.6-9.1,5.6l0.1,0.1
			c-0.1,0-0.2,0.1-0.3,0.1c-0.6,0.2-2.6,0.1-4.8,0.1l-12-14.5c2.2-0.6,5.2-1.5,8.3-2.5c0.1,0,0.1,0,0.2-0.1c0.4-0.1,0.8-0.3,1.2-0.4
			c0.1,0,0.3-0.1,0.4-0.1c0.3-0.1,0.7-0.2,1-0.3c0.2-0.1,0.3-0.1,0.5-0.2c0.3-0.1,0.6-0.2,0.9-0.3c0.2-0.1,0.4-0.1,0.5-0.2
			c0.3-0.1,0.6-0.2,0.9-0.3c0.2-0.1,0.4-0.1,0.5-0.2c0.3-0.1,0.6-0.2,0.9-0.3c0.2-0.1,0.3-0.1,0.5-0.2c0.3-0.1,0.6-0.2,0.9-0.4
			c0.1-0.1,0.3-0.1,0.4-0.2c0.4-0.2,0.8-0.3,1.2-0.5c0,0,0.1,0,0.1-0.1c0.4-0.2,0.9-0.4,1.3-0.6c0.1-0.1,0.2-0.1,0.3-0.2
			c0.3-0.1,0.6-0.3,0.9-0.4c0.1-0.1,0.3-0.1,0.4-0.2c0.2-0.1,0.5-0.2,0.7-0.4c0.1-0.1,0.3-0.2,0.4-0.2c0.2-0.1,0.4-0.2,0.6-0.3
			c0.1-0.1,0.3-0.2,0.4-0.2c0.2-0.1,0.4-0.2,0.5-0.3c0.1-0.1,0.2-0.2,0.4-0.2c0.2-0.1,0.3-0.2,0.5-0.4c0.1-0.1,0.2-0.1,0.3-0.2
			c0.2-0.1,0.3-0.3,0.5-0.4c0.1-0.1,0.1-0.1,0.2-0.2c0,0,0-0.1,0.1-0.1v-47.5c-0.2,0.2-0.5,0.4-0.7,0.7c-4.8,5.2-8.2,38.4-8.4,39.7
			c-0.1,0.9-13.8,8.9-20.7,12.8c0-0.9-0.4-1.9-1-2.6c-0.7-0.8-1.7-1.3-2.7-1.7c-0.1,0-0.3-0.1-0.4-0.1l-18.1-21.8
			c1.3-1.4,2.5-2.9,3.6-4.4c6.6-9.5,9.1-20.9,7.1-32.3c-2-11.4-8.3-21.3-17.8-27.9c-9.5-6.6-20.9-9.1-32.3-7.1
			c-11.4,2-21.3,8.3-27.9,17.8C690.9-521.1,695.7-494.1,715.2-480.5z M712.4-535.1c5.1-7.4,12.8-12.3,21.7-13.8c2-0.4,4-0.5,5.9-0.5
			c6.8,0,13.5,2.1,19.2,6.1c7.4,5.1,12.3,12.8,13.8,21.7c1.6,8.8-0.4,17.8-5.5,25.1c-5.1,7.4-12.8,12.3-21.7,13.8
			c-8.8,1.6-17.8-0.4-25.1-5.5C705.6-499,701.8-520,712.4-535.1z"/>
		<g>
			<ellipse style="opacity:0.35;fill:#AACFE6;" cx="444.1" cy="-324.9" rx="38" ry="3"/>
			<g>
				<path style="fill:#E6B08D;" d="M493.6-474c0,0,4.2,4.9,5,5.2c0.5,0.2,3.7,0.8,4.8,1c0.4,0.1,0.8,0.1,1.2,0.3
					c0.4,0.2,0.7,0.5,1,0.8c0.8,0.8,1.5,1.7,2.2,2.7c0.2,0.2,0.4,0.5,0.5,0.8c0.2,0.3,0.2,0.7,0.3,1.1c0.5,2.1,0.8,4.2,1.2,6.2
					c0,0.1,0,0.2,0,0.3c-0.1,0.2-0.5,0.2-0.7,0c-0.2-0.2-0.4-0.4-0.6-0.5c0,0.2,0,0.4,0,0.5c-0.4,0.2-0.8,0-1.2-0.2
					c-1.5-0.8-2.8-2.1-3.7-3.6c-0.2-0.3-0.3-0.6-0.6-0.8c-0.6-0.6-1.7-0.6-2.5-0.9c-0.8-0.2-1.6-0.4-2.4-0.8
					c-1.4-0.6-1.5-2.3-1.7-2.6c-0.1-0.2-0.2-0.3-0.4-0.4c-0.9-0.8-4.5-3.5-4.5-3.5"/>
			</g>
			<g>
				<path style="fill:#14093B;" d="M444.3-579.1c2,0.6,3,3.1,3.7,4.9c0.8,2.1,1.2,4.4,1.5,6.6c0.2,1.6,0.3,3.2-0.3,4.6
					c-0.3,0.7-0.8,1.4-1.3,2c-0.3,0.4-0.6,0.7-0.9,1c-0.4,0.3-0.9,0.4-1.3,0.2c-0.6-0.2-0.9-1-1-1.6c-1.1-4.2-2.4-8.4-4.7-12"/>
			</g>
			<g>
				<path style="fill:#D99574;" d="M446.5-565.9c0-1.3,1.4-2.2,2.6-0.8c1,1.1,1.3,3.3,1.3,4.9c0.1,1.9-1.4,2.3-2.6,2.6"/>
			</g>
			<g>
				<path style="fill:#E6BB9F;" d="M460.9-339.6c0,0,0,4.1-0.3,5.5c-0.3,1.4-4.9,1-5.4,0.2c-0.4-0.8,0.1-7.5,0.1-7.5"/>
				<path style="fill:#CF4A47;" d="M453.9-332.5c-0.1,1.5-0.1,4.4-0.1,4.4l4.8,1.2l0.6-0.8c0,0,1.3,1.1,2.8,1.5
					c1.1,0.3,3.4,0.5,4.5,0.4c3.9-0.3,6.7-1.5,6.8-2.1c0.6-2.4-4.7-2.1-5.7-2.2c-3.1-0.3-5.1-2.5-5.7-4c-0.4-1.1-0.2-1.4-0.8-1.2
					c0,0-0.6,0.1-1,0.7c-0.7,1-1.8,1.6-3,1.3c-0.7-0.2-1.3-0.5-1.8-1C455.2-334.4,454.1-334.1,453.9-332.5z"/>
			</g>
			<path style="fill:#3668B3;" d="M451.8-389.5c0.5-7.1-5.3-16.7-5.3-16.7s15.6-8.6,15.8-11.2c0,0,2.1,14.7,2.9,19.9
				c1.3,9-3.2,60.4-3.2,60.4s-3.3,0.9-7.6,0.1c0,0-0.8-19.9-4.1-33.3C448.8-376.7,451.3-387.8,451.8-389.5z"/>
			<path style="fill:#3668B3;" d="M450.6-472c5.9,13.1,12.2,55.2,13.7,69.8c0.6,6.2-4.5,13.4-10.5,7.8c-7.1-6.7-17.2-37.2-20.8-42.6
				c-3.6-5.4-17-10.3-7.8-37.7"/>
			<g>
				<path style="fill:#E6BB9F;" d="M424.3-339.3c0,0-0.5,5.7-0.7,7.2c-0.2,1.5-4.9,1.3-5.4,0.5c-0.5-0.8-0.3-7.5-0.3-7.5"/>
				<path style="fill:#CF4A47;" d="M416.8-330.5c-0.1,1.5,0.2,4,0.2,4l5.4,0.4l0.3-0.9c0,0,1.7,1,3.1,1.1l4.5,0.3
					c3.3,0.2,5.2-0.1,5.4-0.7c0.5-2.4-3.5-2.6-4.5-2.6c-3-0.2-6.1-1.8-6.7-3.4c-0.4-1.1-0.2-1.4-0.8-1.2c0,0-0.6,0.1-1,0.7
					c-0.6,1-1.8,1.6-2.9,1.3c-0.7-0.2-1.3-0.5-1.8-1C418-332.3,416.9-332,416.8-330.5z"/>
			</g>
			<path style="fill:#3668B3;" d="M436-390.4c-1,5.1-14.3,3.2-14-1.3c0.4-6.4-4.1-14.7-5.8-45.1c-0.2-3.5-3.7-4-5.1-13.5
				c-1.4-9.5,4.3-20,4.3-20l20.4-2.9c0,0,7.9,17.7,6.2,35.4C440.4-420.1,437.1-396.4,436-390.4z"/>
			<path style="fill:#3668B3;" d="M422-392.8c0,0-4.6,9.2-5.2,15.9c-0.8,9.7,0.2,41.8,0.2,41.8s5,1.1,7.7,0.3
				c0,0,11.8-56.8,12.2-62.9C437.4-403.9,422-392.8,422-392.8z"/>
			<path style="fill:#4E9FD9;" d="M458.5-533.6c-2.3-2.6-9.6-7-19.4-6.7c-6.8,0.2-25.1,1.3-27.2,5.8c-1,2.3-2.2,25.9-0.6,34.1
				c1.2,6.1,4.1,21.3,4.1,25c0,3.7-2,5.2-1,6.3c2.1,2.4,16.1,3.4,22.7,3.4c5.9,0,15.9-1.6,16.4-3.5c0.8-2.8-1.1-2.7-1.4-5.6
				c-0.3-2.9-1.6-22.3,0.1-25.1c2.7-4.5,5.4-16.2,5.7-19.6C457.9-522.7,460.8-530.9,458.5-533.6z"/>
			<path style="opacity:0.45;fill:#5091C9;" d="M416.4-514.4c-0.7,1.5-5.5,9.1-5.5,9.1l-0.2,0.9c0.1,1.6,0.3,3,0.5,4.1
				c1.2,6.1,4.1,21.3,4.1,25c0,3.7-2,5.2-1,6.3c0.8,1,3.6,1.7,7,2.2c-0.8-0.9-1.5-1.8-1.6-2.3c-0.3-1.1,1.5-0.8,1.9-1.7
				c0.3-0.9-4.1-18.6-5.2-27.1C415.3-506.5,417.1-515.9,416.4-514.4z"/>
			<path style="fill:#E6B08D;" d="M444.8-548.6c0,0,0.1,8.2,0.4,8.5c0.3,0.3,1.9,1.1,1.9,1.1s-1.1,7.1-2.9,6.6
				c-1.8-0.5-13.5-6.4-13.5-6.4s1.7-0.7,1.7-1.3c0-0.7-1.6-13.5-1.6-13.5"/>
			<path style="fill:#E6B08D;" d="M436.6-578.2c1.7,0.5,6.2-0.5,7.5,1.4c1.2,1.9,2.3,6.4,2.8,7.6c0.9,2.5,1.5,5.1,2.2,7.7
				c0.9,3.3,2.3,9.4-0.9,12.2c-0.9,0.8-1.4,1.1-2.5,1.3c-1.5,0.3-3.1,0.6-4.6,0.9c-2.4,0.4-5,0.9-7.4,0.2c-3.2-1-4.9-5.4-5.7-8.3
				l-4.7-16.9L436.6-578.2z"/>
			<path style="fill:#151661;" d="M444.6-530.5c0,0,0.6,30,1.9,48.3l-4.4,6.1l-3-7.6c0,0-1.3-22,2.9-46.5L444.6-530.5z"/>
			<path style="fill:#151661;" d="M445.7-533.1l-0.1,0.4c-0.2,0.8-0.5,1.5-0.9,2.2l0,0l-2.7,0.2c0,0-1.8-1-2.1-2c-0.2-1,3-2.7,3-2.7
				l0.4,0.2C444.2-534.5,445-533.9,445.7-533.1L445.7-533.1z"/>
			<path style="fill:#D1D1D1;" d="M432.1-543.1c0,0-2.3,1.7-3.7,3.7c1.4,3.2,5.5,8.6,9,11.2c1.6-4.3,5.5-6.9,5.5-6.9
				S433-537.1,432.1-543.1z"/>
			<path style="fill:#D1D1D1;" d="M442.9-535c0,0,3.4,1.3,5.4,5.1c0,0,0.6-5.1-0.7-9.5c0,0-1.8-3.1-2.6-3.1
				C445.3-538.9,442.9-535,442.9-535z"/>
			<path style="fill:#4E9FD9;" d="M456.5-535.3c6,3.3,16.2,37.4,17.3,37.8c1.1,0.4,24.3,27.6,24.3,27.6l-3.7,5
				c0,0-23.4-17-30.1-24.4c-4.7-5.2-13.7-28.6-13.7-28.6S450.5-538.6,456.5-535.3z"/>
			<path style="opacity:0.45;fill:#5091C9;" d="M466.5-490.7c-2.3-2-9.6-23.7-9.6-23.7l-1.8,7.4c2.9,6.8,6.7,14.9,9.2,17.7
				c6.7,7.4,30.1,24.4,30.1,24.4l1.4-1.9C495.8-466.8,468.9-488.7,466.5-490.7z"/>
			<g>
				<path style="fill:#E57174;" d="M426.1-478.5l-35.5,6.7c-1,0.2-1.6,1.2-1.3,2.1l4.8,24.5c0.2,0.8,1.1,1.4,1.9,1.2l35.5-6.7
					c1-0.2,1.6-1.2,1.3-2.1l-4.8-24.5C427.8-478.1,427-478.7,426.1-478.5z"/>
				<polygon style="fill:#CEDCE6;" points="425.7,-476.6 391.7,-470.2 396.4,-445.8 430.4,-452.3 				"/>
				<g>
					
						<line style="fill:none;stroke:#90B3D7;stroke-width:0.5282;stroke-linecap:round;stroke-linejoin:round;stroke-miterlimit:10;" x1="426.6" y1="-453.5" x2="422.9" y2="-474.3"/>
					
						<line style="fill:none;stroke:#90B3D7;stroke-width:0.5282;stroke-linecap:round;stroke-linejoin:round;stroke-miterlimit:10;" x1="423.4" y1="-452.9" x2="419.7" y2="-473.6"/>
					
						<line style="fill:none;stroke:#90B3D7;stroke-width:0.5282;stroke-linecap:round;stroke-linejoin:round;stroke-miterlimit:10;" x1="418.8" y1="-452" x2="415.1" y2="-472.7"/>
					
						<line style="fill:none;stroke:#90B3D7;stroke-width:0.5282;stroke-linecap:round;stroke-linejoin:round;stroke-miterlimit:10;" x1="414.2" y1="-451" x2="410.5" y2="-471.8"/>
					
						<line style="fill:none;stroke:#90B3D7;stroke-width:0.5282;stroke-linecap:round;stroke-linejoin:round;stroke-miterlimit:10;" x1="409.6" y1="-450.1" x2="405.4" y2="-470.8"/>
					
						<line style="fill:none;stroke:#90B3D7;stroke-width:0.5282;stroke-linecap:round;stroke-linejoin:round;stroke-miterlimit:10;" x1="404.9" y1="-449.1" x2="400.8" y2="-469.9"/>
					
						<line style="fill:none;stroke:#90B3D7;stroke-width:0.5282;stroke-linecap:round;stroke-linejoin:round;stroke-miterlimit:10;" x1="400.3" y1="-448.2" x2="396" y2="-468.9"/>
				</g>
			</g>
			<g>
				<g>
					<path style="fill:#E6B08D;" d="M407.3-460.7c0,0,1.4,2.9,2.2,4.3c0.5,0.9,4.2,4.1,5.7,6.6c0.7,1.2,1.4,2.6,1.2,4
						c-0.2,1.4-1.5,2.7-2.9,2.4c-0.4-0.1-0.8-0.3-1.2,0c-0.2,0.1-0.2,0.3-0.3,0.5c-0.3,0.5-1,0.9-1.6,0.8c-0.6-0.1-1.2-0.6-1.3-1.2
						c-1,0.9-2.6,0.9-3.5,0c0.6-0.5,1-1.2,0.9-1.9c-0.1-0.7-0.7-1.2-1.1-1.7c-0.7-1-1.1-2.2-1.1-3.4c0-0.9,0.3-1.7,0.4-2.6
						c0.2-1.8-0.2-3.6-1.1-5.1"/>
				</g>
				<path style="fill:#4E9FD9;" d="M418-518c-1.1,3.8-17.4,28.9-17.4,28.9l8.7,31.9l-5,3.1c0,0-15.5-25.8-15.6-33.1
					c0-7.3,11.4-34,19.7-44.9c2.7-3.5,8-5.2,8-5.2"/>
			</g>
			<g>
				<path style="fill:#151661;" d="M426.2-558.3c1.1-0.6,1.9-1.3,2.6-0.3c0.4,0.5,0.6,1.3,1.2,1.5c0.6,0.2,1.3-0.4,1.4-1
					c0.2-0.6,0-1.3-0.2-1.9c-0.4-1.4-0.9-2.8-1.3-4.2c-0.4-1.4-0.8-2.9-0.3-4.2c0.3-0.7,0.8-1.2,1.3-1.7c1.8-1.5,4.1-2.3,6.4-2.7
					c2.3-0.5,4.6-0.7,6.9-1.4c0.9-0.3,1.9-0.7,2.6-1.3c1.2-1,1.8-2.6,1.9-4.2c0-1.6-0.5-3.2-1.3-4.5c-0.2,0.5-0.4,1.1-0.7,1.6
					c-0.3-0.7-0.7-1.4-1.3-2c-0.7,3.7-16.4,2.5-20,4.1c-2.5,1.1-4.6,1.9-4.6,6c-0.1,0.3-0.3,0.5-0.5,0.7c-2.3,2.1-3.2,4.6-3.5,8.3
					c-0.3,4.6,2.3,9.5,4.9,13.3c0.7,0.9,1,1.6,1.9,2.3c0.9,0.7,2.5,1,3.6,0.8c1.1-0.2,3.4-0.1,3.4-1.3c0-0.8-1.7-2.3-2.2-3"/>
			</g>
			<g>
				<path style="fill:#E6B08D;" d="M430.3-554c0,0,0.2,0.8-0.3,1.4c-0.4,0.5-1.3,0.5-1.9,0.3c-1.7-0.5-2.8-2.2-3.1-3.8
					c-0.4-2,0.7-4,2.5-3.4c1.1,0.3,1.7,1.5,1.7,2.6"/>
			</g>
			<g>
				<path style="fill:#D99574;" d="M444.8-547.9l-5,0.9c0,0,1.7,1.9,5.1,1.9"/>
			</g>
			<path style="fill:#2158AB;" d="M456-389.6c0.9-3-1.7-7.6-2.9-11.1c-1.3-3.5-10.8-31.1-10.8-31.1l-2.1,11.2
				c2,4.8,4.1,9.9,6.3,14.4l0,0l0,0c0.8,1.7,1.7,3.4,2.5,4.9c1.5,3.4,3.1,8,2.8,11.8c-0.5,1.8-3,12.8-1.4,19.2
				c3.2,13.5,4.1,33.3,4.1,33.3c0.8,0.2,1.6,0.2,2.3,0.3c-0.3-4.9-0.8-13.6-0.8-15.3c-0.1-2.4-3.1-16.3-2.9-21.9
				C453.3-379.4,455.1-386.6,456-389.6z"/>
			<g>
				<polygon style="fill:#E57174;" points="431.9,-460 428.8,-459.3 426.6,-470.8 429.7,-471.4 				"/>
				<g>
					<path style="fill:#E57174;" d="M436.2-466.8c-0.3-1.5-1.7-2.5-3.3-2.2l-3.5,0.7l1,5.5c0,0,2.8-0.5,3.5-0.7
						C435.5-463.9,436.5-465.3,436.2-466.8z M431.8-466c-0.2-0.9,0.4-1.7,1.2-1.8c0.9-0.2,1.7,0.4,1.8,1.2c0.2,0.9-0.4,1.7-1.2,1.8
						C432.8-464.6,432-465.2,431.8-466z"/>
				</g>
			</g>
		</g>
		<g>
			<ellipse style="opacity:0.35;fill:#AACFE6;" cx="542" cy="-302.9" rx="39.5" ry="3.6"/>
			<g>
				<path style="opacity:0.45;fill:#5091C9;" d="M590.7-516.9l-24.3-3.3v48.6l13.2,1.8c1.1,0.2,2.2-0.5,2.5-1.6l10.5-43.1
					C592.8-515.6,591.9-516.7,590.7-516.9z"/>
				<path style="fill:#4E9FD9;" d="M560-522.4l-8.7,38.4c-0.2,1,0.5,2.1,1.5,2.2l27.2,3.9c0.9,0.1,1.8-0.5,2.1-1.4l8.7-38.4
					c0.2-1-0.5-2.1-1.5-2.2l-27.2-3.9C561.2-524,560.3-523.4,560-522.4z"/>
				<polygon style="fill:#CEDCE6;" points="561.7,-521.2 553.4,-484.5 580.4,-480.6 588.7,-517.3 				"/>
				<g>
					
						<line style="fill:none;stroke:#90B3D7;stroke-width:0.5282;stroke-linecap:round;stroke-linejoin:round;stroke-miterlimit:10;" x1="585.9" y1="-514.6" x2="562.9" y2="-517.9"/>
					
						<line style="fill:none;stroke:#90B3D7;stroke-width:0.5282;stroke-linecap:round;stroke-linejoin:round;stroke-miterlimit:10;" x1="585.1" y1="-511.2" x2="562.2" y2="-514.4"/>
					
						<line style="fill:none;stroke:#90B3D7;stroke-width:0.5282;stroke-linecap:round;stroke-linejoin:round;stroke-miterlimit:10;" x1="575.6" y1="-508.3" x2="561.2" y2="-510.3"/>
					
						<line style="fill:none;stroke:#90B3D7;stroke-width:0.5282;stroke-linecap:round;stroke-linejoin:round;stroke-miterlimit:10;" x1="574.5" y1="-505.3" x2="560.2" y2="-507.3"/>
					
						<line style="fill:none;stroke:#90B3D7;stroke-width:0.5282;stroke-linecap:round;stroke-linejoin:round;stroke-miterlimit:10;" x1="573.5" y1="-502.3" x2="559.2" y2="-504.4"/>
					
						<line style="fill:none;stroke:#90B3D7;stroke-width:0.5282;stroke-linecap:round;stroke-linejoin:round;stroke-miterlimit:10;" x1="578.8" y1="-485.8" x2="564.4" y2="-487.9"/>
				</g>
			</g>
			<g>
				<path style="fill:#D99574;" d="M549.6-483.6c1.5-0.7,2.7-2.1,3.8-3.4c1.1-1.3,2.2-2.6,3.2-3.9c0.4-0.5,0.9-1.1,0.9-1.7
					c-1.8-0.1-3,2.2-4.8,2.3c0.8-3,2.1-5.9,3.6-8.5c0.4-0.7,0.8-1.4,0.5-2.1c-2,0.7-3.6,2.1-5,3.7c-1,1.1-1.9,2.2-2.7,3.5
					c-2.4,3.6-3.9,7.8-4.9,12"/>
			</g>
			<g>
				<path style="fill:#E6B08D;" d="M541.8-452.7l-19.4-16.4c0,0-9,12.3-5.6,24.1c1.7,5.8,3.8,8.7,4.7,11.5
					c0.9,2.6,6.7,39.1,6.3,41.7c-0.4,2.7-3.6,10.1-4.8,18c-1.4,9.4-1.2,40.2-2.3,48.3c-1.1,8.2,6.4,9.5,6.8,6.8
					c3.5-23.6,12.9-60.3,14.2-72.1C542.9-402.6,542.4-424.2,541.8-452.7z"/>
				<g>
					<path style="fill:#D99574;" d="M541.8-429.5l-8.4,19.4c3.6,6,5.6,13.1,5.9,20.3c0.1,3.7-0.2,7.5-0.1,11.2c0,0.3,0,0.5,0.1,0.8
						c1.1-5.5,2-10.1,2.3-13.1c0.9-8.3,0.9-21.6,0.6-38.7C542.1-429.5,542-429.5,541.8-429.5z"/>
				</g>
				<path style="fill:#E6B08D;" d="M528.7-326.3c0,0-1.8,8.6-1.3,9.6c0.5,1.1,2.2,4.3,4,5.4c1.9,1.2,6,2.6,6.4,3.2
					c0.3,0.5,0.4,1.3-0.2,1.7c-1.5,1.2-4.2,1.8-5.9,1.5c-5.6-0.9-6.2-3.4-9.5-3.8c-0.6-0.1-1.6,0.8-3.2,0c-1.6-0.8-2.3-2.3-2.2-3.6
					c0.2-2.4,1.6-4.3,2.5-6c0.9-1.7,1.6-9.7,1.6-9.7"/>
				<path style="fill:#151661;" d="M538-306c0.4-0.7,0.5-1.8,0.1-2c-0.5-0.4-2.4-1.6-3.5-2.1c-1.1-0.5-2.8-0.9-2.2-0.6
					c0.6,0.3-0.5,1.6-1.5,1.5c-3.5-0.2-6.1-2.6-8.2-3.1c-2.9-0.7-4.1-4.2-4.3-4.7c-0.5,0.3-1.8,3.1-2.1,4c-0.2,0.8-0.7,2.2-0.4,3
					c0.2,0.6,0.5,1.7,0.3,2.9c0,0,0.6,0.4,2.1,0.8c1,0.2,2.3,0,2.3,0l0.3-1.8c0,0,0.8,0,1.8,0.2c1,0.2,2.7,1.2,2.7,1.3
					c0.4,0.5,0.7,1.4,1.3,1.6c1.4,0.7,2.8,1.1,4.6,1.2C535.1-303.7,537.3-304.8,538-306z"/>
			</g>
			<g>
				<path style="fill:#E6B08D;" d="M568.3-306.3c-0.4-0.5-4.9-1.2-7-2.1c-2-0.8-4.4-3.5-4.9-4.7c-0.5-1.1-0.4-7-0.3-9.4
					c0.4-16.8,3.5-57.8,4-67.6c0.8-17.1-1.4-34.7-8-62.1L527.6-471c0,0-6.9,12.7-4.6,24.9c1.3,7.1,7.2,8.2,8.2,10.9
					c1,2.7,15.8,47,15.8,47s-2.9,9.6-3,20.1c-0.1,9,3.9,36,4.7,46.2c0.1,2,0.4,6.8-0.2,8.4c-0.7,1.9-2.6,4.1-2.5,6.4
					c0.1,1.4,1,2.7,2.8,3.2c1.7,0.5,2.7-0.5,3.3-0.5c3.4-0.1,4.4,2.2,10.4,2.2c1.8,0,4.5-1,5.9-2.5
					C568.8-305.1,568.7-305.9,568.3-306.3z"/>
				<path style="fill:#151661;" d="M568.8-304.2c0.3-0.8,0.3-1.8-0.1-2c-0.6-0.3-2.7-1.2-3.9-1.5c-1.2-0.3-3.1-0.5-2.4-0.2
					c0.7,0.2-0.3,1.6-1.4,1.7c-3.7,0.4-6.7-1.5-8.9-1.7c-3.1-0.2-4.2-3.4-4.5-4c-0.5,0.4-2.1,3.4-2.2,4.3c-0.1,0.8-0.4,2.3,0,3.1
					c0.2,0.5,0.8,1.6,0.7,2.8c0,0,0.7,0.3,2.3,0.4c1,0,2.3-0.3,2.3-0.3v-1.8c0,0,0.8-0.2,1.9-0.1c1.1,0,2.4,0.6,3,1.1
					c0.5,0.4,1,1,1.6,1.2c1.7,0.4,3,0.6,4.8,0.4C566.1-301.5,568.3-302.9,568.8-304.2z"/>
			</g>
			<path style="fill:#151661;" d="M522.9-471.1c-1.7,1.8-7.6,11.7-7.6,19.7c-0.1,8,2.8,13.2,3,14.8c1.9,12.3,3.7,27,3.7,27.8
				c0,0.8,7,5.4,16.3,4.9c17.3-1.1,24-5.6,24-5.6s-0.8-29.7-3.5-44.3c-1.3-7.3-7.2-19.1-7.2-19.1"/>
			<path style="fill:#E6B08D;" d="M507.1-503.2c0,0,2.8,13.8,3.5,16.3c0.7,2.5,4.3,18.1,7.8,17.8c3.4-0.3,22.2-15.9,22.2-15.9
				l-2.7-5.3l-16.5,7.9c0,0-1.5-17.9-2.8-22.1"/>
			<g>
				<path style="fill:#D99574;" d="M513.5-494.7c1.7,6.2,5.3,12.7,6.4,17.5c0.2,1,11.6-3.2,11.7-7.5"/>
			</g>
			<path style="fill:#CF4A47;" d="M518.3-522.4c0,0-5.5,0.6-8.3,2.7c-7.1,5.4-1.6,25.1-1.6,25.1s-0.3,1,4.4,0.8
				c4.8-0.3,8.6-1.6,8.6-1.6l-1.4-16.1"/>
			<path style="fill:#973734;" d="M512-511.3c0,0-0.6,11.6,1.5,17.4c2.1,0,3.9-0.5,3.9-0.5L512-511.3z"/>
			<g>
				<path style="fill:#E6B08D;" d="M544.5-558.7c3.3,4.3,2.6,10.3,1.8,15.6c-0.4,2.7-0.8,5.4-1.2,8.1c-0.2,1.3-0.5,2.7-1.5,3.5
					c-1,0.8-2.4,0.8-3.8,0.8c0,2.2,0,4.5,0,6.7c-3.8,0.1-7.6,0.1-11.5,0c0-1.6-0.3-3.1-1-4.6c-1.9,0-3.1-1.9-3.9-3.6
					c-0.8-2-1.5-4.1-2.1-6.1c-0.8-2.8-1.5-5.5-1.6-8.4c-0.1-2.9,0.6-5.8,2.4-8c1.2-1.5,2.9-2.6,4.7-3.5c2.4-1.2,5.2-2.2,7.7-1.1"/>
			</g>
			<g>
				<path style="fill:#151661;" d="M540.5-538.3c-0.5-2.2-0.4-3.5,0.3-5c0.2-0.5,0.6-1,1-1.3c0.6-0.4,1.4-0.5,2-0.2
					c0.4,0.2,0.8,0.5,1,1c0.8-3,0.9-6.2,0.7-9.4c-0.4-5-3.4-8.8-7.7-10.6c-8.1-3.3-19.7,0-23,7.9c-2.5,6-1.2,14.7,3.5,19.7
					c4.2,4.5,10.3,5.1,15.9,4.2c2.9-0.5,7.3-0.2,8.8-4.1c0.1-0.3-0.1-0.6-0.4-0.6C541.4-536.6,540.6-537.9,540.5-538.3z"/>
			</g>
			<g>
				<path style="fill:#151661;" d="M541.1-548.9c0.3,0.5,0.2,1.1,0.5,1.6c0.5,0.8,1.1,1.1,2,1.5c1.4,0.6,1.1,2.6,1,3.5
					c1-0.7,1.2-2.6,1.5-3.5c0.3-1.1,0.5-2.2,0.8-3.2c0.3-1,0.8-2,0.9-3.1c0.3-3.8-2-8.2-4.9-10.3c-2.1-1.5-5.2-1.5-7.6,0.1
					c-1,0.7-1.7,1.6-2.2,2.8c-0.2,0.5-0.3,1-0.1,1.5"/>
			</g>
			<g>
				<path style="fill:#973734;" d="M522.7-522.3c0.2-1.3,0.5-2.8,1.8-3.4c0.3-0.1,0.7-0.2,1.1-0.2c3.7-0.4,7.5-0.6,11.2-0.5
					c1.6,0,3.2,0.1,4.5,0.8c2.2,1.1,3.4,3.4,4.4,5.6"/>
			</g>
			<g>
				<path style="fill:#CF4A47;" d="M554.3-474.4c-0.5-0.8-1.7-1.7-2.2-2.5c-1-2-1.9-10.6-1.6-12.8c0.4-2.3,2.5-3.6,3.4-8.8
					c1.2-6.7-1.6-12-3.1-14.2c-2.2-3.2-0.9-3.2-1.6-7c-0.1-0.7-0.3-1.4-0.8-1.9c-0.5-0.5-3.7-2-4.4-2.1c-6.1-0.9-9.6-0.2-15.8,0.1
					c-3,0.1-6.1,0.5-9,1.1c-3.3,0.7-6.2,1.6-6.8,6.1c-1,6.9-0.2,13.9,1.9,20.5c1.4,4.3,9.7,19.4,7.7,22.3c-0.5,0.7-1.7,1.9-1.8,2.8
					c-0.5,3,6.3,4.1,9.3,4.4c4.5,0.4,9.6,0.1,14.1-0.1c3.4-0.2,10.8-1.3,11.4-5.6C555.1-473.1,554.7-473.8,554.3-474.4z"/>
			</g>
			<path style="fill:#973734;" d="M553-497.3c0,1.2-0.7,2.9-0.9,3.5c-0.9,0.4-4.2,1.2-6.2,0.3c-0.4-4-2.8-11.8-2.8-11.8
				S553-498.4,553-497.3z"/>
			<g>
				<path style="fill:#151661;" d="M524.7-534.8c-2.3-0.7-4.8,0.7-6.4,2.5c-1.8,2.2-2.6,5.5-0.9,7.7c0.6,0.8,1.5,1.4,2.4,1.9
					c2.8,1.5,6.1,2.5,9.2,1.7c3.1-0.8,5.8-3.5,5.8-6.7c0-2.9-2.1-5.3-4.3-7.2"/>
			</g>
			<g>
				<path style="fill:#E6B08D;" d="M548.7-500.1c0,0,11.2,27.1,16.1,27.1c3.5,0,12.2-25,12.2-25l-5.5-2.6l-6.1,10.5l-6.2-19.5"/>
				<path style="fill:#E6B08D;" d="M570.4-498.7c0,0,1.8-2.9,1.7-4.9c-0.1-0.8-0.5-4.5-0.1-5.2c0.4-0.7,1.3-3.1,1.8-3.6
					c0.5-0.5,2.5-1.2,2.9-0.9c0.5,0.3,1.1-1.2,1.9-1.1c0.8,0.1,1.4,0.8,1.4,1.5c0,0.7,1.1,0.9,1.2,1.4c0.1,0.5,0.1,1,0.3,1.4
					c0.2,0.4,0.8,0.2,1,1.2c0.2,0.9-0.1,1,0,1.4c0.1,0.5,0.5,0.4,0.3,1.3s-0.7,2-1.3,3c-0.5,1-1.6,2.2-3.1,3.1
					c-0.7,0.4-1.1,1.2-1.8,2.5"/>
				<path style="fill:#151661;" d="M573.4-519.6c-0.1-0.2-0.5-0.6-1-0.3c-0.4,0.3-0.3,0.9-0.2,1.1s3.3,7.5,3.3,7.5s0.3,0.3,0.8-0.1
					c0.6-0.5,0.4-0.7,0.4-0.7S573.5-519.4,573.4-519.6z"/>
				<g>
					<path style="fill:#D99574;" d="M576.9-512.7c-0.6,1.1-1.4,1.5-2,2.1c-0.5,0.5-0.5,0.8-1,1.3c1-0.1,0.8-0.7,2.1-1.6
						c0.6-0.4,1.2-0.9,1.3-1.6C577.3-512.8,577-512.9,576.9-512.7L576.9-512.7z"/>
				</g>
			</g>
			<g>
				<path style="fill:#CF4A47;" d="M538.4-524.2c2.9,0.2,11.4-1.3,16.1,3.6c4,4.1,6.2,15,7.8,19.4c-4,4-7.8,7.3-13.8,6
					c-0.2-0.2-3.2-9.5-5.4-10.4"/>
			</g>
			<g>
				<path style="fill:#14093B;" d="M541.6-404.2c-1.1-7.1-7.9-29.2-8.2-29.8c-3.7-2.9-6.2-5.9-7.4-8.3c-0.8,4.8,1.4,9.6,3.4,14.1
					c3.6,7.8,5.8,16.2,8.9,24.2"/>
			</g>
		</g>
		<g>
			<path style="fill:#4E9FD9;" d="M829.6-516.6c-4.8,5.2-8.2,38.4-8.4,39.7c-0.1,1.2-24.5,14.9-24.5,14.9l3.4,3.9
				c0,0,25.9-6.5,30.6-12.2c4-4.8,13.1-43.9,13.1-43.9S837.6-525.2,829.6-516.6z"/>
			<ellipse style="opacity:0.35;fill:#AACFE6;" cx="867.4" cy="-292.5" rx="72.5" ry="5"/>
			<g>
				<path style="fill:#E6B08D;" d="M903.9-318.9c0,0,2,3.8,3,5c1,1.2,5.3-1.5,5.4-2.5c0-1-3.9-7-3.9-7"/>
				<path style="fill:#151661;" d="M914.2-316c0.9,1.3,2.5,4,2.5,4l-3.8,3.5l-1-0.4c0,0-0.6,1.7-1.8,2.8c-0.9,0.8-2.9,2.2-4,2.7
					c-3.8,1.8-7,2-7.4,1.6c-1.8-1.9,3.2-4.3,4.2-4.9c2.7-1.8,3.5-4.9,3.2-6.6c-0.2-1.3-0.6-1.4,0.1-1.6c0,0,0.6-0.2,1.3,0.1
					c1.2,0.6,2.6,0.5,3.5-0.4c0.5-0.5,1-1.1,1.1-1.9C912-317,913.2-317.3,914.2-316z"/>
			</g>
			<g>
				<path style="fill:#E6B08D;" d="M832.6-305.8c0,0-1,2.4-0.8,3.9c0.1,1.5,5.3,1.7,5.9,0.9c0.6-0.8,0.9-7.9,0.9-7.9"/>
				<path style="fill:#151661;" d="M839-299.6c0,1.6-0.5,4.2-0.5,4.2h-5.9l-0.3-0.9c0,0-1.9,0.9-3.4,0.9h-5c-3.7,0-5.7-0.4-5.8-1.1
					c-0.4-2.6,4-2.5,5.1-2.5c3.3,0,6.8-1.5,7.6-3.1c0.6-1.2,0.3-1.4,1-1.2c0,0,0.6,0.1,1,0.8c0.6,1.1,1.8,1.8,3.1,1.6
					c0.7-0.1,1.5-0.4,2-0.9C837.9-301.7,839-301.2,839-299.6z"/>
			</g>
			<path style="fill:#CF4A47;" d="M862.8-413.5c0,0.2-4.8-5.3-4.9-5.1c-1.9,9.6-10.8,41.9-13.8,50.4v0c-0.4,1.2-2.7,3.7-4.6,4.2
				c-4.3,1.1-11.3-0.4-11.8-8.7c-0.1-0.9,0.1-1.9,0-3c-1.2-12.8,11-69.2,11.3-72.8c0.3-3.6,7.4-1,9.4-1.7
				C858.3-453.4,865.4-427,862.8-413.5z"/>
			<path style="fill:#CF4A47;" d="M844.8-363.7c-2-6,1-13,1-13s-17.1-13.1-17.9-5.1c-0.1,0.6-0.7,6.1-0.7,9.1
				c0,11,3.8,45.6,3.5,66.8v1.4c0,0,2.8,0.6,7.9,0.5c0.2,0,0.5,0,0.7,0c1.4-13.2,4.5-31.1,6-49.2
				C845.6-357.6,845.1-362.7,844.8-363.7z"/>
			<path style="fill:#CF4A47;" d="M888.3-366.4c-3.4-4.2-7-6.1-8.1-9.4c-2.5-7.5-1.8-38-2-46.5c0.7-1.7,7.3-19-6.1-31.8
				c0,0-12,5.1-21.6,5.8c-7.6,0.5-11.4-0.3-11.4-0.3s7.1,10.8,7.6,15.6c0.7,8.1,15.9,57.1,17,59.8c2.6,6.1,5.6,8.5,6.5,9.8
				c6.7,8.8,22.5,27.2,34.4,44.8l0.8,1.1c0,0,2.4-0.8,6.9-3.9C905.9-333,899.1-352.9,888.3-366.4z"/>
			<path style="fill:#4E9FD9;" d="M829.6-516.6c2.4-2.7,12.7-7,22.8-6.7c7,0.2,29.3,2.5,31.4,7.2c1.1,2.4,1,25.1-0.6,33.6
				c-1.2,6.4-4.8,22.7-4.8,26.5c0,3.8,2,5.4,1.1,6.5c-2.1,2.5-18.1,3.6-24.9,3.6c-6.1,0-16.5-1.6-17-3.6c-0.8-2.9,1.2-2.8,1.5-5.8
				c0.3-3,1.7-23.1-0.1-26c-2.8-4.6-7.1-17.7-7.4-21.2C831.3-506,827.2-513.8,829.6-516.6z"/>
			<path style="fill:#E6B08D;" d="M846.5-531.9c0,0-0.1,8.5-0.4,8.8c-0.3,0.3-2,1.1-2,1.1s1.2,7.4,3,6.8c1.8-0.5,14-6.7,14-6.7
				s-1.7-0.7-1.7-1.4c0-0.7,1.6-14,1.6-14"/>
			<g>
				<path style="fill:#14093B;" d="M849.7-559.7c-1.5-1.1-3.6-1.2-5.2-0.3c-1.7,0.8-2.9,2.4-3.6,4.1c-0.7,1.6-0.9,3.6,0,5.2
					c-1.2,0.4-2,1.7-2,3c0,1.4,0.8,2.8,1.6,3.9c0.7,1.1,2.2,1.7,3.5,1.5c0.9-0.2,1.7-0.8,2.2-1.6c0.6-0.7,0.9-1.6,1.3-2.5
					c1.6-4,2.6-8.2,3.4-12.4"/>
			</g>
			<path style="fill:#E6B08D;" d="M854.9-562.6c-1.8,0.5-6.4-0.5-7.7,1.5c-1.3,1.9-2.4,6.6-2.9,7.9c-1,2.6-1.6,5.3-2.3,8
				c-0.9,3.4-3.3,9.9,0.1,12.8c1,0.8,2.2,0.9,3.4,1.1c1.6,0.3,3.2,0.6,4.8,0.9c2.5,0.4,5.2,1,7.7,0.2c3.3-1.1,5.1-5.6,5.9-8.6
				l4.8-17.6L854.9-562.6z"/>
			<g>
				<path style="fill:#E6B08D;" d="M862.2-537.2c0,0-0.1,0.8,0.5,1.4c0.5,0.5,1.4,0.3,1.9,0c1.7-0.8,2.6-2.6,2.8-4.3
					c0.1-2.1-1.2-4-3-3.2c-1.1,0.4-1.6,1.8-1.5,2.9"/>
			</g>
			<g>
				<path style="fill:#151661;" d="M866.6-546.8c-0.6,1.7-2.1,5.7-3.7,5.3c-1.6-0.4,0.6-6.6,2-9.1c-2,0-4.5-0.3-5.2-2.2
					c-0.2-0.4-0.3-1-0.7-1.1c-0.4-0.1-0.7,0.2-1,0.4c-1.4,0.9-3.3,0-4.4-1.2c-0.3-0.3-0.6-0.6-0.9-0.6c-0.2,0-0.4,0.2-0.6,0.3
					c-2.3,1.6-8.4,1.6-8.4-1.3c-2,1-3.3-1.5-3.2-3.2c0.1-1.7,1.4-4.6,4.2-4.5c-0.1-2.1,1.5-3.4,3.2-4.7c1.7-1.3,3.8-1.8,5.9-1.9
					c3.3-0.2,7.1,1.2,8.2,4.3c0.1,0.2,0.2,0.5,0.4,0.6c0.2,0.1,0.5,0.1,0.8,0c2.5-0.7,5.4-0.3,7.4,1.5c1.9,1.7,2.6,4.9,1.1,7.1
					c1.9,0.5,3,2.8,2.7,4.7c-0.3,2-1.6,3.6-2.9,5.1c2.1,0.7,2.9,3.6,1.9,5.5c-1.1,1.9-3.8,3-6,2.7c0.5-2-0.4-4.3-2.3-4.6"/>
			</g>
			<path style="fill:#151661;" d="M846.6-513.1c0,0-0.7,31.1-1.9,50.1l4.6,6.3l3.1-7.9c0,0,1.3-22.8-3-48.3L846.6-513.1z"/>
			<path style="fill:#14093B;" d="M845.6-515.9l0.1,0.4c0.2,0.8,0.5,1.6,0.9,2.3l0,0l2.8,0.2c0,0,1.9-1,2.2-2.1
				c0.3-1.1-3.1-2.8-3.1-2.8l-0.4,0.2C847.1-517.3,846.2-516.7,845.6-515.9L845.6-515.9z"/>
			<path style="fill:#D1D1D1;" d="M859.7-526.2c0,0,2.4,1.7,3.8,3.9c-1.4,3.3-5.7,8.9-9.3,11.6c-1.7-4.5-5.7-7.1-5.7-7.1
				S858.7-519.9,859.7-526.2z"/>
			<path style="fill:#D1D1D1;" d="M848.4-517.8c0,0-3.5,1.4-5.6,5.3c0,0-0.7-5.3,0.8-9.9c0,0,1.9-3.2,2.7-3.2
				C846-521.9,848.4-517.8,848.4-517.8z"/>
			<path style="fill:#973734;" d="M844.8-363.7c-0.5-1.4-0.7-2.9-0.7-4.3c0-0.1,0.1-0.2,0.1-0.2v0c2-5.7,6.7-22.1,10.1-35.2l-5.3-19
				c0,0-3.2,38.6-4.3,41.4c-1.1,2.8-4.3,11.7-4,13.6c0.3,1.9,2.4,5.4,2.1,8.5c-0.3,3-0.3,30.3-0.3,30.5c1.1-7.9,2.1-16.2,2.8-24.6
				C845.6-357.6,845.1-362.7,844.8-363.7z"/>
			<g>
				<circle style="fill:none;stroke:#2E4554;stroke-width:5.282;stroke-miterlimit:10;" cx="746.6" cy="-519.5" r="38.4"/>
				
					<line style="fill:none;stroke:#2E4554;stroke-width:5.282;stroke-linecap:round;stroke-linejoin:round;stroke-miterlimit:10;" x1="772.7" y1="-489.7" x2="829.9" y2="-420.6"/>
			</g>
			<g>
				<g>
					<path style="fill:#E6B08D;" d="M825.7-446.2c0,0-3.2,1-4.8,1.5c-1.1,0.3-6.1-0.2-9.1,0.4c-1.4,0.3-2.9,0.8-3.9,2
						c-0.9,1.1-1,3.1,0.2,3.9c0.3,0.2,0.8,0.4,0.9,0.9c0,0.2-0.1,0.4-0.1,0.6c-0.2,0.6,0,1.4,0.5,1.8c0.5,0.4,1.3,0.5,1.8,0.1
						c0,1.4,1.2,2.6,2.6,2.6c-0.1-0.7,0.2-1.6,0.8-2c0.6-0.4,1.4-0.4,2.1-0.4c1.3-0.1,2.5-0.7,3.4-1.6c0.6-0.6,1.1-1.4,1.7-2.1
						c1.2-1.4,2.9-2.4,4.7-2.8"/>
				</g>
				<path style="opacity:0.45;fill:#5091C9;" d="M883.8-516.1c-0.1-0.2-0.2-0.4-0.4-0.6l-14.7,14.4c-3.5,9.3-10.5,33.8-10.5,33.8
					s-6.6,3.1-11,5.4c-1.1,0.6-4.3,2.7-8.1,5.3c-0.1,1.1-0.1,2-0.2,2.5c-0.3,3-0.7,3,0.1,5.9c0,1.9-0.7,4.8-1.2,7.7
					c11-2.8,33.8-10,34.7-10.4c1.3-0.7,8-27.7,11.9-44C885-506.1,884.6-514.3,883.8-516.1z"/>
				<path style="fill:#4E9FD9;" d="M868.7-503.8c-1.4,3.9-8.6,38.1-8.6,38.1s-7.1,1.8-11.5,4.1c-3.4,1.8-27.4,16.7-27.4,16.7
					l2.4,5.6c0,0,42.7-15.1,44.5-16.1c1.9-1,19-44.2,19-52c0-4.5-3.7-9.2-3.7-9.2"/>
			</g>
			<g>
				<path style="fill:#E6B08D;" d="M795.4-454.7c-1.4,0.2-2.8-0.9-3.1-2.2c-0.1-0.3-0.1-0.6-0.2-0.8c-0.3-0.4-0.8-0.5-1.3-0.6
					c-1.8-0.5-2.9-2.3-3.4-4.2c-0.2-1-0.3-2,0-3c0.3-1,1-1.8,2-2.1c0.2-0.1,0.4-0.1,0.6,0c0.2,0.1,0.3,0.2,0.4,0.4
					c0.6,0.7,1,1.6,1.2,2.5c0.2,0.6,0.3,1.4,0.9,1.8c0.4,0.3,0.8,0.3,1.2,0.5c0.8,0.4,1.2,1.3,1.5,2.2
					C795.7-459,795.1-456.1,795.4-454.7"/>
			</g>
			<g>
				<path style="fill:#E6B08D;" d="M800.5-463.6c0.3-1-0.2-2.3-0.9-3.1c-0.7-0.8-1.7-1.3-2.7-1.7c-0.3-0.1-0.6-0.2-0.8,0.1
					c-0.1,0.2,0,0.4,0.1,0.6c0.4,0.6,1.2,0.9,1.6,1.6c0.2,0.2,0.2,0.5,0.4,0.8C798.6-464.5,799.5-463.8,800.5-463.6"/>
			</g>
			<path style="opacity:0.45;fill:#5091C9;" d="M836.7-486.3c0,0-4-10-4.8-14.1c-1.9,9.8-1.3,27-2.9,28.5
				c-1.6,1.5-17.9,10.7-17.9,10.7l0,0c7.7-2.4,17.1-5.9,19.7-9.1C832.3-472,834.5-478.7,836.7-486.3L836.7-486.3z"/>
			<path style="fill:#D99574;" d="M846.4-531.2c0,0,6.9,1.5,8.1,1.3c1.2-0.2-2.6,2.1-3.4,2.2c-0.7,0.1-4.7-0.5-4.7-0.5V-531.2z"/>
		</g>
	</g>
</g>
<g id="Layer_3">
	<rect x="-49.3" y="-968.7" style="fill:#343A40;" width="1079.9" height="114.9"/>
	<rect x="-4.8" y="-637.4" style="fill:none;" width="370.9" height="65.9"/>
	<text transform="matrix(1 0 0 1 -4.7996 -624.276)"><tspan x="0" y="0" style="fill:#5B656D; font-family:'Roboto-Regular'; font-size:17.232px;">Todo helps people feel more in control of their </tspan><tspan x="0" y="24.4" style="fill:#5B656D; font-family:'Roboto-Regular'; font-size:17.232px;">lives , so you can get it all done and enjoy more </tspan><tspan x="0" y="48.7" style="fill:#5B656D; font-family:'Roboto-Regular'; font-size:17.232px;">peace of mind along the way.</tspan></text>
	<path style="fill:#343A40;" d="M123.7-508.1H9.6c-10.7,0-19.4-8.7-19.4-19.4l0,0c0-10.7,8.7-19.4,19.4-19.4h114.1
		c10.7,0,19.4,8.7,19.4,19.4v0C143.2-516.8,134.5-508.1,123.7-508.1z"/>
	
		<text transform="matrix(1 0 0 1 35.8972 -522.733)" style="fill:#FFFFFF; font-family:'Roboto-Bold'; font-size:12.924px; letter-spacing:2;">SignUp</text>
	<text transform="matrix(1 0 0 1 -6.6746 -708.7902)"><tspan x="0" y="0" style="font-family:'Roboto-Medium'; font-size:33.8765px;">Organize life</tspan><tspan x="0" y="41.4" style="fill:#CF4A47; font-family:'Roboto-Bold'; font-size:34.464px;">Then go enjoy it</tspan></text>
	<text transform="matrix(1 0 0 1 5.5315 -894.752)" style="fill:#E9ECF0; font-family:'Roboto-Bold'; font-size:34.464px;">ToDo</text>
	<text transform="matrix(1 0 0 1 862.5839 -899.0599)" style="fill:#E9ECF0; font-family:'Roboto-Regular'; font-size:22.976px;">Dashboard</text>
</g>
</svg>
