<?xml version="1.0" encoding="utf-8"?>
<!-- Generator: Adobe Illustrator 19.0.0, SVG Export Plug-In . SVG Version: 6.00 Build 0)  -->
<svg version="1.1" id="Layer_1" xmlns="http://www.w3.org/2000/svg" xmlns:xlink="http://www.w3.org/1999/xlink" x="0px" y="0px"
	 viewBox="0 0 273.3 404.3" style="enable-background:new 0 0 273.3 404.3;" xml:space="preserve">
<style type="text/css">
	.st0{fill:#D1CFD5;}
	.st1{fill:#CF4A47;}
	.st2{fill:#973734;}
	.st3{fill:#343A40;}
	.st4{fill:#B0CEE5;}
	.st5{fill:#FFFFFF;}
	.st6{fill:#084396;}
</style>
<g>
	<ellipse id="XMLID_81_" class="st0" cx="136.6" cy="397.1" rx="135.9" ry="5.7"/>
	<path class="st1" d="M139.2,1.5c-7.5,0-13.6,6.1-13.6,13.6v17.5h27.3c0,0,0-13.9,0-17.5C152.9,7.6,146.7,1.5,139.2,1.5z M139.2,23
		c-4.2,0-7.7-3.4-7.7-7.7s3.4-7.7,7.7-7.7c4.2,0,7.7,3.4,7.7,7.7S143.4,23,139.2,23z"/>
	<path class="st2" d="M146.9,15.4c0-4.2-3.4-7.7-7.7-7.7c-0.4,0-0.8,0.1-1.1,0.1c1.1-0.4,1.2-0.7,3.1-0.7c4.2,0,7.7,3.4,7.7,7.7
		c0,3.8-2,5.9-4.9,6.7C145.6,20,146.9,17.7,146.9,15.4z M129.7,30.9V13.4c0-4.7,2.1-8.9,5.7-11.4c-5.7,1.6-9.9,6.9-9.9,13.1v17.5
		h27.3c0,0,0-0.7,0-1.7H129.7z"/>
	<path id="XMLID_76_" class="st3" d="M255.4,397.1H17.8c-5.4,0-9.7-4.4-9.7-9.7v-344c0-5.4,4.4-9.7,9.7-9.7h237.6
		c5.4,0,9.7,4.4,9.7,9.7v344C265.2,392.7,260.8,397.1,255.4,397.1z"/>
	<rect id="XMLID_75_" x="23" y="47.8" class="st4" width="227.3" height="335"/>
	<rect id="XMLID_74_" x="31.7" y="58.1" class="st5" width="209.8" height="314.5"/>
	<path id="XMLID_73_" class="st1" d="M219.3,53.3H53.9V37c0-3.9,3.1-7,7-7h151.3c3.9,0,7,3.1,7,7V53.3z"/>
	<path id="XMLID_72_" class="st2" d="M60.3,49.8v-9.9c0-3.8,1.6-7.2,4.1-9.6c-6,1.3-10.5,6.7-10.5,13.1v9.9h165.4v-3.4H60.3z"/>
	<polygon id="XMLID_71_" class="st6" points="117.5,76.5 118.8,79.1 121.7,79.5 119.6,81.6 120.1,84.5 117.5,83.1 114.9,84.5 
		115.4,81.6 113.3,79.5 116.2,79.1 	"/>
	<polygon id="XMLID_70_" class="st6" points="130.3,76.5 131.6,79.1 134.5,79.5 132.4,81.6 132.9,84.5 130.3,83.1 127.6,84.5 
		128.1,81.6 126,79.5 128.9,79.1 	"/>
	<polygon id="XMLID_69_" class="st6" points="143,76.5 144.3,79.1 147.2,79.5 145.1,81.6 145.6,84.5 143,83.1 140.4,84.5 
		140.9,81.6 138.8,79.5 141.7,79.1 	"/>
	<polygon id="XMLID_68_" class="st6" points="155.8,76.5 157.1,79.1 160,79.5 157.9,81.6 158.4,84.5 155.8,83.1 153.2,84.5 
		153.7,81.6 151.5,79.5 154.5,79.1 	"/>
	<polygon id="XMLID_67_" class="st6" points="168.5,76.5 169.8,79.1 172.8,79.5 170.6,81.6 171.1,84.5 168.5,83.1 165.9,84.5 
		166.4,81.6 164.3,79.5 167.2,79.1 	"/>
	<path id="XMLID_66_" class="st6" d="M141.8,92.6h-27.1c-0.6,0-1.1-0.5-1.1-1.1s0.5-1.1,1.1-1.1h27.1c0.6,0,1.1,0.5,1.1,1.1
		S142.4,92.6,141.8,92.6z"/>
	<path id="XMLID_65_" class="st6" d="M223.4,103.4h-20.6c-0.6,0-1.1-0.5-1.1-1.1s0.5-1.1,1.1-1.1h20.6c0.6,0,1.1,0.5,1.1,1.1
		S224,103.4,223.4,103.4z"/>
	<path id="XMLID_64_" class="st6" d="M193.8,103.4h-79.1c-0.6,0-1.1-0.5-1.1-1.1s0.5-1.1,1.1-1.1h79.1c0.6,0,1.1,0.5,1.1,1.1
		S194.4,103.4,193.8,103.4z"/>
	<path id="XMLID_63_" class="st6" d="M223.4,114.3H114.7c-0.6,0-1.1-0.5-1.1-1.1s0.5-1.1,1.1-1.1h108.7c0.6,0,1.1,0.5,1.1,1.1
		S224,114.3,223.4,114.3z"/>
	<path id="XMLID_62_" class="st6" d="M223.4,125.2h-34.6c-0.6,0-1.1-0.5-1.1-1.1s0.5-1.1,1.1-1.1h34.6c0.6,0,1.1,0.5,1.1,1.1
		S224,125.2,223.4,125.2z"/>
	<path id="XMLID_61_" class="st6" d="M180.2,125.2h-65.6c-0.6,0-1.1-0.5-1.1-1.1s0.5-1.1,1.1-1.1h65.6c0.6,0,1.1,0.5,1.1,1.1
		S180.8,125.2,180.2,125.2z"/>
	<path id="XMLID_60_" class="st6" d="M223.4,92.6h-72.7c-0.6,0-1.1-0.5-1.1-1.1s0.5-1.1,1.1-1.1h72.7c0.6,0,1.1,0.5,1.1,1.1
		S224,92.6,223.4,92.6z"/>
	<polygon id="XMLID_59_" class="st6" points="117.5,152.6 118.8,155.3 121.7,155.7 119.6,157.8 120.1,160.7 117.5,159.3 
		114.9,160.7 115.4,157.8 113.3,155.7 116.2,155.3 	"/>
	<polygon id="XMLID_58_" class="st6" points="130.3,152.6 131.6,155.3 134.5,155.7 132.4,157.8 132.9,160.7 130.3,159.3 
		127.6,160.7 128.1,157.8 126,155.7 128.9,155.3 	"/>
	<polygon id="XMLID_57_" class="st6" points="143,152.6 144.3,155.3 147.2,155.7 145.1,157.8 145.6,160.7 143,159.3 140.4,160.7 
		140.9,157.8 138.8,155.7 141.7,155.3 	"/>
	<polygon id="XMLID_56_" class="st6" points="155.8,152.6 157.1,155.3 160,155.7 157.9,157.8 158.4,160.7 155.8,159.3 153.2,160.7 
		153.7,157.8 151.5,155.7 154.5,155.3 	"/>
	<polygon id="XMLID_55_" class="st6" points="168.5,152.6 169.8,155.3 172.8,155.7 170.6,157.8 171.1,160.7 168.5,159.3 
		165.9,160.7 166.4,157.8 164.3,155.7 167.2,155.3 	"/>
	<path id="XMLID_54_" class="st6" d="M163,168.7h-48.3c-0.6,0-1.1-0.5-1.1-1.1s0.5-1.1,1.1-1.1H163c0.6,0,1.1,0.5,1.1,1.1
		S163.5,168.7,163,168.7z"/>
	<path id="XMLID_53_" class="st6" d="M223.4,179.6h-80.1c-0.6,0-1.1-0.5-1.1-1.1s0.5-1.1,1.1-1.1h80.1c0.6,0,1.1,0.5,1.1,1.1
		S224,179.6,223.4,179.6z"/>
	<path id="XMLID_52_" class="st6" d="M134.3,179.6h-19.6c-0.6,0-1.1-0.5-1.1-1.1s0.5-1.1,1.1-1.1h19.6c0.6,0,1.1,0.5,1.1,1.1
		S134.9,179.6,134.3,179.6z"/>
	<path id="XMLID_51_" class="st6" d="M223.4,190.5H114.7c-0.6,0-1.1-0.5-1.1-1.1s0.5-1.1,1.1-1.1h108.7c0.6,0,1.1,0.5,1.1,1.1
		S224,190.5,223.4,190.5z"/>
	<path id="XMLID_50_" class="st6" d="M223.4,201.3h-22.3c-0.6,0-1.1-0.5-1.1-1.1s0.5-1.1,1.1-1.1h22.3c0.6,0,1.1,0.5,1.1,1.1
		S224,201.3,223.4,201.3z"/>
	<path id="XMLID_49_" class="st6" d="M192.5,201.3h-77.8c-0.6,0-1.1-0.5-1.1-1.1s0.5-1.1,1.1-1.1h77.8c0.6,0,1.1,0.5,1.1,1.1
		S193.1,201.3,192.5,201.3z"/>
	<path id="XMLID_48_" class="st6" d="M223.4,168.7h-51.5c-0.6,0-1.1-0.5-1.1-1.1s0.5-1.1,1.1-1.1h51.5c0.6,0,1.1,0.5,1.1,1.1
		S224,168.7,223.4,168.7z"/>
	<polygon id="XMLID_47_" class="st6" points="117.5,228.8 118.8,231.5 121.7,231.9 119.6,234 120.1,236.9 117.5,235.5 114.9,236.9 
		115.4,234 113.3,231.9 116.2,231.5 	"/>
	<polygon id="XMLID_46_" class="st6" points="130.3,228.8 131.6,231.5 134.5,231.9 132.4,234 132.9,236.9 130.3,235.5 127.6,236.9 
		128.1,234 126,231.9 128.9,231.5 	"/>
	<polygon id="XMLID_45_" class="st6" points="143,228.8 144.3,231.5 147.2,231.9 145.1,234 145.6,236.9 143,235.5 140.4,236.9 
		140.9,234 138.8,231.9 141.7,231.5 	"/>
	<polygon id="XMLID_44_" class="st6" points="155.8,228.8 157.1,231.5 160,231.9 157.9,234 158.4,236.9 155.8,235.5 153.2,236.9 
		153.7,234 151.5,231.9 154.5,231.5 	"/>
	<polygon id="XMLID_43_" class="st6" points="168.5,228.8 169.8,231.5 172.8,231.9 170.6,234 171.1,236.9 168.5,235.5 165.9,236.9 
		166.4,234 164.3,231.9 167.2,231.5 	"/>
	<path id="XMLID_42_" class="st6" d="M141.8,244.9h-27.1c-0.6,0-1.1-0.5-1.1-1.1s0.5-1.1,1.1-1.1h27.1c0.6,0,1.1,0.5,1.1,1.1
		S142.4,244.9,141.8,244.9z"/>
	<path id="XMLID_41_" class="st6" d="M223.4,255.8h-58.9c-0.6,0-1.1-0.5-1.1-1.1s0.5-1.1,1.1-1.1h58.9c0.6,0,1.1,0.5,1.1,1.1
		S224,255.8,223.4,255.8z"/>
	<path id="XMLID_40_" class="st6" d="M155.5,255.8h-40.9c-0.6,0-1.1-0.5-1.1-1.1s0.5-1.1,1.1-1.1h40.9c0.6,0,1.1,0.5,1.1,1.1
		S156.1,255.8,155.5,255.8z"/>
	<path id="XMLID_39_" class="st6" d="M223.4,266.7H114.7c-0.6,0-1.1-0.5-1.1-1.1s0.5-1.1,1.1-1.1h108.7c0.6,0,1.1,0.5,1.1,1.1
		S224,266.7,223.4,266.7z"/>
	<path id="XMLID_38_" class="st6" d="M223.4,277.5h-84c-0.6,0-1.1-0.5-1.1-1.1s0.5-1.1,1.1-1.1h84c0.6,0,1.1,0.5,1.1,1.1
		S224,277.5,223.4,277.5z"/>
	<path id="XMLID_37_" class="st6" d="M130.8,277.5h-16.1c-0.6,0-1.1-0.5-1.1-1.1s0.5-1.1,1.1-1.1h16.1c0.6,0,1.1,0.5,1.1,1.1
		S131.4,277.5,130.8,277.5z"/>
	<path id="XMLID_36_" class="st6" d="M223.4,244.9h-72.7c-0.6,0-1.1-0.5-1.1-1.1s0.5-1.1,1.1-1.1h72.7c0.6,0,1.1,0.5,1.1,1.1
		S224,244.9,223.4,244.9z"/>
	<polygon id="XMLID_35_" class="st6" points="117.5,305 118.8,307.7 121.7,308.1 119.6,310.2 120.1,313.1 117.5,311.7 114.9,313.1 
		115.4,310.2 113.3,308.1 116.2,307.7 	"/>
	<polygon id="XMLID_34_" class="st6" points="130.3,305 131.6,307.7 134.5,308.1 132.4,310.2 132.9,313.1 130.3,311.7 127.6,313.1 
		128.1,310.2 126,308.1 128.9,307.7 	"/>
	<polygon id="XMLID_33_" class="st6" points="143,305 144.3,307.7 147.2,308.1 145.1,310.2 145.6,313.1 143,311.7 140.4,313.1 
		140.9,310.2 138.8,308.1 141.7,307.7 	"/>
	<polygon id="XMLID_32_" class="st6" points="155.8,305 157.1,307.7 160,308.1 157.9,310.2 158.4,313.1 155.8,311.7 153.2,313.1 
		153.7,310.2 151.5,308.1 154.5,307.7 	"/>
	<polygon id="XMLID_31_" class="st6" points="168.5,305 169.8,307.7 172.8,308.1 170.6,310.2 171.1,313.1 168.5,311.7 165.9,313.1 
		166.4,310.2 164.3,308.1 167.2,307.7 	"/>
	<path id="XMLID_30_" class="st6" d="M223.4,353.7h-27.1c-0.6,0-1.1-0.5-1.1-1.1s0.5-1.1,1.1-1.1h27.1c0.6,0,1.1,0.5,1.1,1.1
		S224,353.7,223.4,353.7z"/>
	<path id="XMLID_29_" class="st6" d="M135.3,342.9h-20.6c-0.6,0-1.1-0.5-1.1-1.1s0.5-1.1,1.1-1.1h20.6c0.6,0,1.1,0.5,1.1,1.1
		S135.9,342.9,135.3,342.9z"/>
	<path id="XMLID_28_" class="st6" d="M223.4,342.9h-79.1c-0.6,0-1.1-0.5-1.1-1.1s0.5-1.1,1.1-1.1h79.1c0.6,0,1.1,0.5,1.1,1.1
		S224,342.9,223.4,342.9z"/>
	<path id="XMLID_27_" class="st6" d="M223.4,332H114.7c-0.6,0-1.1-0.5-1.1-1.1s0.5-1.1,1.1-1.1h108.7c0.6,0,1.1,0.5,1.1,1.1
		S224,332,223.4,332z"/>
	<path id="XMLID_26_" class="st6" d="M149.2,321.1h-34.6c-0.6,0-1.1-0.5-1.1-1.1s0.5-1.1,1.1-1.1h34.6c0.6,0,1.1,0.5,1.1,1.1
		S149.8,321.1,149.2,321.1z"/>
	<path id="XMLID_25_" class="st6" d="M223.4,321.1h-65.6c-0.6,0-1.1-0.5-1.1-1.1s0.5-1.1,1.1-1.1h65.6c0.6,0,1.1,0.5,1.1,1.1
		S224,321.1,223.4,321.1z"/>
	<path id="XMLID_24_" class="st6" d="M187.3,353.7h-72.7c-0.6,0-1.1-0.5-1.1-1.1s0.5-1.1,1.1-1.1h72.7c0.6,0,1.1,0.5,1.1,1.1
		S187.9,353.7,187.3,353.7z"/>
	<path class="st6" d="M76.6,123.1H65.7c-9.5,0-17.3-7.8-17.3-17.3V94.8c0-9.5,7.8-17.3,17.3-17.3h10.9c9.5,0,17.3,7.8,17.3,17.3
		v10.9C93.9,115.3,86.2,123.1,76.6,123.1z M65.7,80.5c-7.9,0-14.3,6.4-14.3,14.3v10.9c0,7.9,6.4,14.3,14.3,14.3h10.9
		c7.9,0,14.3-6.4,14.3-14.3V94.8c0-7.9-6.4-14.3-14.3-14.3H65.7z"/>
	<path class="st6" d="M97.7,91.5l-16,16l-3,3c-0.4,0.4-1,0.6-1.5,0.6c-0.6,0-1.1-0.2-1.5-0.6l-3-3l-8-8c-0.4-0.4-0.6-1-0.6-1.5
		s0.2-1.1,0.6-1.5l3-3c0.4-0.4,1-0.6,1.5-0.6c0.6,0,1.1,0.2,1.5,0.6l6.5,6.5l14.5-14.6c0.4-0.4,1-0.6,1.5-0.6c0.6,0,1.1,0.2,1.5,0.6
		l3,3c0.4,0.4,0.6,1,0.6,1.5C98.3,90.6,98.1,91.1,97.7,91.5z"/>
	<path class="st6" d="M76.6,199.3H65.7c-9.5,0-17.3-7.8-17.3-17.3V171c0-9.5,7.8-17.3,17.3-17.3h10.9c9.5,0,17.3,7.8,17.3,17.3v10.9
		C93.9,191.5,86.2,199.3,76.6,199.3z M65.7,156.7c-7.9,0-14.3,6.4-14.3,14.3v10.9c0,7.9,6.4,14.3,14.3,14.3h10.9
		c7.9,0,14.3-6.4,14.3-14.3V171c0-7.9-6.4-14.3-14.3-14.3H65.7z"/>
	<path class="st6" d="M76.6,275.4H65.7c-9.5,0-17.3-7.8-17.3-17.3v-10.9c0-9.5,7.8-17.3,17.3-17.3h10.9c9.5,0,17.3,7.8,17.3,17.3
		v10.9C93.9,267.7,86.2,275.4,76.6,275.4z M65.7,232.9c-7.9,0-14.3,6.4-14.3,14.3v10.9c0,7.9,6.4,14.3,14.3,14.3h10.9
		c7.9,0,14.3-6.4,14.3-14.3v-10.9c0-7.9-6.4-14.3-14.3-14.3H65.7z"/>
	<path class="st6" d="M97.7,243.9l-16,16l-3,3c-0.4,0.4-1,0.6-1.5,0.6c-0.6,0-1.1-0.2-1.5-0.6l-3-3l-8-8c-0.4-0.4-0.6-1-0.6-1.5
		s0.2-1.1,0.6-1.5l3-3c0.4-0.4,1-0.6,1.5-0.6c0.6,0,1.1,0.2,1.5,0.6l6.5,6.5l14.5-14.6c0.4-0.4,1-0.6,1.5-0.6c0.6,0,1.1,0.2,1.5,0.6
		l3,3c0.4,0.4,0.6,1,0.6,1.5S98.1,243.5,97.7,243.9z"/>
	<path class="st6" d="M76.6,351.6H65.7c-9.5,0-17.3-7.8-17.3-17.3v-10.9c0-9.5,7.8-17.3,17.3-17.3h10.9c9.5,0,17.3,7.8,17.3,17.3
		v10.9C93.9,343.9,86.2,351.6,76.6,351.6z M65.7,309.1c-7.9,0-14.3,6.4-14.3,14.3v10.9c0,7.9,6.4,14.3,14.3,14.3h10.9
		c7.9,0,14.3-6.4,14.3-14.3v-10.9c0-7.9-6.4-14.3-14.3-14.3H65.7z"/>
</g>
<g id="XMLID_82_">
</g>
<g id="XMLID_83_">
</g>
<g id="XMLID_84_">
</g>
<g id="XMLID_85_">
</g>
<g id="XMLID_86_">
</g>
<g id="XMLID_87_">
</g>
<g id="XMLID_88_">
</g>
<g id="XMLID_89_">
</g>
<g id="XMLID_90_">
</g>
<g id="XMLID_91_">
</g>
<g id="XMLID_92_">
</g>
<g id="XMLID_93_">
</g>
<g id="XMLID_94_">
</g>
<g id="XMLID_95_">
</g>
<g id="XMLID_96_">
</g>
</svg>
