<?xml version="1.0" encoding="utf-8"?>
<!-- Generator: Adobe Illustrator 19.0.0, SVG Export Plug-In . SVG Version: 6.00 Build 0)  -->
<svg version="1.1" id="Layer_1" xmlns="http://www.w3.org/2000/svg" xmlns:xlink="http://www.w3.org/1999/xlink" x="0px" y="0px"
	 viewBox="0 0 557.8 303.5" style="enable-background:new 0 0 557.8 303.5;" xml:space="preserve">
<style type="text/css">
	.st0{opacity:0.3;fill:#3E4D59;}
	.st1{opacity:0.35;fill:#AACFE6;}
	.st2{fill:#E6B08D;}
	.st3{fill:#14093B;}
	.st4{fill:#D99574;}
	.st5{fill:#E6BB9F;}
	.st6{fill:#CF4A47;}
	.st7{fill:#3668B3;}
	.st8{fill:#4E9FD9;}
	.st9{opacity:0.45;fill:#5091C9;}
	.st10{fill:#151661;}
	.st11{fill:#D1D1D1;}
	.st12{fill:#E57174;}
	.st13{fill:#CEDCE6;}
	.st14{fill:none;stroke:#90B3D7;stroke-width:0.5282;stroke-linecap:round;stroke-linejoin:round;stroke-miterlimit:10;}
	.st15{fill:#2158AB;}
	.st16{fill:#973734;}
	.st17{fill:none;stroke:#2E4554;stroke-width:5.282;stroke-miterlimit:10;}
	.st18{fill:none;stroke:#2E4554;stroke-width:5.282;stroke-linecap:round;stroke-linejoin:round;stroke-miterlimit:10;}
</style>
<g id="people">
	<path class="st0" d="M329.9,107.4c7.3,5.1,15.9,7.8,24.7,7.8c2.5,0,5.1-0.2,7.6-0.7c6.2-1.1,12-3.5,17-7l16.1,19.4
		c0,0.7,0,1.3,0.2,2c0.4,1.8,1.6,3.6,3.4,4.2c0.5,0.1,1,0.2,1.3,0.6c0.1,0.2,0.2,0.5,0.2,0.8c0.3,1.4,1.7,2.4,3.1,2.2c0,0,0,0,0,0
		l11.9,14.4c0,0.7,0.3,1.5,0.9,1.9c0.3,0.2,0.8,0.4,0.9,0.9c0,0.2-0.1,0.4-0.1,0.6c-0.2,0.6,0,1.4,0.5,1.8c0.5,0.4,1.3,0.5,1.8,0.1
		c0,1.3,1.2,2.6,2.5,2.6l12.3,14.9c0.9,1.1,2.3,1.7,3.7,1.7c0.2,0,0.3,0,0.5,0v-11.7l-8.8-10.6c0.1-0.1,0.2-0.2,0.3-0.4
		c0.5-0.5,1-1,1.6-1.4l0.2,0.5c0,0,2.7-0.9,6.7-2.4v-8.9c-5,3.1-9.1,5.6-9.1,5.6l0.1,0.1c-0.1,0-0.2,0.1-0.3,0.1
		c-0.6,0.2-2.6,0.1-4.8,0.1l-12-14.5c2.2-0.6,5.2-1.5,8.3-2.5c0.1,0,0.1,0,0.2-0.1c0.4-0.1,0.8-0.3,1.2-0.4c0.1,0,0.3-0.1,0.4-0.1
		c0.3-0.1,0.7-0.2,1-0.3c0.2-0.1,0.3-0.1,0.5-0.2c0.3-0.1,0.6-0.2,0.9-0.3c0.2-0.1,0.4-0.1,0.5-0.2c0.3-0.1,0.6-0.2,0.9-0.3
		c0.2-0.1,0.4-0.1,0.5-0.2c0.3-0.1,0.6-0.2,0.9-0.3c0.2-0.1,0.3-0.1,0.5-0.2c0.3-0.1,0.6-0.2,0.9-0.4c0.1-0.1,0.3-0.1,0.4-0.2
		c0.4-0.2,0.8-0.3,1.2-0.5c0,0,0.1,0,0.1-0.1c0.4-0.2,0.9-0.4,1.3-0.6c0.1-0.1,0.2-0.1,0.3-0.2c0.3-0.1,0.6-0.3,0.9-0.4
		c0.1-0.1,0.3-0.1,0.4-0.2c0.2-0.1,0.5-0.2,0.7-0.4c0.1-0.1,0.3-0.2,0.4-0.2c0.2-0.1,0.4-0.2,0.6-0.3c0.1-0.1,0.3-0.2,0.4-0.2
		c0.2-0.1,0.4-0.2,0.5-0.3c0.1-0.1,0.2-0.2,0.4-0.2c0.2-0.1,0.3-0.2,0.5-0.4c0.1-0.1,0.2-0.1,0.3-0.2c0.2-0.1,0.3-0.3,0.5-0.4
		c0.1-0.1,0.1-0.1,0.2-0.2c0,0,0-0.1,0.1-0.1V74.1c-0.2,0.2-0.5,0.4-0.7,0.7c-4.8,5.2-8.2,38.4-8.4,39.7
		c-0.1,0.9-13.8,8.9-20.7,12.8c0-0.9-0.4-1.9-1-2.6c-0.7-0.8-1.7-1.3-2.7-1.7c-0.1,0-0.3-0.1-0.4-0.1l-18.1-21.8
		c1.3-1.4,2.5-2.9,3.6-4.4c6.6-9.5,9.1-20.9,7.1-32.3c-2-11.4-8.3-21.3-17.8-27.9c-9.5-6.6-20.9-9.1-32.3-7.1
		c-11.4,2-21.3,8.3-27.9,17.8C305.5,66.7,310.3,93.7,329.9,107.4z M327.1,52.7c5.1-7.4,12.8-12.3,21.7-13.8c2-0.4,4-0.5,5.9-0.5
		c6.8,0,13.5,2.1,19.2,6.1c7.4,5.1,12.3,12.8,13.8,21.7c1.6,8.8-0.4,17.8-5.5,25.1c-5.1,7.4-12.8,12.3-21.7,13.8
		c-8.8,1.6-17.8-0.4-25.1-5.5C320.2,88.9,316.5,67.9,327.1,52.7z"/>
	<g>
		<ellipse id="XMLID_169_" class="st1" cx="58.7" cy="262.9" rx="38" ry="3"/>
		<g id="XMLID_168_">
			<path id="XMLID_66_" class="st2" d="M108.2,113.8c0,0,4.2,4.9,5,5.2c0.5,0.2,3.7,0.8,4.8,1c0.4,0.1,0.8,0.1,1.2,0.3
				c0.4,0.2,0.7,0.5,1,0.8c0.8,0.8,1.5,1.7,2.2,2.7c0.2,0.2,0.4,0.5,0.5,0.8c0.2,0.3,0.2,0.7,0.3,1.1c0.5,2.1,0.8,4.2,1.2,6.2
				c0,0.1,0,0.2,0,0.3c-0.1,0.2-0.5,0.2-0.7,0c-0.2-0.2-0.4-0.4-0.6-0.5c0,0.2,0,0.4,0,0.5c-0.4,0.2-0.8,0-1.2-0.2
				c-1.5-0.8-2.8-2.1-3.7-3.6c-0.2-0.3-0.3-0.6-0.6-0.8c-0.6-0.6-1.7-0.6-2.5-0.9c-0.8-0.2-1.6-0.4-2.4-0.8
				c-1.4-0.6-1.5-2.3-1.7-2.6c-0.1-0.2-0.2-0.3-0.4-0.4c-0.9-0.8-4.5-3.5-4.5-3.5"/>
		</g>
		<g id="XMLID_167_">
			<path id="XMLID_64_" class="st3" d="M58.9,8.8c2,0.6,3,3.1,3.7,4.9c0.8,2.1,1.2,4.4,1.5,6.6c0.2,1.6,0.3,3.2-0.3,4.6
				c-0.3,0.7-0.8,1.4-1.3,2c-0.3,0.4-0.6,0.7-0.9,1c-0.4,0.3-0.9,0.4-1.3,0.2c-0.6-0.2-0.9-1-1-1.6c-1.1-4.2-2.4-8.4-4.7-12"/>
		</g>
		<g id="XMLID_166_">
			<path id="XMLID_62_" class="st4" d="M61.1,21.9c0-1.3,1.4-2.2,2.6-0.8c1,1.1,1.3,3.3,1.3,4.9c0.1,1.9-1.4,2.3-2.6,2.6"/>
		</g>
		<g>
			<path id="XMLID_165_" class="st5" d="M75.5,248.3c0,0,0,4.1-0.3,5.5c-0.3,1.4-4.9,1-5.4,0.2c-0.4-0.8,0.1-7.5,0.1-7.5"/>
			<path id="XMLID_164_" class="st6" d="M68.6,255.3c-0.1,1.5-0.1,4.4-0.1,4.4l4.8,1.2l0.6-0.8c0,0,1.3,1.1,2.8,1.5
				c1.1,0.3,3.4,0.5,4.5,0.4c3.9-0.3,6.7-1.5,6.8-2.1c0.6-2.4-4.7-2.1-5.7-2.2c-3.1-0.3-5.1-2.5-5.7-4c-0.4-1.1-0.2-1.4-0.8-1.2
				c0,0-0.6,0.1-1,0.7c-0.7,1-1.8,1.6-3,1.3c-0.7-0.2-1.3-0.5-1.8-1C69.8,253.5,68.7,253.8,68.6,255.3z"/>
		</g>
		<path id="XMLID_163_" class="st7" d="M66.4,198.3c0.5-7.1-5.3-16.7-5.3-16.7s15.6-8.6,15.8-11.2c0,0,2.1,14.7,2.9,19.9
			c1.3,9-3.2,60.4-3.2,60.4s-3.3,0.9-7.6,0.1c0,0-0.8-19.9-4.1-33.3C63.5,211.1,65.9,200.1,66.4,198.3z"/>
		<path id="XMLID_162_" class="st7" d="M65.2,115.9c5.9,13.1,12.2,55.2,13.7,69.8c0.6,6.2-4.5,13.4-10.5,7.8
			c-7.1-6.7-17.2-37.2-20.8-42.6c-3.6-5.4-17-10.3-7.8-37.7"/>
		<g>
			<path id="XMLID_161_" class="st5" d="M38.9,248.5c0,0-0.5,5.7-0.7,7.2c-0.2,1.5-4.9,1.3-5.4,0.5c-0.5-0.8-0.3-7.5-0.3-7.5"/>
			<path id="XMLID_160_" class="st6" d="M31.5,257.4c-0.1,1.5,0.2,4,0.2,4l5.4,0.4l0.3-0.9c0,0,1.7,1,3.1,1.1l4.5,0.3
				c3.3,0.2,5.2-0.1,5.4-0.7c0.5-2.4-3.5-2.6-4.5-2.6c-3-0.2-6.1-1.8-6.7-3.4c-0.4-1.1-0.2-1.4-0.8-1.2c0,0-0.6,0.1-1,0.7
				c-0.6,1-1.8,1.6-2.9,1.3c-0.7-0.2-1.3-0.5-1.8-1C32.6,255.5,31.6,255.8,31.5,257.4z"/>
		</g>
		<path id="XMLID_159_" class="st7" d="M50.6,197.5c-1,5.1-14.3,3.2-14-1.3c0.4-6.4-4.1-14.7-5.8-45.1c-0.2-3.5-3.7-4-5.1-13.5
			c-1.4-9.5,4.3-20,4.3-20l20.4-2.9c0,0,7.9,17.7,6.2,35.4S51.8,191.5,50.6,197.5z"/>
		<path id="XMLID_158_" class="st7" d="M36.6,195.1c0,0-4.6,9.2-5.2,15.9c-0.8,9.7,0.2,41.8,0.2,41.8s5,1.1,7.7,0.3
			c0,0,11.8-56.8,12.2-62.9C52,183.9,36.6,195.1,36.6,195.1z"/>
		<path id="XMLID_157_" class="st8" d="M73.1,54.3c-2.3-2.6-9.6-7-19.4-6.7c-6.8,0.2-25.1,1.3-27.2,5.8c-1,2.3-2.2,25.9-0.6,34.1
			c1.2,6.1,4.1,21.3,4.1,25c0,3.7-2,5.2-1,6.3c2.1,2.4,16.1,3.4,22.7,3.4c5.9,0,15.9-1.6,16.4-3.5c0.8-2.8-1.1-2.7-1.4-5.6
			c-0.3-2.9-1.6-22.3,0.1-25.1c2.7-4.5,5.4-16.2,5.7-19.6C72.5,65.1,75.4,56.9,73.1,54.3z"/>
		<path id="XMLID_156_" class="st9" d="M31,73.4c-0.7,1.5-5.5,9.1-5.5,9.1l-0.2,0.9c0.1,1.6,0.3,3,0.5,4.1c1.2,6.1,4.1,21.3,4.1,25
			c0,3.7-2,5.2-1,6.3c0.8,1,3.6,1.7,7,2.2c-0.8-0.9-1.5-1.8-1.6-2.3c-0.3-1.1,1.5-0.8,1.9-1.7c0.3-0.9-4.1-18.6-5.2-27.1
			C29.9,81.4,31.7,71.9,31,73.4z"/>
		<path id="XMLID_155_" class="st2" d="M59.4,39.3c0,0,0.1,8.2,0.4,8.5c0.3,0.3,1.9,1.1,1.9,1.1s-1.1,7.1-2.9,6.6
			c-1.8-0.5-13.5-6.4-13.5-6.4s1.7-0.7,1.7-1.3c0-0.7-1.6-13.5-1.6-13.5"/>
		<path id="XMLID_154_" class="st2" d="M51.3,9.6c1.7,0.5,6.2-0.5,7.5,1.4c1.2,1.9,2.3,6.4,2.8,7.6c0.9,2.5,1.5,5.1,2.2,7.7
			c0.9,3.3,2.3,9.4-0.9,12.2c-0.9,0.8-1.4,1.1-2.5,1.3c-1.5,0.3-3.1,0.6-4.6,0.9c-2.4,0.4-5,0.9-7.4,0.2c-3.2-1-4.9-5.4-5.7-8.3
			l-4.7-16.9L51.3,9.6z"/>
		<path id="XMLID_153_" class="st10" d="M59.3,57.3c0,0,0.6,30,1.9,48.3l-4.4,6.1l-3-7.6c0,0-1.3-22,2.9-46.5L59.3,57.3z"/>
		<path id="XMLID_152_" class="st10" d="M60.3,54.7l-0.1,0.4c-0.2,0.8-0.5,1.5-0.9,2.2l0,0l-2.7,0.2c0,0-1.8-1-2.1-2
			c-0.2-1,3-2.7,3-2.7l0.4,0.2C58.8,53.3,59.6,53.9,60.3,54.7L60.3,54.7z"/>
		<path id="XMLID_151_" class="st11" d="M46.7,44.8c0,0-2.3,1.7-3.7,3.7c1.4,3.2,5.5,8.6,9,11.2c1.6-4.3,5.5-6.9,5.5-6.9
			S47.7,50.8,46.7,44.8z"/>
		<path id="XMLID_150_" class="st11" d="M57.5,52.8c0,0,3.4,1.3,5.4,5.1c0,0,0.6-5.1-0.7-9.5c0,0-1.8-3.1-2.6-3.1
			C59.9,48.9,57.5,52.8,57.5,52.8z"/>
		<path id="XMLID_149_" class="st8" d="M71.1,52.5c6,3.3,16.2,37.4,17.3,37.8c1.1,0.4,24.3,27.6,24.3,27.6l-3.7,5
			c0,0-23.4-17-30.1-24.4c-4.7-5.2-13.7-28.6-13.7-28.6S65.1,49.2,71.1,52.5z"/>
		<path id="XMLID_148_" class="st9" d="M81.2,97.1c-2.3-2-9.6-23.7-9.6-23.7l-1.8,7.4c2.9,6.8,6.7,14.9,9.2,17.7
			c6.7,7.4,30.1,24.4,30.1,24.4l1.4-1.9C110.5,121,83.5,99.2,81.2,97.1z"/>
		<g>
			<path id="XMLID_147_" class="st12" d="M40.7,109.3L5.3,116c-1,0.2-1.6,1.2-1.3,2.1l4.8,24.5c0.2,0.8,1.1,1.4,1.9,1.2l35.5-6.7
				c1-0.2,1.6-1.2,1.3-2.1l-4.8-24.5C42.4,109.7,41.6,109.2,40.7,109.3z"/>
			<polygon id="XMLID_146_" class="st13" points="40.3,111.2 6.3,117.6 11.1,142 45,135.6 			"/>
			<g>
				<line id="XMLID_145_" class="st14" x1="41.2" y1="134.3" x2="37.5" y2="113.6"/>
				<line id="XMLID_144_" class="st14" x1="38" y1="134.9" x2="34.3" y2="114.2"/>
				<line id="XMLID_143_" class="st14" x1="33.4" y1="135.9" x2="29.7" y2="115.1"/>
				<line id="XMLID_142_" class="st14" x1="28.8" y1="136.8" x2="25.1" y2="116.1"/>
				<line id="XMLID_141_" class="st14" x1="24.2" y1="137.8" x2="20" y2="117"/>
				<line id="XMLID_140_" class="st14" x1="19.6" y1="138.7" x2="15.4" y2="118"/>
				<line id="XMLID_139_" class="st14" x1="15" y1="139.7" x2="10.6" y2="118.9"/>
			</g>
		</g>
		<g>
			<g id="XMLID_138_">
				<path id="XMLID_61_" class="st2" d="M21.9,127.2c0,0,1.4,2.9,2.2,4.3c0.5,0.9,4.2,4.1,5.7,6.6c0.7,1.2,1.4,2.6,1.2,4
					c-0.2,1.4-1.5,2.7-2.9,2.4c-0.4-0.1-0.8-0.3-1.2,0c-0.2,0.1-0.2,0.3-0.3,0.5c-0.3,0.5-1,0.9-1.6,0.8c-0.6-0.1-1.2-0.6-1.3-1.2
					c-1,0.9-2.6,0.9-3.5,0c0.6-0.5,1-1.2,0.9-1.9c-0.1-0.7-0.7-1.2-1.1-1.7c-0.7-1-1.1-2.2-1.1-3.4c0-0.9,0.3-1.7,0.4-2.6
					c0.2-1.8-0.2-3.6-1.1-5.1"/>
			</g>
			<path id="XMLID_137_" class="st8" d="M32.6,69.9c-1.1,3.8-17.4,28.9-17.4,28.9l8.7,31.9l-5,3.1c0,0-15.5-25.8-15.6-33.1
				c0-7.3,11.4-34,19.7-44.9c2.7-3.5,8-5.2,8-5.2"/>
		</g>
		<g id="XMLID_136_">
			<path id="XMLID_59_" class="st10" d="M40.8,29.5c1.1-0.6,1.9-1.3,2.6-0.3c0.4,0.5,0.6,1.3,1.2,1.5c0.6,0.2,1.3-0.4,1.4-1
				c0.2-0.6,0-1.3-0.2-1.9c-0.4-1.4-0.9-2.8-1.3-4.2c-0.4-1.4-0.8-2.9-0.3-4.2c0.3-0.7,0.8-1.2,1.3-1.7c1.8-1.5,4.1-2.3,6.4-2.7
				c2.3-0.5,4.6-0.7,6.9-1.4c0.9-0.3,1.9-0.7,2.6-1.3c1.2-1,1.8-2.6,1.9-4.2c0-1.6-0.5-3.2-1.3-4.5c-0.2,0.5-0.4,1.1-0.7,1.6
				c-0.3-0.7-0.7-1.4-1.3-2c-0.7,3.7-16.4,2.5-20,4.1c-2.5,1.1-4.6,1.9-4.6,6c-0.1,0.3-0.3,0.5-0.5,0.7c-2.3,2.1-3.2,4.6-3.5,8.3
				c-0.3,4.6,2.3,9.5,4.9,13.3c0.7,0.9,1,1.6,1.9,2.3c0.9,0.7,2.5,1,3.6,0.8c1.1-0.2,3.4-0.1,3.4-1.3c0-0.8-1.7-2.3-2.2-3"/>
		</g>
		<g id="XMLID_135_">
			<path id="XMLID_57_" class="st2" d="M44.9,33.9c0,0,0.2,0.8-0.3,1.4c-0.4,0.5-1.3,0.5-1.9,0.3c-1.7-0.5-2.8-2.2-3.1-3.8
				c-0.4-2,0.7-4,2.5-3.4c1.1,0.3,1.7,1.5,1.7,2.6"/>
		</g>
		<g id="XMLID_134_">
			<path id="XMLID_55_" class="st4" d="M59.4,39.9l-5,0.9c0,0,1.7,1.9,5.1,1.9"/>
		</g>
		<path id="XMLID_133_" class="st15" d="M70.6,198.2c0.9-3-1.7-7.6-2.9-11.1c-1.3-3.5-10.8-31.1-10.8-31.1l-2.1,11.2
			c2,4.8,4.1,9.9,6.3,14.4l0,0l0,0c0.8,1.7,1.7,3.4,2.5,4.9c1.5,3.4,3.1,8,2.8,11.8c-0.5,1.8-3,12.8-1.4,19.2
			c3.2,13.5,4.1,33.3,4.1,33.3c0.8,0.2,1.6,0.2,2.3,0.3c-0.3-4.9-0.8-13.6-0.8-15.3c-0.1-2.4-3.1-16.3-2.9-21.9
			C67.9,208.5,69.7,201.2,70.6,198.2z"/>
		<g>
			<polygon id="XMLID_132_" class="st12" points="46.5,127.8 43.4,128.5 41.2,117.1 44.3,116.4 			"/>
			<g>
				<path id="XMLID_231_" class="st12" d="M50.8,121c-0.3-1.5-1.7-2.5-3.3-2.2l-3.5,0.7l1,5.5c0,0,2.8-0.5,3.5-0.7
					C50.1,124,51.1,122.5,50.8,121z M46.5,121.8c-0.2-0.9,0.4-1.7,1.2-1.8c0.9-0.2,1.7,0.4,1.8,1.2c0.2,0.9-0.4,1.7-1.2,1.8
					C47.5,123.2,46.6,122.7,46.5,121.8z"/>
			</g>
		</g>
	</g>
	<g>
		<ellipse id="XMLID_129_" class="st1" cx="156.6" cy="285" rx="39.5" ry="3.6"/>
		<g>
			<path id="XMLID_128_" class="st9" d="M205.3,70.9L181,67.7v48.6l13.2,1.8c1.1,0.2,2.2-0.5,2.5-1.6l10.5-43.1
				C207.4,72.3,206.6,71.1,205.3,70.9z"/>
			<path id="XMLID_127_" class="st8" d="M174.7,65.4l-8.7,38.4c-0.2,1,0.5,2.1,1.5,2.2l27.2,3.9c0.9,0.1,1.8-0.5,2.1-1.4l8.7-38.4
				c0.2-1-0.5-2.1-1.5-2.2L176.7,64C175.8,63.9,174.9,64.5,174.7,65.4z"/>
			<polygon id="XMLID_126_" class="st13" points="176.4,66.6 168,103.4 195,107.3 203.4,70.5 			"/>
			<g>
				<line id="XMLID_125_" class="st14" x1="200.5" y1="73.2" x2="177.6" y2="69.9"/>
				<line id="XMLID_124_" class="st14" x1="199.7" y1="76.7" x2="176.8" y2="73.4"/>
				<line id="XMLID_123_" class="st14" x1="190.2" y1="79.6" x2="175.8" y2="77.5"/>
				<line id="XMLID_122_" class="st14" x1="189.2" y1="82.6" x2="174.8" y2="80.5"/>
				<line id="XMLID_121_" class="st14" x1="188.1" y1="85.5" x2="173.8" y2="83.5"/>
				<line id="XMLID_120_" class="st14" x1="193.4" y1="102" x2="179.1" y2="100"/>
			</g>
		</g>
		<g id="XMLID_119_">
			<path id="XMLID_53_" class="st4" d="M164.2,104.2c1.5-0.7,2.7-2.1,3.8-3.4c1.1-1.3,2.2-2.6,3.2-3.9c0.4-0.5,0.9-1.1,0.9-1.7
				c-1.8-0.1-3,2.2-4.8,2.3c0.8-3,2.1-5.9,3.6-8.5c0.4-0.7,0.8-1.4,0.5-2.1c-2,0.7-3.6,2.1-5,3.7c-1,1.1-1.9,2.2-2.7,3.5
				c-2.4,3.6-3.9,7.8-4.9,12"/>
		</g>
		<g>
			<path id="XMLID_118_" class="st2" d="M156.4,135.1L137,118.8c0,0-9,12.3-5.6,24.1c1.7,5.8,3.8,8.7,4.7,11.5
				c0.9,2.6,6.7,39.1,6.3,41.7c-0.4,2.7-3.6,10.1-4.8,18c-1.4,9.4-1.2,40.2-2.3,48.3c-1.1,8.2,6.4,9.5,6.8,6.8
				c3.5-23.6,12.9-60.3,14.2-72.1C157.6,185.2,157,163.6,156.4,135.1z"/>
			<g id="XMLID_117_">
				<path id="XMLID_51_" class="st4" d="M156.5,158.4l-8.4,19.4c3.6,6,5.6,13.1,5.9,20.3c0.1,3.7-0.2,7.5-0.1,11.2
					c0,0.3,0,0.5,0.1,0.8c1.1-5.5,2-10.1,2.3-13.1c0.9-8.3,0.9-21.6,0.6-38.7C156.8,158.4,156.6,158.3,156.5,158.4z"/>
			</g>
			<path id="XMLID_116_" class="st2" d="M143.4,261.5c0,0-1.8,8.6-1.3,9.6c0.5,1.1,2.2,4.3,4,5.4c1.9,1.2,6,2.6,6.4,3.2
				c0.3,0.5,0.4,1.3-0.2,1.7c-1.5,1.2-4.2,1.8-5.9,1.5c-5.6-0.9-6.2-3.4-9.5-3.8c-0.6-0.1-1.6,0.8-3.2,0c-1.6-0.8-2.3-2.3-2.2-3.6
				c0.2-2.4,1.6-4.3,2.5-6c0.9-1.7,1.6-9.7,1.6-9.7"/>
			<path id="XMLID_115_" class="st10" d="M152.6,281.9c0.4-0.7,0.5-1.8,0.1-2c-0.5-0.4-2.4-1.6-3.5-2.1c-1.1-0.5-2.8-0.9-2.2-0.6
				c0.6,0.3-0.5,1.6-1.5,1.5c-3.5-0.2-6.1-2.6-8.2-3.1c-2.9-0.7-4.1-4.2-4.3-4.7c-0.5,0.3-1.8,3.1-2.1,4c-0.2,0.8-0.7,2.2-0.4,3
				c0.2,0.6,0.5,1.7,0.3,2.9c0,0,0.6,0.4,2.1,0.8c1,0.2,2.3,0,2.3,0l0.3-1.8c0,0,0.8,0,1.8,0.2c1,0.2,2.7,1.2,2.7,1.3
				c0.4,0.5,0.7,1.4,1.3,1.6c1.4,0.7,2.8,1.1,4.6,1.2C149.7,284.2,151.9,283.1,152.6,281.9z"/>
		</g>
		<g>
			<path id="XMLID_114_" class="st2" d="M182.9,281.5c-0.4-0.5-4.9-1.2-7-2.1c-2-0.8-4.4-3.5-4.9-4.7c-0.5-1.1-0.4-6.9-0.3-9.4
				c0.4-16.8,3.5-57.8,4-67.6c0.8-17.1-1.4-34.7-8-62.1l-24.5-18.8c0,0-6.9,12.7-4.6,24.9c1.3,7.1,7.2,8.2,8.2,10.9
				c1,2.7,15.8,47,15.8,47s-2.9,9.6-3,20.1c-0.1,9,3.9,36,4.7,46.2c0.1,2,0.4,6.8-0.2,8.4c-0.7,1.9-2.6,4.1-2.5,6.4
				c0.1,1.4,1,2.7,2.8,3.2c1.7,0.5,2.7-0.5,3.3-0.5c3.4-0.1,4.4,2.2,10.4,2.2c1.8,0,4.5-1,5.9-2.5
				C183.5,282.7,183.3,282,182.9,281.5z"/>
			<path id="XMLID_113_" class="st10" d="M183.4,283.6c0.3-0.8,0.3-1.8-0.1-2c-0.6-0.3-2.7-1.2-3.9-1.5c-1.2-0.3-3.1-0.5-2.4-0.2
				c0.7,0.2-0.3,1.6-1.4,1.7c-3.7,0.4-6.7-1.5-8.9-1.7c-3.1-0.2-4.2-3.4-4.5-4c-0.5,0.4-2.1,3.4-2.2,4.3c-0.1,0.8-0.4,2.3,0,3.1
				c0.2,0.5,0.8,1.6,0.7,2.8c0,0,0.7,0.3,2.3,0.4c1,0,2.3-0.3,2.3-0.3v-1.8c0,0,0.8-0.2,1.9-0.1c1.1,0,2.4,0.6,3,1.1
				c0.5,0.4,1,1,1.6,1.2c1.7,0.4,3,0.6,4.8,0.4C180.8,286.4,182.9,284.9,183.4,283.6z"/>
		</g>
		<path id="XMLID_112_" class="st10" d="M137.5,116.7c-1.7,1.8-7.6,11.7-7.6,19.7c-0.1,8,2.8,13.2,3,14.8c1.9,12.3,3.7,27,3.7,27.8
			s7,5.4,16.3,4.9c17.3-1.1,24-5.6,24-5.6s-0.8-29.7-3.5-44.3c-1.3-7.3-7.2-19.1-7.2-19.1"/>
		<path id="XMLID_111_" class="st2" d="M121.7,84.6c0,0,2.8,13.8,3.5,16.3c0.7,2.5,4.3,18.1,7.8,17.8c3.4-0.3,22.2-15.9,22.2-15.9
			l-2.7-5.3l-16.5,7.9c0,0-1.5-17.9-2.8-22.1"/>
		<g id="XMLID_110_">
			<path id="XMLID_49_" class="st4" d="M128.1,93.1c1.7,6.2,5.3,12.7,6.4,17.5c0.2,1,11.6-3.2,11.7-7.5"/>
		</g>
		<path id="XMLID_109_" class="st6" d="M132.9,65.5c0,0-5.5,0.6-8.3,2.7c-7.1,5.4-1.6,25.1-1.6,25.1s-0.3,1,4.4,0.8
			c4.8-0.3,8.6-1.6,8.6-1.6l-1.4-16.1"/>
		<path id="XMLID_108_" class="st16" d="M126.7,76.6c0,0-0.6,11.6,1.5,17.4c2.1,0,3.9-0.5,3.9-0.5L126.7,76.6z"/>
		<g id="XMLID_107_">
			<path id="XMLID_47_" class="st2" d="M159.1,29.2c3.3,4.3,2.6,10.3,1.8,15.6c-0.4,2.7-0.8,5.4-1.2,8.1c-0.2,1.3-0.5,2.7-1.5,3.5
				c-1,0.8-2.4,0.8-3.8,0.8c0,2.2,0,4.5,0,6.7c-3.8,0.1-7.6,0.1-11.5,0c0-1.6-0.3-3.1-1-4.6c-1.9,0-3.1-1.9-3.9-3.6
				c-0.8-2-1.5-4.1-2.1-6.1c-0.8-2.8-1.5-5.5-1.6-8.4c-0.1-2.9,0.6-5.8,2.4-8c1.2-1.5,2.9-2.6,4.7-3.5c2.4-1.2,5.2-2.2,7.7-1.1"/>
		</g>
		<g id="XMLID_106_">
			<path id="XMLID_45_" class="st10" d="M155.1,49.6c-0.5-2.2-0.4-3.5,0.3-5c0.2-0.5,0.6-1,1-1.3c0.6-0.4,1.4-0.5,2-0.2
				c0.4,0.2,0.8,0.5,1,1c0.8-3,0.9-6.2,0.7-9.4c-0.4-5-3.4-8.8-7.7-10.6c-8.1-3.3-19.7,0-23,7.9c-2.5,6-1.2,14.7,3.5,19.7
				c4.2,4.5,10.3,5.1,15.9,4.2c2.9-0.5,7.3-0.2,8.8-4.1c0.1-0.3-0.1-0.6-0.4-0.6C156,51.3,155.2,50,155.1,49.6z"/>
		</g>
		<g id="XMLID_105_">
			<path id="XMLID_43_" class="st10" d="M155.8,39c0.3,0.5,0.2,1.1,0.5,1.6c0.5,0.8,1.1,1.1,2,1.5c1.4,0.6,1.1,2.6,1,3.5
				c1-0.7,1.2-2.6,1.5-3.5c0.3-1.1,0.5-2.2,0.8-3.2c0.3-1,0.8-2,0.9-3.1c0.3-3.8-2-8.2-4.9-10.3c-2.1-1.5-5.2-1.5-7.6,0.1
				c-1,0.7-1.7,1.6-2.2,2.8c-0.2,0.5-0.3,1-0.1,1.5"/>
		</g>
		<g id="XMLID_104_">
			<path id="XMLID_41_" class="st16" d="M137.3,65.5c0.2-1.3,0.5-2.8,1.8-3.4c0.3-0.1,0.7-0.2,1.1-0.2c3.7-0.4,7.5-0.6,11.2-0.5
				c1.6,0,3.2,0.1,4.5,0.8c2.2,1.1,3.4,3.4,4.4,5.6"/>
		</g>
		<g id="XMLID_103_">
			<path id="XMLID_39_" class="st6" d="M168.9,113.5c-0.5-0.8-1.7-1.7-2.2-2.5c-1-2-1.9-10.6-1.6-12.8c0.4-2.3,2.5-3.6,3.4-8.8
				c1.2-6.7-1.6-12-3.1-14.2c-2.2-3.2-0.9-3.2-1.6-7c-0.1-0.7-0.3-1.4-0.8-1.9c-0.5-0.5-3.7-2-4.4-2.1c-6.1-0.9-9.6-0.2-15.8,0.1
				c-3,0.1-6.1,0.5-9,1.1c-3.3,0.7-6.2,1.6-6.8,6.1c-1,6.9-0.2,13.9,1.9,20.5c1.4,4.3,9.7,19.4,7.7,22.3c-0.5,0.7-1.7,1.9-1.8,2.8
				c-0.5,3,6.3,4.1,9.3,4.4c4.5,0.4,9.6,0.1,14.1-0.1c3.4-0.2,10.8-1.3,11.4-5.6C169.8,114.7,169.4,114.1,168.9,113.5z"/>
		</g>
		<path id="XMLID_102_" class="st16" d="M167.7,90.6c0,1.2-0.7,2.9-0.9,3.5c-0.9,0.4-4.2,1.2-6.2,0.3c-0.4-4-2.8-11.8-2.8-11.8
			S167.6,89.5,167.7,90.6z"/>
		<g id="XMLID_101_">
			<path id="XMLID_37_" class="st10" d="M139.3,53.1c-2.3-0.7-4.8,0.7-6.4,2.5c-1.8,2.2-2.6,5.5-0.9,7.7c0.6,0.8,1.5,1.4,2.4,1.9
				c2.8,1.5,6.1,2.5,9.2,1.7c3.1-0.8,5.8-3.5,5.8-6.7c0-2.9-2.1-5.3-4.3-7.2"/>
		</g>
		<g>
			<path id="XMLID_100_" class="st2" d="M163.3,87.8c0,0,11.2,27.1,16.1,27.1c3.5,0,12.2-25,12.2-25l-5.5-2.6L180,97.7l-6.2-19.5"/>
			<path id="XMLID_99_" class="st2" d="M185,89.1c0,0,1.8-2.9,1.7-4.9c-0.1-0.8-0.5-4.5-0.1-5.2c0.4-0.7,1.3-3.1,1.8-3.6
				c0.5-0.5,2.5-1.2,2.9-0.9c0.5,0.3,1.1-1.2,1.9-1.1c0.8,0.1,1.4,0.8,1.4,1.5c0,0.7,1.1,0.9,1.2,1.4c0.1,0.5,0.1,1,0.3,1.4
				c0.2,0.4,0.8,0.2,1,1.2c0.2,0.9-0.1,1,0,1.4c0.1,0.5,0.5,0.4,0.3,1.3c-0.1,0.9-0.7,2-1.3,3c-0.5,1-1.6,2.2-3.1,3.1
				c-0.7,0.4-1.1,1.2-1.8,2.5"/>
			<path id="XMLID_98_" class="st10" d="M188,68.2c-0.1-0.2-0.5-0.6-1-0.3c-0.4,0.3-0.3,0.9-0.2,1.1c0.1,0.2,3.3,7.5,3.3,7.5
				s0.3,0.3,0.8-0.1c0.6-0.5,0.4-0.7,0.4-0.7S188.2,68.4,188,68.2z"/>
			<g>
				<path id="XMLID_97_" class="st4" d="M191.5,75.2c-0.6,1.1-1.4,1.5-2,2.1c-0.5,0.5-0.5,0.8-1,1.3c1-0.1,0.8-0.7,2.1-1.6
					c0.6-0.4,1.2-0.9,1.3-1.6C192,75.1,191.7,74.9,191.5,75.2L191.5,75.2z"/>
			</g>
		</g>
		<g id="XMLID_96_">
			<path id="XMLID_68_" class="st6" d="M153,63.6c2.9,0.2,11.4-1.3,16.1,3.6c4,4.1,6.2,15,7.8,19.4c-4,4-7.8,7.3-13.8,6
				c-0.2-0.2-3.2-9.5-5.4-10.4"/>
		</g>
		<g id="XMLID_95_">
			<path id="XMLID_73_" class="st3" d="M156.2,183.7c-1.1-7.1-7.9-29.2-8.2-29.8c-3.7-2.9-6.2-5.9-7.4-8.3
				c-0.8,4.8,1.4,9.6,3.4,14.1c3.6,7.8,5.8,16.2,8.9,24.2"/>
		</g>
	</g>
	<g>
		<path id="XMLID_94_" class="st8" d="M444.2,71.3c-4.8,5.2-8.2,38.4-8.4,39.7c-0.1,1.2-24.5,14.9-24.5,14.9l3.4,3.9
			c0,0,25.9-6.5,30.6-12.2c4-4.8,13.1-43.9,13.1-43.9S452.2,62.6,444.2,71.3z"/>
		<ellipse id="XMLID_93_" class="st1" cx="482" cy="295.4" rx="72.5" ry="5"/>
		<g>
			<path id="XMLID_92_" class="st2" d="M518.5,269c0,0,2,3.8,3,5c1,1.2,5.3-1.5,5.4-2.5c0-1-3.9-7-3.9-7"/>
			<path id="XMLID_91_" class="st10" d="M528.8,271.9c0.9,1.3,2.5,4,2.5,4l-3.8,3.5l-1-0.4c0,0-0.6,1.7-1.8,2.8
				c-0.9,0.8-2.9,2.2-4,2.7c-3.8,1.8-7,2-7.4,1.6c-1.8-1.9,3.2-4.3,4.2-4.9c2.7-1.8,3.5-4.9,3.2-6.6c-0.2-1.3-0.6-1.4,0.1-1.6
				c0,0,0.6-0.2,1.3,0.1c1.2,0.6,2.6,0.5,3.5-0.4c0.5-0.5,1-1.1,1.1-1.9C526.7,270.8,527.9,270.5,528.8,271.9z"/>
		</g>
		<g>
			<path id="XMLID_90_" class="st2" d="M447.2,282.1c0,0-1,2.4-0.8,3.9c0.1,1.5,5.3,1.7,5.9,0.9c0.6-0.8,0.9-7.9,0.9-7.9"/>
			<path id="XMLID_89_" class="st10" d="M453.6,288.2c0,1.6-0.5,4.2-0.5,4.2h-5.9l-0.3-0.9c0,0-1.9,0.9-3.4,0.9h-5
				c-3.7,0-5.7-0.4-5.8-1.1c-0.4-2.6,4-2.5,5.1-2.5c3.3,0,6.8-1.5,7.6-3.1c0.6-1.2,0.3-1.4,1-1.2c0,0,0.6,0.1,1,0.8
				c0.6,1.1,1.8,1.8,3.1,1.6c0.7-0.1,1.5-0.4,2-0.9C452.5,286.2,453.6,286.6,453.6,288.2z"/>
		</g>
		<path id="XMLID_88_" class="st6" d="M477.5,174.3c0,0.2-4.8-5.3-4.9-5.1c-1.9,9.6-10.8,41.9-13.8,50.4v0c-0.4,1.2-2.7,3.7-4.6,4.2
			c-4.3,1.1-11.3-0.4-11.8-8.7c-0.1-0.9,0.1-1.9,0-3c-1.2-12.8,11-69.2,11.3-72.8c0.3-3.6,7.4-1,9.4-1.7
			C473,134.4,480.1,160.8,477.5,174.3z"/>
		<path id="XMLID_87_" class="st6" d="M459.4,224.2c-2-6,1-13,1-13s-17.1-13.1-17.9-5.1c-0.1,0.6-0.7,6.1-0.7,9.1
			c0,11,3.8,45.6,3.5,66.8v1.4c0,0,2.8,0.6,7.9,0.5c0.2,0,0.5,0,0.7,0c1.4-13.2,4.5-31.1,6-49.2
			C460.2,230.3,459.7,225.2,459.4,224.2z"/>
		<path id="XMLID_86_" class="st6" d="M502.9,221.5c-3.4-4.2-7-6.1-8.1-9.4c-2.5-7.5-1.8-38-2-46.5c0.7-1.7,7.3-19-6.1-31.8
			c0,0-12,5.1-21.6,5.8c-7.6,0.5-11.4-0.3-11.4-0.3s7.1,10.8,7.6,15.6c0.7,8.1,15.9,57.1,17,59.8c2.6,6.1,5.6,8.5,6.5,9.8
			c6.7,8.8,22.5,27.2,34.4,44.8l0.8,1.1c0,0,2.4-0.8,6.9-3.9C520.5,254.9,513.8,234.9,502.9,221.5z"/>
		<path id="XMLID_85_" class="st8" d="M444.2,71.3c2.4-2.7,12.7-7,22.8-6.7c7,0.2,29.3,2.5,31.4,7.2c1.1,2.4,1,25.1-0.6,33.6
			c-1.2,6.4-4.8,22.7-4.8,26.5c0,3.8,2,5.4,1.1,6.5c-2.1,2.5-18.1,3.6-24.9,3.6c-6.1,0-16.5-1.6-17-3.6c-0.8-2.9,1.2-2.8,1.5-5.8
			s1.7-23.1-0.1-26c-2.8-4.6-7.1-17.7-7.4-21.2C446,81.9,441.8,74,444.2,71.3z"/>
		<path id="XMLID_84_" class="st2" d="M461.1,55.9c0,0-0.1,8.5-0.4,8.8c-0.3,0.3-2,1.1-2,1.1s1.2,7.4,3,6.8c1.8-0.5,14-6.7,14-6.7
			s-1.7-0.7-1.7-1.4c0-0.7,1.6-14,1.6-14"/>
		<g id="XMLID_83_">
			<path id="XMLID_172_" class="st3" d="M464.4,28.1c-1.5-1.1-3.6-1.2-5.2-0.3c-1.7,0.8-2.9,2.4-3.6,4.1c-0.7,1.6-0.9,3.6,0,5.2
				c-1.2,0.4-2,1.7-2,3c0,1.4,0.8,2.8,1.6,3.9c0.7,1.1,2.2,1.7,3.5,1.5c0.9-0.2,1.7-0.8,2.2-1.6c0.6-0.7,0.9-1.6,1.3-2.5
				c1.6-4,2.6-8.2,3.4-12.4"/>
		</g>
		<path id="XMLID_82_" class="st2" d="M469.5,25.2c-1.8,0.5-6.4-0.5-7.7,1.5c-1.3,1.9-2.4,6.6-2.9,7.9c-1,2.6-1.6,5.3-2.3,8
			c-0.9,3.4-3.3,9.9,0.1,12.8c1,0.8,2.2,0.9,3.4,1.1c1.6,0.3,3.2,0.6,4.8,0.9c2.5,0.4,5.2,1,7.7,0.2c3.3-1.1,5.1-5.6,5.9-8.6
			l4.8-17.6L469.5,25.2z"/>
		<g id="XMLID_81_">
			<path id="XMLID_174_" class="st2" d="M476.8,50.7c0,0-0.1,0.8,0.5,1.4c0.5,0.5,1.4,0.3,1.9,0c1.7-0.8,2.6-2.6,2.8-4.3
				c0.1-2.1-1.2-4-3-3.2c-1.1,0.4-1.6,1.8-1.5,2.9"/>
		</g>
		<g id="XMLID_80_">
			<path id="XMLID_212_" class="st10" d="M481.2,41c-0.6,1.7-2.1,5.7-3.7,5.3c-1.6-0.4,0.6-6.6,2-9.1c-2,0-4.5-0.3-5.2-2.2
				c-0.2-0.4-0.3-1-0.7-1.1c-0.4-0.1-0.7,0.2-1,0.4c-1.4,0.9-3.3,0-4.4-1.2c-0.3-0.3-0.6-0.6-0.9-0.6c-0.2,0-0.4,0.2-0.6,0.3
				c-2.3,1.6-8.4,1.6-8.4-1.3c-2,1-3.3-1.5-3.2-3.2c0.1-1.7,1.4-4.6,4.2-4.5c-0.1-2.1,1.5-3.4,3.2-4.7c1.7-1.3,3.8-1.8,5.9-1.9
				c3.3-0.2,7.1,1.2,8.2,4.3c0.1,0.2,0.2,0.5,0.4,0.6c0.2,0.1,0.5,0.1,0.8,0c2.5-0.7,5.4-0.3,7.4,1.5c1.9,1.7,2.6,4.9,1.1,7.1
				c1.9,0.5,3,2.8,2.7,4.7c-0.3,2-1.6,3.6-2.9,5.1c2.1,0.7,2.9,3.6,1.9,5.5c-1.1,1.9-3.8,3-6,2.7c0.5-2-0.4-4.3-2.3-4.6"/>
		</g>
		<path id="XMLID_79_" class="st10" d="M461.2,74.7c0,0-0.7,31.1-1.9,50.1l4.6,6.3l3.1-7.9c0,0,1.3-22.8-3-48.3L461.2,74.7z"/>
		<path id="XMLID_78_" class="st3" d="M460.2,72l0.1,0.4c0.2,0.8,0.5,1.6,0.9,2.3l0,0l2.8,0.2c0,0,1.9-1,2.2-2.1
			c0.3-1.1-3.1-2.8-3.1-2.8l-0.4,0.2C461.7,70.5,460.9,71.1,460.2,72L460.2,72z"/>
		<path id="XMLID_77_" class="st11" d="M474.3,61.7c0,0,2.4,1.7,3.8,3.9c-1.4,3.3-5.7,8.9-9.3,11.6c-1.7-4.5-5.7-7.1-5.7-7.1
			S473.3,67.9,474.3,61.7z"/>
		<path id="XMLID_76_" class="st11" d="M463.1,70c0,0-3.5,1.4-5.6,5.3c0,0-0.7-5.3,0.8-9.9c0,0,1.9-3.2,2.7-3.2
			C460.6,66,463.1,70,463.1,70z"/>
		<path id="XMLID_75_" class="st16" d="M459.4,224.2c-0.5-1.4-0.7-2.9-0.7-4.3c0-0.1,0.1-0.2,0.1-0.2v0c2-5.7,6.7-22.1,10.1-35.2
			l-5.3-19c0,0-3.2,38.6-4.3,41.4c-1.1,2.8-4.3,11.7-4,13.6c0.3,1.9,2.4,5.4,2.1,8.5c-0.3,3-0.3,30.3-0.3,30.5
			c1.1-7.9,2.1-16.2,2.8-24.6C460.2,230.3,459.7,225.2,459.4,224.2z"/>
		<g>
			<circle id="XMLID_71_" class="st17" cx="361.2" cy="68.4" r="38.4"/>
			<line id="XMLID_70_" class="st18" x1="387.3" y1="98.2" x2="444.5" y2="167.2"/>
		</g>
		<g>
			<g id="XMLID_69_">
				<path id="XMLID_214_" class="st2" d="M440.3,141.6c0,0-3.2,1-4.8,1.5c-1.1,0.3-6.1-0.2-9.1,0.4c-1.4,0.3-2.9,0.8-3.9,2
					c-0.9,1.1-1,3.1,0.2,3.9c0.3,0.2,0.8,0.4,0.9,0.9c0,0.2-0.1,0.4-0.1,0.6c-0.2,0.6,0,1.4,0.5,1.8c0.5,0.4,1.3,0.5,1.8,0.1
					c0,1.4,1.2,2.6,2.6,2.6c-0.1-0.7,0.2-1.6,0.8-2c0.6-0.4,1.4-0.4,2.1-0.4c1.3-0.1,2.5-0.7,3.4-1.6c0.6-0.6,1.1-1.4,1.7-2.1
					c1.2-1.4,2.9-2.4,4.7-2.8"/>
			</g>
			<path id="XMLID_67_" class="st9" d="M498.5,71.8c-0.1-0.2-0.2-0.4-0.4-0.6l-14.7,14.4c-3.5,9.3-10.5,33.8-10.5,33.8
				s-6.6,3.1-11,5.4c-1.1,0.6-4.3,2.7-8.1,5.3c-0.1,1.1-0.1,2-0.2,2.5c-0.3,3-0.7,3,0.1,5.9c0,1.9-0.7,4.8-1.2,7.7
				c11-2.8,33.8-10,34.7-10.4c1.3-0.7,8-27.7,11.9-44C499.6,81.7,499.3,73.5,498.5,71.8z"/>
			<path id="XMLID_18_" class="st8" d="M483.3,84c-1.4,3.9-8.6,38.1-8.6,38.1s-7.1,1.8-11.5,4.1c-3.4,1.8-27.4,16.7-27.4,16.7
				l2.4,5.6c0,0,42.7-15.1,44.5-16.1c1.9-1,19-44.2,19-52c0-4.5-3.7-9.2-3.7-9.2"/>
		</g>
		<g id="XMLID_17_">
			<path id="XMLID_216_" class="st2" d="M410,133.1c-1.4,0.2-2.8-0.9-3.1-2.2c-0.1-0.3-0.1-0.6-0.2-0.8c-0.3-0.4-0.8-0.5-1.3-0.6
				c-1.8-0.5-2.9-2.3-3.4-4.2c-0.2-1-0.3-2,0-3c0.3-1,1-1.8,2-2.1c0.2-0.1,0.4-0.1,0.6,0c0.2,0.1,0.3,0.2,0.4,0.4
				c0.6,0.7,1,1.6,1.2,2.5c0.2,0.6,0.3,1.4,0.9,1.8c0.4,0.3,0.8,0.3,1.2,0.5c0.8,0.4,1.2,1.3,1.5,2.2
				C410.3,128.8,409.7,131.8,410,133.1"/>
		</g>
		<g id="XMLID_16_">
			<path id="XMLID_217_" class="st2" d="M415.1,124.3c0.3-1-0.2-2.3-0.9-3.1c-0.7-0.8-1.7-1.3-2.7-1.7c-0.3-0.1-0.6-0.2-0.8,0.1
				c-0.1,0.2,0,0.4,0.1,0.6c0.4,0.6,1.2,0.9,1.6,1.6c0.2,0.2,0.2,0.5,0.4,0.8C413.2,123.4,414.1,124.1,415.1,124.3"/>
		</g>
		<path id="XMLID_15_" class="st9" d="M451.3,101.6c0,0-4-10-4.8-14.1c-1.9,9.8-1.3,27-2.9,28.5c-1.6,1.5-17.9,10.7-17.9,10.7l0,0
			c7.7-2.4,17.1-5.9,19.7-9.1C446.9,115.8,449.1,109.2,451.3,101.6L451.3,101.6z"/>
		<path id="XMLID_14_" class="st4" d="M461.1,56.7c0,0,6.9,1.5,8.1,1.3c1.2-0.2-2.6,2.1-3.4,2.2c-0.7,0.1-4.7-0.5-4.7-0.5V56.7z"/>
	</g>
</g>
<g id="XMLID_25_">
</g>
<g id="XMLID_26_">
</g>
<g id="XMLID_27_">
</g>
<g id="XMLID_28_">
</g>
<g id="XMLID_29_">
</g>
<g id="XMLID_30_">
</g>
<g id="XMLID_60_">
</g>
<g id="XMLID_181_">
</g>
<g id="XMLID_192_">
</g>
<g id="XMLID_193_">
</g>
<g id="XMLID_194_">
</g>
<g id="XMLID_218_">
</g>
<g id="XMLID_219_">
</g>
<g id="XMLID_221_">
</g>
<g id="XMLID_222_">
</g>
</svg>
